<?xml version="1.0" standalone="no"?>
<!DOCTYPE svg PUBLIC "-//W3C//DTD SVG 1.1//EN" "http://www.w3.org/Graphics/SVG/1.1/DTD/svg11.dtd" >
<svg xmlns="http://www.w3.org/2000/svg" xmlns:xlink="http://www.w3.org/1999/xlink" version="1.1">
<metadata>
Created by FontForge 20170731 at Fri Jul  6 15:27:15 2012
 By Aleksey,,,
Copyright (c) 2012 by Jonathan Hill. All rights reserved.
</metadata>
<defs>
<font id="Uniman-Heavy" horiz-adv-x="653" >
  <font-face 
    font-family="Uniman Heavy"
    font-weight="900"
    font-stretch="normal"
    units-per-em="1000"
    panose-1="0 0 10 0 0 0 0 0 0 0"
    ascent="800"
    descent="-200"
    x-height="500"
    cap-height="700"
    bbox="-86 -223 1404 1099"
    underline-thickness="50"
    underline-position="-150"
    unicode-range="U+000D-FB06"
  />
<missing-glyph horiz-adv-x="500" 
d="M80 180h340v340h-340v-340zM50 550h400v-400h-400v400z" />
    <glyph glyph-name="ff" unicode="ff" horiz-adv-x="972" 
d="M115 500v25q0 128 120 168q47 17 109 17q78 0 158 -24l-39 -110q-41 13 -73 13q-17 0 -31 -4q-53 -12 -53 -63v-22h295v25q0 128 120 169q47 16 109 16q78 0 159 -24l-40 -110q-40 13 -73 13q-17 0 -31 -4q-53 -12 -53 -63v-22h143v-120h-143v-379h-191v379h-295v-379
h-191v379h-94v120h94z" />
    <glyph glyph-name="fi" unicode="fi" horiz-adv-x="777" 
d="M306 500h424v-500h-191v380h-233v-379h-191v379h-94v120h94v25q0 124 113 166q49 19 113 19q75 0 161 -24l-39 -110q-40 13 -73 13q-17 0 -31 -4q-53 -12 -53 -63v-22zM633 700h4q42 0 68 -20.5t26 -47.5v-16q0 -26 -26 -46.5t-68 -20.5h-4q-42 0 -68.5 20.5t-26.5 46.5
v16q0 27 26.5 47.5t68.5 20.5z" />
    <glyph glyph-name="fl" unicode="fl" horiz-adv-x="770" 
d="M439 700h290v-700h-191v580h-75q-39 9 -72 9q-20 0 -32 -4q-53 -12 -53 -63v-22h143v-120h-143v-379h-191v379h-94v120h94v25q0 121 108 164q50 21 117 21q47 0 99 -10z" />
    <glyph glyph-name="ffi" unicode="ffi" horiz-adv-x="1263" 
d="M792 500h424v-500h-191v380h-233v-379h-191v379h-295v-379h-191v379h-94v120h94v25q0 128 120 168q47 17 109 17q78 0 158 -24l-39 -110q-41 13 -73 13q-17 0 -31 -4q-53 -12 -53 -63v-22h295v25q0 128 120 169q47 16 109 16q78 0 159 -24l-40 -110q-40 13 -73 13
q-17 0 -31 -4q-53 -12 -53 -63v-22zM1119 700h4q42 0 68.5 -20.5t26.5 -47.5v-16q0 -26 -26.5 -46.5t-68.5 -20.5h-4q-42 0 -68.5 20.5t-26.5 46.5v16q0 27 26.5 47.5t68.5 20.5z" />
    <glyph glyph-name="ffl" unicode="ffl" horiz-adv-x="1256" 
d="M925 700h290v-700h-191v580h-75q-39 9 -72 9q-20 0 -32 -4q-53 -12 -53 -63v-22h143v-120h-143v-379h-191v379h-295v-379h-191v379h-94v120h94v25q0 128 120 169q47 16 109 16q78 0 158 -24l-39 -110q-40 13 -73 13q-17 0 -31 -4q-53 -12 -53 -63v-22h295v25
q0 121 108 164q50 21 118 21q46 0 98 -10z" />
    <glyph glyph-name=".notdef" horiz-adv-x="500" 
d="M80 180h340v340h-340v-340zM50 550h400v-400h-400v400z" />
    <glyph glyph-name=".null" horiz-adv-x="0" 
 />
    <glyph glyph-name="nonmarkingreturn" unicode="&#xd;" horiz-adv-x="333" 
 />
    <glyph glyph-name="NULL" horiz-adv-x="0" 
 />
    <glyph glyph-name="NULL" horiz-adv-x="0" 
 />
    <glyph glyph-name="space" unicode=" " horiz-adv-x="300" 
 />
    <glyph glyph-name="exclam" unicode="!" horiz-adv-x="247" 
d="M24 700h200l-10 -440h-180zM122 204h4q44 0 71.5 -21.5t27.5 -50.5v-59q0 -29 -27.5 -51t-71.5 -22h-4q-44 0 -71.5 22t-27.5 51v59q0 29 27.5 50.5t71.5 21.5z" />
    <glyph glyph-name="quotedbl" unicode="&#x22;" horiz-adv-x="516" 
d="M23 750h202l-14 -271h-174zM292 750h203l-14 -271h-175z" />
    <glyph glyph-name="numbersign" unicode="#" horiz-adv-x="728" 
d="M473 700h184l-26 -151h75v-147h-101l-19 -107h76v-147h-102l-26 -148h-184l26 148h-98l-26 -148h-184l26 148h-71v147h97l19 107h-72v147h98l26 151h184l-26 -151h97zM402 295l19 107h-98l-19 -107h98z" />
    <glyph glyph-name="dollar" unicode="$" horiz-adv-x="618" 
d="M218 768h183v-63l19 -3q94 -14 170 -47l-58 -148q-112 47 -190 47h-13q-32 -2 -51 -14.5t-22 -33.5v-8q0 -24 24 -37.5t96 -38.5q48 -16 75 -27t59 -29t48 -37.5t27 -49.5t11 -68q0 -10 -1 -21q-4 -74 -57.5 -123.5t-136.5 -66.5v-68h-183v70q-95 18 -195 67l58 145
q39 -25 92.5 -43.5t100.5 -22.5q13 -2 24 -2q81 0 86 51v7q0 22 -15 35t-55 26q-109 36 -169 72t-80.5 72t-20.5 87q0 9 1 20q4 72 50.5 117t122.5 63v72z" />
    <glyph glyph-name="percent" unicode="%" horiz-adv-x="982" 
d="M621 713h178l-439 -727h-178zM79 646q56 54 147.5 54t147 -53.5t55.5 -129t-55.5 -128.5t-147 -53t-147.5 53t-56 128.5t56 128.5zM268 580q-15 22 -42 22t-42.5 -22t-15.5 -62t15.5 -62t42.5 -22t42.5 22t15.5 62t-16 62zM609 311q56 53 147.5 53t147.5 -53t56 -129
t-56 -129t-147.5 -53t-147.5 53t-56 129t56 129zM799 244q-16 22 -42.5 22t-42.5 -22t-16 -62t16 -62t42.5 -22t42.5 22t16 62t-16 62z" />
    <glyph glyph-name="ampersand" unicode="&#x26;" horiz-adv-x="703" 
d="M152 365l-25 25q-33 35 -45 64.5t-11 64.5q0 34 16 67.5t45 62t75.5 45.5t102.5 15q89 -1 145 -49t59 -115q1 -6 1 -12q0 -40 -21.5 -79.5t-63.5 -69.5l-43 -28l101 -96q24 35 45 79l120 -59q-27 -70 -55 -117l77 -71l-105 -105l-69 63q-21 -16 -48 -28q-68 -34 -156 -34
q-72 0 -134 21t-103.5 67.5t-41.5 109.5q0 12 1 24q5 45 32.5 78t82.5 65zM380 157l-128 120l-12 -7q-21 -13 -32.5 -32t-11.5 -38q0 -6 1 -11q5 -27 28.5 -45t57.5 -20h9q37 0 64 16q14 7 24 17zM291 442l45 34q23 19 23 42q0 12 -6 22q-13 22 -43 23q-20 0 -36 -11
t-22 -30q-4 -9 -4 -19q0 -20 17 -36z" />
    <glyph glyph-name="quotesingle" unicode="'" horiz-adv-x="247" 
d="M23 750h202l-14 -271h-174z" />
    <glyph glyph-name="parenleft" unicode="(" horiz-adv-x="398" 
d="M376 -88l-115 -117q-127 99 -186 229q-52 115 -52 258q0 142 51 257q59 131 187 231l115 -117q-83 -87 -119 -176q-34 -84 -33 -194q0 -113 35 -197q35 -87 117 -174z" />
    <glyph glyph-name="parenright" unicode=")" horiz-adv-x="398" 
d="M23 653l115 116q128 -100 187 -231q51 -115 51 -256q0 -143 -52 -259q-59 -128 -186 -228l-115 117q82 87 117 174q35 84 35 197q0 110 -34 194q-36 89 -118 176z" />
    <glyph glyph-name="asterisk" unicode="*" horiz-adv-x="577" 
d="M189 702h200v-119l119 39l47 -145l-128 -42l76 -105l-146 -107l-68 93l-68 -93l-147 107l77 105l-128 42l47 145l119 -39v119z" />
    <glyph glyph-name="plus" unicode="+" horiz-adv-x="611" 
d="M205 544h201v-179h178v-147h-178v-179h-201v179h-179v147h179v179z" />
    <glyph glyph-name="comma" unicode="," horiz-adv-x="263" 
d="M53 140h188l-64 -257h-154z" />
    <glyph glyph-name="hyphen" unicode="-" horiz-adv-x="510" 
d="M38 364h436v-146h-436v146z" />
    <glyph glyph-name="period" unicode="." horiz-adv-x="247" 
d="M122 204h4q44 0 71.5 -22t27.5 -50v-59q0 -29 -27.5 -51t-71.5 -22h-4q-44 0 -71.5 22t-27.5 51v59q0 28 27.5 50t71.5 22z" />
    <glyph glyph-name="slash" unicode="/" horiz-adv-x="433" 
d="M236 700h177l-215 -700h-177z" />
    <glyph glyph-name="zero" unicode="0" horiz-adv-x="711" 
d="M242 670q51 20 114 20t114.5 -19.5t85.5 -52.5t57.5 -78.5t34 -95t10.5 -104t-10.5 -104.5t-34 -95t-57.5 -78.5t-85.5 -53t-114.5 -19.5t-114 19.5t-85.5 53t-57.5 78.5t-33.5 95t-10.5 104.5t10.5 104t33.5 95t57.5 78.5t85.5 52zM431 490q-26 53 -75 53t-74.5 -52.5
t-25.5 -150.5t25.5 -150t74.5 -52t75 52t26 150t-26 150z" />
    <glyph glyph-name="one" unicode="1" horiz-adv-x="522" 
d="M293 682h150v-684h-201v405l-108 -99l-116 127z" />
    <glyph glyph-name="two" unicode="2" horiz-adv-x="599" 
d="M90 496l-51 138q120 58 241 57q119 0 194.5 -57t72.5 -162q-2 -129 -143 -268l-57 -57h215v-148h-511v100l211 209q41 40 63 81.5t22 75.5v10q-3 34 -28.5 52t-65.5 18q-78 1 -163 -49z" />
    <glyph glyph-name="three" unicode="3" horiz-adv-x="607" 
d="M49 681h495v-95l-128 -171q31 -14 55 -32q82 -61 82 -163q0 -58 -21 -103t-58 -72.5t-84 -41.5t-101 -14q-136 0 -251 76l50 133q36 -23 79.5 -38t81.5 -17h7q41 0 67.5 19t29.5 58q1 6 1 11q0 61 -68 77q-36 8 -113 9v30l138 186h-262v148z" />
    <glyph glyph-name="four" unicode="4" horiz-adv-x="691" 
d="M332 682h214v-354h108v-126h-108v-204h-193v204h-317v85zM352 328v190l-144 -190h144z" />
    <glyph glyph-name="five" unicode="5" horiz-adv-x="597" 
d="M126 681h413v-148h-293l-13 -98q53 10 97 10h10q33 -1 61.5 -7t57 -21.5t48.5 -38.5t32.5 -61.5t12.5 -87.5q0 -60 -22.5 -106.5t-61 -75t-87.5 -43.5t-105 -15q-129 0 -238 63l48 132q93 -43 157 -44q45 -1 74 20.5t34 68.5v10q0 32 -18 50.5t-50 22.5q-10 1 -20 1
q-31 0 -69 -12l-120 18z" />
    <glyph glyph-name="six" unicode="6" horiz-adv-x="675" 
d="M607 635l-48 -130q-75 43 -150 43q-14 0 -27 -1q-88 -10 -128 -81q-17 -28 -24 -83q35 39 82.5 60t100.5 22q93 1 158 -57t67 -164q1 -48 -19.5 -94t-56.5 -81.5t-90 -57t-116 -21.5q-78 0 -139 29.5t-97.5 80t-55 111.5t-18.5 129q0 82 27 148.5t74 109.5t108.5 67
t131.5 25q5 1 9 1q112 0 211 -56zM343 350q-36 -1 -66 -22t-46 -58q21 -132 125 -132q40 0 65 28t25 79q0 49 -29.5 77.5t-73.5 27.5z" />
    <glyph glyph-name="seven" unicode="7" horiz-adv-x="591" 
d="M33 682h525v-89l-282 -595h-212l255 536h-286v148z" />
    <glyph glyph-name="eight" unicode="8" horiz-adv-x="675" 
d="M606 491q-3 -45 -30.5 -82t-76.5 -57q105 -49 119 -137q3 -14 3 -27q0 -81 -78.5 -139.5t-204.5 -58.5t-204.5 58.5t-78.5 139.5q0 13 3 27q14 88 119 137q-49 20 -76.5 57t-30.5 82q-2 38 14 73t48.5 63.5t86 46t119.5 17.5t119.5 -17.5t86 -46t48.5 -63.5t14 -73z
M340 425q32 0 53.5 16.5t21.5 48.5q0 31 -20.5 48t-55 17t-55 -17t-20.5 -47.5t20.5 -48t55.5 -17.5zM338 291q-38 0 -63.5 -19.5t-25.5 -56.5q0 -36 24.5 -57t64 -21t64 21t24.5 57t-24 56t-64 20z" />
    <glyph glyph-name="nine" unicode="9" horiz-adv-x="675" 
d="M69 45l48 131q75 -43 150 -43q14 0 27 1q84 9 124 75q20 30 28 88q-35 -39 -82.5 -60t-100.5 -21q-93 -1 -158 57t-67 163q-1 48 19.5 94t56.5 81.5t90 57.5t116 22q78 0 139 -30t97.5 -80t55 -111.5t18.5 -129.5q0 -81 -27 -148t-74 -110t-108.5 -66.5t-131.5 -25.5h-10
q-111 0 -210 55zM320 542q-40 0 -65 -28t-25 -78t29.5 -78.5t73.5 -26.5q36 1 66 22t46 58q-21 132 -125 131z" />
    <glyph glyph-name="colon" unicode=":" horiz-adv-x="247" 
d="M122 484h4q44 0 71.5 -21.5t27.5 -50.5v-59q0 -29 -27.5 -51t-71.5 -22h-4q-44 0 -71.5 22t-27.5 51v59q0 29 27.5 50.5t71.5 21.5zM122 197h4q44 0 71.5 -22t27.5 -50v-59q0 -29 -27.5 -51t-71.5 -22h-4q-44 0 -71.5 22t-27.5 51v59q0 29 27.5 50.5t71.5 21.5z" />
    <glyph glyph-name="semicolon" unicode=";" horiz-adv-x="266" 
d="M142 484h4q44 0 71.5 -21.5t27.5 -50.5v-59q0 -29 -27.5 -51t-71.5 -22h-4q-45 0 -72.5 22t-27.5 51v59q0 29 27.5 50.5t72.5 21.5zM54 140h187l-64 -257h-154z" />
    <glyph glyph-name="less" unicode="&#x3c;" horiz-adv-x="551" 
d="M28 429l492 247v-166l-327 -164l327 -163v-167l-492 247v166z" />
    <glyph glyph-name="equal" unicode="=" horiz-adv-x="611" 
d="M26 411h558v-148h-558v148zM26 246h558v-148h-558v148z" />
    <glyph glyph-name="greater" unicode="&#x3e;" horiz-adv-x="551" 
d="M28 510v166l492 -247v-166l-492 -247v167l326 163z" />
    <glyph glyph-name="question" unicode="?" horiz-adv-x="516" 
d="M74 501l-51 141q120 66 242 67q146 1 201 -95q28 -47 28 -94q0 -87 -93 -176q-38 -37 -38 -65v-18h-201v18q0 47 26 86t74 86q38 36 38 64q0 13 -7 25q-14 24 -57 24q-12 0 -25 -2q-63 -10 -137 -61zM260 205h4q44 0 71.5 -21.5t27.5 -50.5v-59q0 -29 -27.5 -51
t-71.5 -22h-4q-44 0 -71.5 22t-27.5 51v59q0 29 27.5 50.5t71.5 21.5z" />
    <glyph glyph-name="at" unicode="@" horiz-adv-x="863" 
d="M498 -40v-138q-30 -5 -61 -5q-110 0 -205.5 55t-152 148.5t-56.5 201.5q0 113 55.5 205t150 144.5t207.5 55.5q109 3 201 -40.5t148 -129t56 -195.5q0 -115 -58.5 -166.5t-169.5 -52.5h-99l-5 34q-48 -42 -114 -41q-73 0 -128.5 53t-55.5 142q0 77 48 123.5t115 46.5
q62 1 114 -40v33h134v-233q46 2 65 23t19 78q0 104 -77 169t-192 61q-118 -3 -199 -79t-81 -191q0 -110 83.5 -189.5t195.5 -79.5q31 0 62 7zM487 148v147q-28 18 -56 18h-4q-33 -1 -57 -27t-24 -68q0 -41 24.5 -67t56.5 -26.5t60 23.5z" />
    <glyph glyph-name="A" unicode="A" horiz-adv-x="766" 
d="M276 700h215l258 -700h-203l-47 144h-231l-47 -144h-203zM462 262l-78 239l-78 -239h156z" />
    <glyph glyph-name="B" unicode="B" horiz-adv-x="724" 
d="M80 700h333q114 0 177.5 -54t63.5 -128q1 -52 -31 -95.5t-88 -63.5q67 -11 107 -59.5t39 -109.5q-1 -36 -17 -69.5t-47.5 -60.5t-82.5 -43.5t-116 -16.5h-338v700zM281 425h110q26 0 44.5 18.5t18.5 44.5q0 27 -19 45.5t-45 18.5h-109v-127zM280 148h123q27 0 45.5 18.5
t18.5 45t-19 45.5t-46 19h-122v-128z" />
    <glyph glyph-name="C" unicode="C" horiz-adv-x="720" 
d="M624 192l52 -141q-108 -61 -232 -61h-11q-77 2 -145 27t-120.5 69.5t-82.5 112.5t-30 151t30 151t82.5 112.5t120.5 69.5t145 27q132 2 243 -61l-52 -141q-82 55 -172 52q-83 -2 -132.5 -56t-49.5 -154t49.5 -154t132.5 -56q90 -3 172 52z" />
    <glyph glyph-name="D" unicode="D" horiz-adv-x="788" 
d="M80 700h306q83 0 150.5 -28.5t110 -77.5t65 -111.5t22.5 -132.5t-22.5 -132.5t-65 -111.5t-110 -77.5t-150.5 -28.5h-306v700zM281 148h82q82 0 126 56t44 146.5t-44 146t-126 55.5h-82v-404z" />
    <glyph glyph-name="E" unicode="E" horiz-adv-x="661" 
d="M80 0v700h532v-148h-331v-108h310v-148h-310v-148h336v-148h-537z" />
    <glyph glyph-name="F" unicode="F" horiz-adv-x="639" 
d="M80 700h515v-148h-314v-127h293v-147h-293v-278h-201v700z" />
    <glyph glyph-name="G" unicode="G" horiz-adv-x="782" 
d="M709 391v-321q-42 -30 -116.5 -53.5t-177.5 -23.5q-86 0 -155 30.5t-112 81t-66 113.5t-23 132q0 88 30.5 157.5t83.5 113t120 66t143 23.5q131 1 262 -59l-50 -137q-96 49 -180 47q-83 -2 -138.5 -56t-55.5 -155q0 -87 34.5 -140t87.5 -66q24 -6 49 -6q33 0 75 11v130
h-113v112h302z" />
    <glyph glyph-name="H" unicode="H" horiz-adv-x="804" 
d="M524 700h201v-700h-201v288h-243v-288h-201v700h201v-264h243v264z" />
    <glyph glyph-name="I" unicode="I" horiz-adv-x="359" 
d="M80 700h201v-700h-201v700z" />
    <glyph glyph-name="J" unicode="J" horiz-adv-x="555" 
d="M276 700h201v-454q0 -115 -75.5 -184t-185.5 -69q-53 0 -107.5 19t-90.5 51l44 117q58 -38 120 -36q41 1 67.5 26t26.5 76v454z" />
    <glyph glyph-name="K" unicode="K" horiz-adv-x="756" 
d="M496 700h237l-255 -289l251 -411h-222l-159 265l-67 -77v-188h-201v700h201v-268z" />
    <glyph glyph-name="L" unicode="L" horiz-adv-x="607" 
d="M80 0v700h201v-552h309v-148h-510z" />
    <glyph glyph-name="M" unicode="M" horiz-adv-x="1034" 
d="M704 700h251v-700h-201v404l-191 -404h-101l-187 404v-404h-201v700h251l187 -392z" />
    <glyph glyph-name="N" unicode="N" horiz-adv-x="797" 
d="M523 700h201v-700h-195l-254 382v-382h-201v700h197l252 -385v385z" />
    <glyph glyph-name="O" unicode="O" horiz-adv-x="841" 
d="M265 677q71 31 156 31t156 -30.5t116 -81t69.5 -114.5t24.5 -132t-24.5 -132t-69.5 -114.5t-116 -81t-156 -30.5t-156 30.5t-116 81t-69.5 114.5t-24.5 132t24.5 132t69.5 114.5t116 80.5zM533 505q-38 55 -112 55t-112.5 -54.5t-38.5 -155.5t38.5 -155.5t112.5 -54.5
t112.5 54.5t38.5 155.5t-39 155z" />
    <glyph glyph-name="P" unicode="P" horiz-adv-x="749" 
d="M80 700h345q117 0 195.5 -70t78.5 -177.5t-78.5 -177.5t-195.5 -70h-144v-205h-201v700zM281 353h118q42 0 71 27.5t29 72t-29 72.5t-71 28h-118v-200z" />
    <glyph glyph-name="Q" unicode="Q" horiz-adv-x="841" 
d="M577 -118l-82 119q-34 -9 -74 -9q-85 0 -156 30.5t-116 81t-69.5 114.5t-24.5 132t24.5 132t69.5 114.5t116 81t156 30.5t156 -30.5t116 -81t69.5 -114.5t24.5 -132q0 -86 -38 -164t-108 -128l65 -96zM533 505q-38 55 -112 55t-112.5 -55t-38.5 -155.5t38.5 -155.5
t112.5 -55t112.5 55t38.5 155.5t-39 155.5z" />
    <glyph glyph-name="R" unicode="R" horiz-adv-x="752" 
d="M80 0v700h354q110 0 183.5 -63t73.5 -167q0 -69 -37 -119.5t-98 -72.5l160 -278h-217l-138 240l-19 -1h-61v-239h-201zM283 388h126q35 0 58.5 21.5t23.5 60.5t-23.5 60.5t-58.5 21.5h-126v-164z" />
    <glyph glyph-name="S" unicode="S" horiz-adv-x="668" 
d="M48 69l58 145q39 -25 92.5 -43.5t100.5 -22.5q13 -2 24 -2q81 0 86 51v7q0 21 -15 34.5t-55 26.5q-109 36 -169 72t-80.5 72t-20.5 87q0 9 1 20q3 50 27.5 88t64.5 60.5t88 34t103 11.5q137 0 262 -55l-58 -148q-112 47 -190 47h-13q-32 -2 -51 -14.5t-22 -33.5v-8
q0 -24 24 -37.5t96 -38.5q48 -16 75 -27t59 -29t48 -37.5t27 -49.5t11 -68q0 -10 -1 -21q-4 -63 -45 -109.5t-102.5 -68.5t-134.5 -21q-132 2 -290 78z" />
    <glyph glyph-name="T" unicode="T" horiz-adv-x="638" 
d="M18 700h603v-148h-201v-552h-201v552h-201v148z" />
    <glyph glyph-name="U" unicode="U" horiz-adv-x="778" 
d="M504 700h201v-450q0 -113 -81 -186.5t-231.5 -73.5t-231.5 73.5t-81 186.5v450h201v-450q0 -59 28 -85.5t83.5 -26.5t83.5 26.5t28 85.5v450z" />
    <glyph glyph-name="V" unicode="V" horiz-adv-x="761" 
d="M536 700h208l-267 -700h-191l-268 700h208l155 -473z" />
    <glyph glyph-name="W" unicode="W" horiz-adv-x="1101" 
d="M880 700h204l-188 -700h-226l-119 405l-119 -405h-226l-188 700h205l107 -456l128 456h187l127 -456z" />
    <glyph glyph-name="X" unicode="X" horiz-adv-x="757" 
d="M517 700h223l-234 -352l232 -348h-224l-136 224l-136 -224h-224l233 350l-232 350h223l137 -217z" />
    <glyph glyph-name="Y" unicode="Y" horiz-adv-x="773" 
d="M538 700h218l-268 -426v-274h-201v274l-269 426h218l151 -265z" />
    <glyph glyph-name="Z" unicode="Z" horiz-adv-x="661" 
d="M67 700h536v-92l-310 -460h321v-148h-566v92l310 460h-291v148z" />
    <glyph glyph-name="bracketleft" unicode="[" horiz-adv-x="376" 
d="M23 719h332v-121h-131v-638h131v-122h-332v881z" />
    <glyph glyph-name="backslash" unicode="\" horiz-adv-x="433" 
d="M21 700h177l215 -700h-177z" />
    <glyph glyph-name="bracketright" unicode="]" horiz-adv-x="376" 
d="M23 719h331v-881h-331v122h131v638h-131v121z" />
    <glyph glyph-name="asciicircum" unicode="^" horiz-adv-x="733" 
d="M276 700h182l253 -459h-202l-142 280l-142 -280h-202z" />
    <glyph glyph-name="underscore" unicode="_" horiz-adv-x="545" 
d="M23 -40h500v-146h-500v146z" />
    <glyph glyph-name="grave" unicode="`" horiz-adv-x="253" 
d="M23 750h149l60 -151h-132z" />
    <glyph glyph-name="a" unicode="a" horiz-adv-x="562" 
d="M73 353l-23 120q110 36 223 37q51 1 93.5 -7.5t78 -27t56 -53t20.5 -82.5v-340h-153l-8 53q-76 -63 -169 -63q-69 1 -116 41t-49 111q0 36 10 64.5t31 46t45 29.5t59 17.5t64.5 7.5t69.5 2h38v27q0 51 -93 51q-4 0 -8 -1q-84 -2 -169 -33zM343 141v86h-47
q-49 0 -74 -12.5t-25 -46.5v-9q3 -25 22.5 -38t47.5 -13q51 0 76 33z" />
    <glyph glyph-name="b" unicode="b" horiz-adv-x="669" 
d="M47 699h191v-249q74 60 166 60q95 -1 163 -66t68 -177q0 -65 -23 -119t-60 -87.5t-83.5 -52t-96.5 -18.5q-97 0 -165 61l-7 -51h-153v699zM239 359v-210q40 -35 86 -34q48 1 82.5 37.5t34.5 97.5t-33.5 97t-83.5 37h-5q-41 0 -81 -25z" />
    <glyph glyph-name="c" unicode="c" horiz-adv-x="565" 
d="M491 173l45 -121q-107 -63 -221 -62q-78 1 -140 29t-101 88t-39 143t39 143t101 88t140 29q115 1 221 -62l-45 -121q-77 49 -143 49h-8q-49 -2 -77.5 -34t-28.5 -92t28.5 -92t77.5 -34h8q66 0 143 49z" />
    <glyph glyph-name="d" unicode="d" horiz-adv-x="669" 
d="M432 450v249h190v-699h-152l-8 51q-68 -61 -165 -61q-50 0 -96 18.5t-83.5 52t-60 87.5t-22.5 119q0 112 67.5 177t163.5 66q91 0 166 -60zM431 149v210q-41 25 -82 25h-5q-50 -1 -83 -37t-33 -97t34 -97.5t82 -37.5q46 -1 87 34z" />
    <glyph glyph-name="e" unicode="e" horiz-adv-x="584" 
d="M505 149l24 -130q-105 -29 -192 -29q-65 0 -118.5 14.5t-95.5 45t-65 81.5t-23 119q0 54 17.5 101t51 83.5t87.5 57t122 18.5q59 -2 104.5 -18.5t71 -39.5t41.5 -55.5t21 -61.5t5 -62q0 -17 -2 -36l-3 -24h-338q5 -45 45.5 -66.5t102.5 -22.5q68 0 144 25zM213 298h168
v11q0 78 -76 81q-44 2 -68 -23t-24 -69z" />
    <glyph glyph-name="f" unicode="f" horiz-adv-x="486" 
d="M115 500v25q0 128 120 169q47 16 109 16q78 0 158 -24l-39 -110q-40 13 -73 13q-17 0 -31 -4q-53 -12 -53 -63v-22h143v-120h-143v-379h-191v379h-94v120h94z" />
    <glyph glyph-name="g" unicode="g" horiz-adv-x="647" 
d="M414 3v50q-66 -63 -156 -62q-88 1 -153.5 74t-65.5 188q0 120 65.5 188.5t166.5 69.5q100 0 165 -59l8 48h152v-487q0 -69 -39 -118.5t-101.5 -73t-142.5 -26.5h-16q-114 0 -220 39l43 121q72 -31 146 -31h12q60 2 98 23t38 56zM405 148v201q-39 34 -83 33
q-45 0 -72.5 -34.5t-27.5 -94.5q0 -61 27 -95t73 -35h5q39 0 78 25z" />
    <glyph glyph-name="h" unicode="h" horiz-adv-x="649" 
d="M52 700h191v-278q28 40 78.5 64t105.5 24q76 0 128.5 -48.5t52.5 -145.5v-316h-191v305q0 41 -22.5 60.5t-56.5 18.5q-27 0 -53 -11.5t-42 -30.5v-342h-191v700z" />
    <glyph glyph-name="i" unicode="i" horiz-adv-x="291" 
d="M147 700h4q41 0 67.5 -20.5t26.5 -47.5v-16q0 -26 -26.5 -46.5t-67.5 -20.5h-4q-42 0 -68.5 20.5t-26.5 46.5v16q0 27 26.5 47.5t68.5 20.5zM53 500h191v-500h-191v500z" />
    <glyph glyph-name="j" unicode="j" horiz-adv-x="307" 
d="M163 699h4q42 0 68.5 -20.5t26.5 -46.5v-16q0 -27 -26.5 -47.5t-68.5 -20.5h-4q-42 0 -68 20.5t-26 47.5v16q0 26 26 46.5t68 20.5zM70 500l190 1v-491q0 -92 -59 -147.5t-152 -63.5q-17 -2 -36 -2q-49 0 -99 14l31 118q30 -7 50 -7q10 0 19 1q56 11 56 86v491z" />
    <glyph glyph-name="k" unicode="k" horiz-adv-x="681" 
d="M50 700h191v-365l175 164h243l-213 -194l220 -305h-228l-135 207l-62 -55v-152h-191v700z" />
    <glyph glyph-name="l" unicode="l" horiz-adv-x="284" 
d="M52 700h191v-700h-191v700z" />
    <glyph glyph-name="m" unicode="m" horiz-adv-x="971" 
d="M238 500v-77q29 41 73.5 64t92.5 24q49 0 91 -23t66 -67q74 88 189 90q74 1 127 -50t53 -145v-316h-191v305q0 40 -20 60t-51 20q-51 -1 -86 -43q2 -15 2 -26v-316h-191v305q0 40 -20 60t-51 20q-49 -1 -84 -41v-344h-191v500h191z" />
    <glyph glyph-name="n" unicode="n" horiz-adv-x="644" 
d="M238 500v-78q28 40 78.5 64t105.5 24q76 0 128.5 -48.5t52.5 -145.5v-316h-191v305q0 41 -22.5 60.5t-56.5 18.5q-27 0 -53 -11.5t-42 -30.5v-342h-191v500h191z" />
    <glyph glyph-name="o" unicode="o" 
d="M114 435q80 75 213 75t212.5 -75t79.5 -185t-79.5 -185t-212.5 -75t-212.5 75t-79.5 185t79 185zM401 353q-27 37 -74 37t-74 -37t-27 -103t27 -103t74 -37t74 37t27 103t-27 103z" />
    <glyph glyph-name="p" unicode="p" horiz-adv-x="669" 
d="M239 500v-77q31 42 76.5 64.5t95.5 22.5q43 0 82.5 -16.5t71.5 -48t51 -82t19 -113.5q0 -112 -68.5 -185.5t-162.5 -74.5q-91 0 -165 60v-239h-191v689h191zM239 351v-210q41 -26 82 -26q3 0 5 1q50 1 83 36.5t33 97.5q0 61 -34 97.5t-82 37.5q-46 1 -87 -34z" />
    <glyph glyph-name="q" unicode="q" horiz-adv-x="669" 
d="M432 -189v239q-75 -60 -166 -60q-94 1 -162.5 74.5t-68.5 185.5q0 63 19 113.5t51 82t71.5 48t82.5 16.5q50 0 95.5 -22.5t76.5 -64.5v77h191v-689h-190zM431 141v210q-41 35 -87 34q-48 -1 -82 -37.5t-34 -97.5t33 -97t83 -37h5q41 0 82 25z" />
    <glyph glyph-name="r" unicode="r" horiz-adv-x="487" 
d="M238 500v-106q28 68 83 95q37 20 83 20q34 0 73 -12l-60 -164q-43 11 -77 11q-13 0 -25 -2q-51 -7 -77 -46v-296h-191v500h191z" />
    <glyph glyph-name="s" unicode="s" horiz-adv-x="550" 
d="M26 40l41 114q96 -51 180 -52q35 0 57 9.5t24 26.5q1 2 1 5q0 15 -13.5 24t-39.5 17q-129 43 -178 79.5t-49 99.5q0 7 1 14q3 45 37.5 76.5t86.5 45.5t117 14q120 0 229 -42l-43 -118q-89 42 -158 46h-10q-27 0 -43.5 -8t-17.5 -22q-1 -20 16.5 -29.5t71.5 -25.5
q32 -10 56 -18.5t51 -22.5t43.5 -30.5t28 -40t11.5 -52.5q0 -8 -1 -16q-5 -49 -44.5 -82.5t-95.5 -47.5t-125 -13q-135 0 -234 49z" />
    <glyph glyph-name="t" unicode="t" horiz-adv-x="528" 
d="M111 624h191v-124h169v-120h-169v-185q0 -70 63 -73h6q31 0 78 13l45 -120q-111 -25 -180 -25h-8q-195 2 -195 176v214h-95v120h95v124z" />
    <glyph glyph-name="u" unicode="u" horiz-adv-x="639" 
d="M407 500h191v-500h-191v78q-28 -40 -78.5 -64t-105.5 -24q-77 0 -129 48.5t-52 145.5v316h191v-305q0 -41 22.5 -60.5t56.5 -18.5q27 0 53 11.5t42 30.5v342z" />
    <glyph glyph-name="v" unicode="v" 
d="M444 500h199l-229 -500h-174l-229 500h199l117 -319z" />
    <glyph glyph-name="w" unicode="w" horiz-adv-x="922" 
d="M716 500h195l-178 -500h-171l-101 292l-101 -292h-171l-178 500h195l80 -309l93 309h164l93 -309z" />
    <glyph glyph-name="x" unicode="x" horiz-adv-x="632" 
d="M417 500h205l-199 -252l196 -248h-205l-99 131l-99 -131h-204l196 250l-197 250h205l100 -133z" />
    <glyph glyph-name="y" unicode="y" horiz-adv-x="664" 
d="M458 500h196l-233 -538q-59 -138 -187 -163q-26 -5 -55 -5q-65 0 -136 23l43 116q51 -11 82 -11q16 0 29 3q20 4 33 16.5t24 36.5l10 22l-248 500h199l130 -306z" />
    <glyph glyph-name="z" unicode="z" horiz-adv-x="534" 
d="M38 500h462v-86l-226 -278h236v-136h-484v86l226 278h-214v136z" />
    <glyph glyph-name="braceleft" unicode="{" horiz-adv-x="452" 
d="M326 719h104v-120h-41q-25 0 -37 -10.5t-12 -36.5v-163q0 -54 -29 -85q-29 -29 -82 -32q53 -4 82 -33q29 -30 29 -84v-163q0 -26 12 -37t37 -11h41v-120h-104q-85 1 -136 46t-51 119v166q0 30 -17.5 49.5t-49.5 20.5h-49v94h49q32 0 49.5 19.5t17.5 49.5v167q0 73 51 118
t136 46z" />
    <glyph glyph-name="bar" unicode="|" horiz-adv-x="315" 
d="M56 750h201v-893h-201v893z" />
    <glyph glyph-name="braceright" unicode="}" horiz-adv-x="452" 
d="M23 599v120h103q86 -1 137 -46t51 -118v-167q0 -30 17 -49.5t50 -19.5h49v-95h-49q-33 0 -50 -19.5t-17 -49.5v-166q0 -74 -51 -119t-137 -46h-103v120h40q25 0 37.5 11t12.5 37v163q0 54 28 84q27 29 82 33q-55 3 -82 31q-28 31 -28 85v163q0 26 -12.5 37t-37.5 11h-40z
" />
    <glyph glyph-name="asciitilde" unicode="~" horiz-adv-x="611" 
d="M73 162l-46 121q94 81 166 89q11 2 21 2q42 0 97 -22l50 -23q34 -15 62 -15q17 0 32 5q41 12 81 63l48 -127q-60 -73 -134 -90q-22 -6 -46 -6q-51 0 -108 24l-48 23q-37 14 -62 14q-7 0 -13 -1q-38 -5 -100 -57z" />
    <glyph glyph-name="nonbreakingspace" unicode="&#xa0;" horiz-adv-x="300" 
 />
    <glyph glyph-name="exclamdown" unicode="&#xa1;" horiz-adv-x="247" 
d="M122 537h4q44 0 71.5 -22t27.5 -51v-59q0 -29 -27.5 -51t-71.5 -22h-4q-44 0 -71.5 22t-27.5 51v59q0 29 27.5 51t71.5 22zM34 276h180l10 -439h-200z" />
    <glyph glyph-name="cent" unicode="&#xa2;" horiz-adv-x="546" 
d="M185 568h183v-64q78 -10 156 -56l-45 -121q-77 49 -143 49h-8q-49 -2 -77.5 -34t-28.5 -92t28.5 -92t77.5 -34h8q66 0 143 49l45 -121q-78 -47 -156 -56v-64h-183v79q-75 26 -118.5 87t-43.5 152t43.5 152t118.5 87v79z" />
    <glyph glyph-name="sterling" unicode="&#xa3;" horiz-adv-x="587" 
d="M93 430v41q0 62 19 109t52.5 74.5t76.5 41t95 13.5q109 0 229 -51l-46 -127q-70 32 -123 32q-19 0 -35 -4q-67 -15 -67 -88v-41h245v-148h-245v-133h245v-148h-446v281h-70v148h70z" />
    <glyph glyph-name="currency" unicode="&#xa4;" horiz-adv-x="714" 
 />
    <glyph glyph-name="yen" unicode="&#xa5;" horiz-adv-x="773" 
d="M537 700h218l-125 -198h94v-148h-187l-50 -80v-13h237v-147h-237v-114h-201v114h-229v147h229v13l-50 80h-179v148h85l-124 198h217l151 -265z" />
    <glyph glyph-name="brokenbar" unicode="&#xa6;" horiz-adv-x="315" 
d="M56 750h201v-391h-201v391zM56 248h201v-391h-201v391z" />
    <glyph glyph-name="section" unicode="&#xa7;" horiz-adv-x="566" 
d="M34 -56l42 113q96 -51 180 -52q35 -1 57 8.5t24 26.5q1 3 1 6q0 15 -13.5 23.5t-39.5 17.5q-129 43 -178 79.5t-49 99.5q0 7 1 14q3 57 59 92q-60 40 -60 107q0 6 1 13q3 45 37.5 76.5t86.5 45.5t117 14q120 1 229 -41l-43 -119q-89 42 -158 46h-10q-27 0 -43.5 -8
t-17.5 -22q-1 -19 16.5 -28.5t71.5 -26.5q32 -9 56 -17.5t51 -23t43.5 -30.5t28 -40t11.5 -53q0 -7 -1 -16q-5 -55 -56 -91q57 -41 57 -106q0 -7 -1 -15q-5 -49 -44.5 -82.5t-95.5 -47.5t-125 -13q-136 2 -235 50zM273 312q-36 -10 -37 -36v-4q0 -16 12.5 -26.5t52.5 -24.5
l27 -9q31 10 32 37q1 20 -12 31t-42 20q-20 7 -33 12z" />
    <glyph glyph-name="dieresis" unicode="&#xa8;" horiz-adv-x="450" 
d="M96 737h4q33 0 53.5 -22t20.5 -51v-4q0 -29 -20.5 -51t-53.5 -22h-4q-32 0 -52.5 22t-20.5 51v4q0 29 20.5 51t52.5 22zM351 737h4q33 0 53.5 -22t20.5 -51v-4q0 -29 -20.5 -51t-53.5 -22h-4q-33 0 -53 22t-20 51v4q0 29 20 51t53 22z" />
    <glyph glyph-name="copyright" unicode="&#xa9;" horiz-adv-x="765" 
d="M202 662q83 48 181 48t181 -48t131 -131t48 -180.5t-48 -180.5t-131 -131.5t-181 -48.5t-181 48.5t-131 131.5t-48 180.5t48 180.5t131 131zM557 524q-72 72 -174 72t-174 -71.5t-72 -174t72 -174.5t174 -72t174 72t72 174.5t-72 173.5zM482 284l29 -79q-55 -34 -123 -33
q-77 2 -130.5 50t-53.5 128t53.5 128t130.5 49q68 2 123 -32l-29 -79q-40 29 -85 28q-37 -1 -58.5 -25t-21.5 -69t21.5 -69t58.5 -25q45 -2 85 28z" />
    <glyph glyph-name="ordfeminine" unicode="&#xaa;" horiz-adv-x="355" 
d="M52 606l-15 76q69 22 141 23q43 0 76 -8.5t56 -33.5t23 -65v-213h-97l-5 33q-47 -39 -105 -39q-43 0 -72.5 25.5t-30.5 69.5q-1 27 9 47t25.5 31t40 17t46 8t51.5 2h26v17q0 31 -58 31h-5q-53 -2 -106 -21zM221 474v53h-29q-31 0 -46.5 -7.5t-15.5 -29.5q0 -2 1 -5
q1 -16 13 -23.5t29 -7.5q32 0 48 20z" />
    <glyph glyph-name="guillemotleft" unicode="&#xab;" horiz-adv-x="753" 
d="M23 259l242 277l121 -106l-150 -171l150 -170l-121 -106zM368 259l242 277l121 -106l-150 -171l150 -170l-121 -106z" />
    <glyph glyph-name="registered" unicode="&#xae;" horiz-adv-x="765" 
d="M202 662q83 48 181 48t181 -48t131 -131t48 -180.5t-48 -180.5t-131 -131.5t-181 -48.5t-181 48.5t-131 131.5t-48 180.5t48 180.5t131 131zM557 524q-72 72 -174 72t-174 -71.5t-72 -174t72 -174.5t174 -72t174 72t72 174.5t-72 173.5zM243 514h160q49 0 83.5 -29.5
t34.5 -78.5q0 -29 -15.5 -52.5t-40.5 -35.5l73 -126h-108l-61 107l-6 -1h-21v-106h-99v322zM343 376h49q13 0 22 8t9 22.5t-9 22.5t-22 8h-49v-61z" />
    <glyph glyph-name="macron" unicode="&#xaf;" horiz-adv-x="339" 
d="M23 720h294v-103h-294v103z" />
    <glyph glyph-name="degree" unicode="&#xb0;" horiz-adv-x="418" 
d="M77 673q55 55 132.5 55t132 -54.5t54.5 -132t-54.5 -132t-132 -54.5t-132 54.5t-54.5 132t54 131.5zM247 579q-14 15 -37.5 15t-38.5 -14.5t-15 -38t15 -38t38.5 -14.5t38 14.5t14.5 38t-15 37.5z" />
    <glyph glyph-name="plusminus" unicode="&#xb1;" horiz-adv-x="611" 
d="M205 556h201v-111h178v-137h-178v-112h-201v112h-179v137h179v111zM26 137h558v-137h-558v137z" />
    <glyph glyph-name="twosuperior" unicode="&#xb2;" horiz-adv-x="364" 
d="M59 566l-36 97q74 37 150 37q70 0 116.5 -35.5t44.5 -99.5q-1 -70 -72 -146l-30 -30h111v-103h-310v70l123 123q46 45 46 82v5q-3 32 -45 33q-47 0 -98 -33z" />
    <glyph glyph-name="threesuperior" unicode="&#xb3;" horiz-adv-x="360" 
d="M31 598v102h301v-66l-69 -92q28 -16 45 -38q29 -32 29 -76q0 -69 -46 -105t-114 -36q-85 0 -154 48l35 94q47 -34 97 -36h4q43 0 46 36v5q0 25 -26 34q-18 6 -77 6v29l70 95h-141z" />
    <glyph glyph-name="acute" unicode="&#xb4;" horiz-adv-x="253" 
d="M83 750h149l-77 -151h-132z" />
    <glyph glyph-name="paragraph" unicode="&#xb6;" horiz-adv-x="670" 
d="M262 700h377v-148h-32v-667h-144v667h-77v-667h-144v396l-24 1q-84 14 -138.5 73t-54.5 134q0 85 68.5 148t168.5 63z" />
    <glyph glyph-name="periodcentered" unicode="&#xb7;" horiz-adv-x="247" 
d="M122 406h4q44 0 71.5 -22t27.5 -51v-59q0 -29 -27.5 -51t-71.5 -22h-4q-44 0 -71.5 22t-27.5 51v59q0 29 27.5 51t71.5 22z" />
    <glyph glyph-name="cedilla" unicode="&#xb8;" horiz-adv-x="318" 
d="M121 16h68l-24 -36h23q49 0 78.5 -25t29.5 -59q0 -37 -25 -62t-59.5 -34t-79.5 -10q-61 0 -109 13l19 53q15 -4 38 -4q13 0 24 1q24 2 41 10.5t18 24.5v2q0 28 -42 28h-59z" />
    <glyph glyph-name="onesuperior" unicode="&#xb9;" horiz-adv-x="309" 
d="M189 700h98v-409h-133v220l-53 -49l-78 86z" />
    <glyph glyph-name="ordmasculine" unicode="&#xba;" horiz-adv-x="410" 
d="M72 658q50 47 133.5 47t133.5 -47t50 -116t-50 -116t-133.5 -47t-133 47t-49.5 116t49 116zM251 606q-16 23 -45.5 23t-46 -23t-16.5 -64t16.5 -64t46 -23t46 23t16.5 64t-17 64z" />
    <glyph glyph-name="guillemotright" unicode="&#xbb;" horiz-adv-x="752" 
d="M23 430l120 106l242 -277l-242 -276l-120 106l149 170zM368 430l121 106l241 -277l-241 -276l-121 106l150 170z" />
    <glyph glyph-name="onequarter" unicode="&#xbc;" horiz-adv-x="948" 
d="M601 713h178l-439 -727h-178zM206 700h98v-409h-132v220l-54 -49l-78 86zM711 409h136v-211h62v-82h-62v-116h-128v116h-181v61zM719 198v89l-73 -89h73z" />
    <glyph glyph-name="onehalf" unicode="&#xbd;" horiz-adv-x="975" 
d="M601 713h178l-439 -727h-178zM652 280l-36 96q74 38 150 38q70 -1 116.5 -36t44.5 -99q-1 -71 -72 -147l-29 -30h110v-102h-310v70l123 122q46 45 46 83v5q-3 32 -45 32q-47 0 -98 -32zM206 700h98v-409h-132v220l-54 -49l-78 86z" />
    <glyph glyph-name="threequarters" unicode="&#xbe;" horiz-adv-x="955" 
d="M608 713h179l-440 -727h-178zM718 409h136v-211h62v-82h-62v-116h-128v116h-181v61zM48 598v102h302v-66l-69 -92q24 -14 41 -33q33 -34 33 -81q0 -69 -46.5 -105t-113.5 -36q-85 0 -155 48l36 94q46 -34 96 -36h4q44 0 46 36q1 2 1 5q0 28 -34 36q-19 4 -70 4v29l70 95
h-141zM726 198v89l-73 -89h73z" />
    <glyph glyph-name="questiondown" unicode="&#xbf;" horiz-adv-x="516" 
d="M252 536h4q45 0 72.5 -22t27.5 -51v-59q0 -29 -27.5 -51t-72.5 -22h-4q-44 0 -71.5 22t-27.5 51v59q0 29 27.5 51t71.5 22zM154 276h200v-18q0 -47 -25.5 -86t-73.5 -85q-38 -37 -38 -65q0 -13 7 -25q13 -24 56 -24q12 0 25 2q64 10 137 61l51 -141q-120 -67 -242 -67
q-145 -2 -201 95q-27 47 -27 94q0 87 92 176q39 36 39 65v18z" />
    <glyph glyph-name="Agrave" unicode="&#xc0;" horiz-adv-x="766" 
d="M282 950h149l59 -151h-131zM276 700h215l258 -700h-203l-47 144h-231l-47 -144h-203zM462 262l-78 239l-78 -239h156z" />
    <glyph glyph-name="Aacute" unicode="&#xc1;" horiz-adv-x="766" 
d="M341 950h149l-77 -151h-132zM276 700h215l258 -700h-203l-47 144h-231l-47 -144h-203zM462 262l-78 239l-78 -239h156z" />
    <glyph glyph-name="Acircumflex" unicode="&#xc2;" horiz-adv-x="766" 
d="M302 950h176l114 -147h-132l-70 90l-70 -90h-132zM276 700h215l258 -700h-203l-47 144h-231l-47 -144h-203zM462 262l-78 239l-79 -239h157z" />
    <glyph glyph-name="Atilde" unicode="&#xc3;" horiz-adv-x="766" 
d="M276 700h215l258 -700h-203l-47 144h-231l-47 -144h-203zM228 789l-31 80q62 54 110 59q7 1 13 1q31 0 73 -17l24 -12q23 -10 42 -10q11 0 21 3q27 8 53 42l32 -84q-39 -49 -88 -60q-15 -4 -31 -4q-34 0 -71 16l-29 14q-27 10 -44 10h-8q-26 -4 -66 -38zM462 262l-78 239
l-78 -239h156z" />
    <glyph glyph-name="Adieresis" unicode="&#xc4;" horiz-adv-x="766" 
d="M260 937h4q33 0 53 -22t20 -51v-4q0 -29 -20 -51t-53 -22h-4q-33 0 -53 22t-20 51v4q0 29 20 51t53 22zM515 937h4q33 0 53 -22t20 -51v-4q0 -29 -20.5 -51t-52.5 -22h-4q-33 0 -53.5 22t-20.5 51v4q0 29 20.5 51t53.5 22zM276 700h215l258 -700h-203l-47 144h-231
l-47 -144h-203zM462 262l-78 239l-79 -239h157z" />
    <glyph glyph-name="Aring" unicode="&#xc5;" horiz-adv-x="766" 
d="M270 961q44 39 114 39t113.5 -38.5t43.5 -89t-43.5 -89.5t-113.5 -39t-113.5 39t-43.5 89.5t43 88.5zM423 909q-14 16 -39.5 16t-39.5 -15.5t-14 -37.5t14 -37.5t39.5 -15.5t39.5 15.5t14 37.5t-14 37zM276 700h215l258 -700h-203l-47 144h-231l-47 -144h-203zM462 262
l-78 239l-79 -239h157z" />
    <glyph glyph-name="AE" unicode="&#xc6;" horiz-adv-x="964" 
d="M276 700h640v-148h-331v-108h310v-148h-310v-148h336v-148h-537v144h-116l-47 -144h-203zM384 262v239l-79 -239h79z" />
    <glyph glyph-name="Ccedilla" unicode="&#xc7;" horiz-adv-x="720" 
d="M259 -89l59 95q-119 33 -191 122.5t-72 221.5q0 83 30 151t82.5 112.5t120.5 69.5t145 27q132 2 243 -61l-52 -141q-82 55 -172 52q-83 -2 -132.5 -56t-49.5 -154t49.5 -154t132.5 -56q90 -3 172 52l52 -141q-108 -61 -232 -61h-11q-19 0 -57 4l-13 -20h23q48 0 78 -25
t30 -60q0 -37 -25 -61.5t-60 -34t-79 -9.5h-10q-55 0 -100 12l19 53q15 -4 39 -4q12 0 24 1q24 2 40.5 10.5t17.5 24.5v2q0 28 -41 28h-60z" />
    <glyph glyph-name="Egrave" unicode="&#xc8;" horiz-adv-x="661" 
d="M218 950h149l59 -151h-131zM80 0v700h532v-148h-331v-108h310v-148h-310v-148h336v-148h-537z" />
    <glyph glyph-name="Eacute" unicode="&#xc9;" horiz-adv-x="661" 
d="M277 950h149l-77 -151h-132zM80 0v700h532v-148h-331v-108h310v-148h-310v-148h336v-148h-537z" />
    <glyph glyph-name="Ecircumflex" unicode="&#xca;" horiz-adv-x="661" 
d="M238 950h176l114 -147h-132l-70 90l-70 -90h-132zM80 0v700h532v-148h-331v-108h310v-148h-310v-148h336v-148h-537z" />
    <glyph glyph-name="Edieresis" unicode="&#xcb;" horiz-adv-x="661" 
d="M196 937h4q33 0 53 -22t20 -51v-4q0 -29 -20 -51t-53 -22h-4q-33 0 -53 22t-20 51v4q0 29 20 51t53 22zM451 937h4q33 0 53 -22t20 -51v-4q0 -29 -20.5 -51t-52.5 -22h-4q-33 0 -53.5 22t-20.5 51v4q0 29 20.5 51t53.5 22zM80 0v700h532v-148h-331v-108h310v-148h-310
v-148h336v-148h-537z" />
    <glyph glyph-name="Igrave" unicode="&#xcc;" horiz-adv-x="359" 
d="M79 950h149l59 -151h-131zM80 700h201v-700h-201v700z" />
    <glyph glyph-name="Iacute" unicode="&#xcd;" horiz-adv-x="359" 
d="M138 950h149l-77 -151h-132zM80 700h201v-700h-201v700z" />
    <glyph glyph-name="Icircumflex" unicode="&#xce;" horiz-adv-x="359" 
d="M99 950h176l114 -147h-132l-70 90l-70 -90h-132zM80 700h201v-700h-201v700z" />
    <glyph glyph-name="Idieresis" unicode="&#xcf;" horiz-adv-x="359" 
d="M57 937h4q33 0 53 -22t20 -51v-4q0 -29 -20 -51t-53 -22h-4q-33 0 -53 22t-20 51v4q0 29 20 51t53 22zM312 937h4q32 0 52.5 -22t20.5 -51v-4q0 -29 -20.5 -51t-52.5 -22h-4q-33 0 -53.5 22t-20.5 51v4q0 29 20.5 51t53.5 22zM80 700h201v-700h-201v700z" />
    <glyph glyph-name="Eth" unicode="&#xd0;" horiz-adv-x="831" 
d="M122 700h306q84 0 151.5 -28.5t110 -77.5t65 -111.5t22.5 -132.5t-22.5 -132.5t-65 -111.5t-110 -77.5t-151.5 -28.5h-306v277h-99v146h99v277zM324 148h81q83 0 127 56t44 146.5t-44 146t-127 55.5h-81v-129h135v-146h-135v-129z" />
    <glyph glyph-name="Ntilde" unicode="&#xd1;" horiz-adv-x="797" 
d="M523 700h201v-700h-195l-254 382v-382h-201v700h197l252 -385v385zM237 789l-31 80q61 54 109 59q7 1 14 1q30 0 72 -17l25 -12q22 -10 41 -10q11 0 21 3q27 8 54 42l32 -84q-40 -49 -89 -60q-15 -4 -31 -4q-34 0 -71 16l-29 14q-26 10 -44 10h-8q-25 -4 -65 -38z" />
    <glyph glyph-name="Ograve" unicode="&#xd2;" horiz-adv-x="841" 
d="M319 950h149l60 -151h-132zM265 677q71 31 156 31t156 -30.5t116 -81t69.5 -114.5t24.5 -132t-24.5 -132t-69.5 -114.5t-116 -81t-156 -30.5t-156 30.5t-116 81t-69.5 114.5t-24.5 132t24.5 132t69.5 114.5t116 80.5zM533 505q-38 55 -112 55t-112.5 -54.5t-38.5 -155.5
t38.5 -155.5t112.5 -54.5t112.5 54.5t38.5 155.5t-39 155z" />
    <glyph glyph-name="Oacute" unicode="&#xd3;" horiz-adv-x="841" 
d="M379 950h149l-77 -151h-132zM265 677q71 31 156 31t156 -30.5t116 -81t69.5 -114.5t24.5 -132t-24.5 -132t-69.5 -114.5t-116 -81t-156 -30.5t-156 30.5t-116 81t-69.5 114.5t-24.5 132t24.5 132t69.5 114.5t116 80.5zM533 505q-38 55 -112 55t-112.5 -54.5t-38.5 -155.5
t38.5 -155.5t112.5 -54.5t112.5 54.5t38.5 155.5t-39 155z" />
    <glyph glyph-name="Ocircumflex" unicode="&#xd4;" horiz-adv-x="841" 
d="M333 950h176l114 -147h-132l-70 90l-70 -90h-132zM265 677q71 31 156 31t156 -30.5t116 -81t69.5 -114.5t24.5 -132t-24.5 -132t-69.5 -114.5t-116 -81t-156 -30.5t-156 30.5t-116 81t-69.5 114.5t-24.5 132t24.5 132t69.5 114.5t116 80.5zM533 505q-38 55 -112 55
t-112.5 -54.5t-38.5 -155.5t38.5 -155.5t112.5 -54.5t112.5 54.5t38.5 155.5t-39 155z" />
    <glyph glyph-name="Otilde" unicode="&#xd5;" horiz-adv-x="841" 
d="M265 677q71 31 156 31t156 -30.5t116 -81t69.5 -114.5t24.5 -132t-24.5 -132t-69.5 -114.5t-116 -81t-156 -30.5t-156 30.5t-116 81t-69.5 114.5t-24.5 132t24.5 132t69.5 114.5t116 80.5zM533 505q-38 55 -112 55t-112.5 -54.5t-38.5 -155.5t38.5 -155.5t112.5 -54.5
t112.5 54.5t38.5 155.5t-39 155zM266 789l-31 80q62 54 109 59q7 1 14 1q31 0 72 -17l25 -12q23 -10 42 -10q10 0 20 3q28 8 54 42l32 -84q-40 -49 -89 -60q-15 -4 -30 -4q-34 0 -72 16l-28 14q-27 10 -44 10h-8q-26 -4 -66 -38z" />
    <glyph glyph-name="Odieresis" unicode="&#xd6;" horiz-adv-x="841" 
d="M298 937h3q33 0 53.5 -22t20.5 -51v-4q0 -29 -20.5 -51t-53.5 -22h-3q-33 0 -53.5 22t-20.5 51v4q0 29 20.5 51t53.5 22zM553 937h3q33 0 53.5 -22t20.5 -51v-4q0 -29 -20.5 -51t-53.5 -22h-3q-33 0 -53.5 22t-20.5 51v4q0 29 20.5 51t53.5 22zM265 677q71 31 156 31
t156 -30.5t116 -81t69.5 -114.5t24.5 -132t-24.5 -132t-69.5 -114.5t-116 -81t-156 -30.5t-156 30.5t-116 81t-69.5 114.5t-24.5 132t24.5 132t69.5 114.5t116 80.5zM533 505q-38 55 -112 55t-112.5 -54.5t-38.5 -155.5t38.5 -155.5t112.5 -54.5t112.5 54.5t38.5 155.5
t-39 155z" />
    <glyph glyph-name="multiply" unicode="&#xd7;" horiz-adv-x="569" 
d="M284 415l126 126l124 -123l-127 -126l127 -127l-124 -123l-126 126l-126 -126l-123 123l126 127l-126 126l123 123z" />
    <glyph glyph-name="Oslash" unicode="&#xd8;" horiz-adv-x="841" 
d="M619 750l-25 -80q92 -46 142.5 -133t50.5 -187q0 -68 -24.5 -132t-69.5 -114.5t-116 -81t-156 -30.5q-18 0 -35 1l-13 -43h-150l25 80q-92 46 -142.5 133t-50.5 187q0 68 24.5 132t69.5 114.5t116 81t156 30.5q17 0 34 -1l14 43h150zM301 205l109 355q-68 -4 -104 -58.5
t-36 -151.5q0 -91 31 -145zM540 495l-108 -355q68 4 104 58.5t36 151.5q0 91 -32 145z" />
    <glyph glyph-name="Ugrave" unicode="&#xd9;" horiz-adv-x="778" 
d="M286 950h149l60 -151h-132zM504 700h201v-450q0 -113 -81 -186.5t-231.5 -73.5t-231.5 73.5t-81 186.5v450h201v-450q0 -59 28 -85.5t83.5 -26.5t83.5 26.5t28 85.5v450z" />
    <glyph glyph-name="Uacute" unicode="&#xda;" horiz-adv-x="778" 
d="M346 950h149l-77 -151h-132zM504 700h201v-450q0 -113 -81 -186.5t-231.5 -73.5t-231.5 73.5t-81 186.5v450h201v-450q0 -59 28 -85.5t83.5 -26.5t83.5 26.5t28 85.5v450z" />
    <glyph glyph-name="Ucircumflex" unicode="&#xdb;" horiz-adv-x="778" 
d="M306 950h177l113 -147h-131l-70 90l-71 -90h-131zM504 700h201v-450q0 -113 -81 -186.5t-231.5 -73.5t-231.5 73.5t-81 186.5v450h201v-450q0 -59 28 -85.5t83.5 -26.5t83.5 26.5t28 85.5v450z" />
    <glyph glyph-name="Udieresis" unicode="&#xdc;" horiz-adv-x="778" 
d="M265 937h3q33 0 53.5 -22t20.5 -51v-4q0 -29 -20.5 -51t-53.5 -22h-3q-33 0 -53.5 22t-20.5 51v4q0 29 20.5 51t53.5 22zM520 937h3q33 0 53.5 -22t20.5 -51v-4q0 -29 -20.5 -51t-53.5 -22h-3q-33 0 -53.5 22t-20.5 51v4q0 29 20.5 51t53.5 22zM504 700h201v-450
q0 -113 -81 -186.5t-231.5 -73.5t-231.5 73.5t-81 186.5v450h201v-450q0 -59 28 -85.5t83.5 -26.5t83.5 26.5t28 85.5v450z" />
    <glyph glyph-name="Yacute" unicode="&#xdd;" horiz-adv-x="773" 
d="M345 950h149l-77 -151h-132zM538 700h218l-268 -426v-274h-201v274l-269 426h218l151 -265z" />
    <glyph glyph-name="Thorn" unicode="&#xde;" horiz-adv-x="749" 
d="M80 700h201v-96h144q117 0 195.5 -70t78.5 -177.5t-78.5 -177t-195.5 -69.5h-144v-110h-201v700zM281 257h118q42 0 71 27.5t29 72t-29 72.5t-71 28h-118v-200z" />
    <glyph glyph-name="germandbls" unicode="&#xdf;" horiz-adv-x="703" 
d="M80 0v471q0 103 68 166t188 63h55q114 0 177.5 -53.5t63.5 -128.5q1 -52 -31 -95.5t-88 -63.5q67 -11 107 -59.5t39 -109.5q-1 -36 -17 -69.5t-47.5 -60.5t-82.5 -43.5t-116 -16.5h-73v148h58q26 0 45 18.5t19 45t-18.5 45t-45.5 19.5h-41v149h33q24 1 41.5 19.5
t17.5 43.5q0 27 -19 45.5t-45 18.5h-22q-65 0 -65 -67v-485h-201z" />
    <glyph glyph-name="agrave" unicode="&#xe0;" horiz-adv-x="562" 
d="M73 353l-23 120q110 36 223 37q51 1 93.5 -7.5t78 -27t56 -53t20.5 -82.5v-340h-153l-8 53q-76 -63 -169 -63q-69 1 -116 41t-49 111q0 36 10 64.5t31 46t45 29.5t59 17.5t64.5 7.5t69.5 2h38v27q0 51 -93 51q-4 0 -8 -1q-84 -2 -169 -33zM185 750h149l60 -151h-132z
M343 141v86h-47q-49 0 -74 -12.5t-25 -46.5v-9q3 -25 22.5 -38t47.5 -13q51 0 76 33z" />
    <glyph glyph-name="aacute" unicode="&#xe1;" horiz-adv-x="562" 
d="M73 353l-23 120q110 36 223 37q51 1 93.5 -7.5t78 -27t56 -53t20.5 -82.5v-340h-153l-8 53q-76 -63 -169 -63q-69 1 -116 41t-49 111q0 36 10 64.5t31 46t45 29.5t59 17.5t64.5 7.5t69.5 2h38v27q0 51 -93 51q-4 0 -8 -1q-84 -2 -169 -33zM245 750h149l-77 -151h-132z
M343 141v86h-47q-49 0 -74 -12.5t-25 -46.5v-9q3 -25 22.5 -38t47.5 -13q51 0 76 33z" />
    <glyph glyph-name="acircumflex" unicode="&#xe2;" horiz-adv-x="562" 
d="M73 353l-23 120q110 36 223 37q51 1 93.5 -7.5t78 -27t56 -53t20.5 -82.5v-340h-153l-8 53q-76 -63 -169 -63q-69 1 -116 41t-49 111q0 36 10 64.5t31 46t45 29.5t59 17.5t64.5 7.5t69.5 2h38v27q0 51 -93 51q-4 0 -8 -1q-84 -2 -169 -33zM205 750h177l113 -147h-131
l-71 90l-70 -90h-132zM343 141v86h-47q-49 0 -74 -12.5t-25 -46.5v-9q3 -25 22.5 -38t47.5 -13q51 0 76 33z" />
    <glyph glyph-name="atilde" unicode="&#xe3;" horiz-adv-x="562" 
d="M73 353l-23 120q110 36 223 37q51 1 93.5 -7.5t78 -27t56 -53t20.5 -82.5v-340h-153l-8 53q-76 -63 -169 -63q-69 1 -116 41t-49 111q0 36 10 64.5t31 46t45 29.5t59 17.5t64.5 7.5t69.5 2h38v27q0 51 -93 51q-4 0 -8 -1q-84 -2 -169 -33zM132 589l-31 80q61 54 109 59
q7 1 14 1q30 0 72 -17l25 -12q22 -10 41 -10q11 0 21 3q27 8 54 42l32 -84q-40 -49 -89 -60q-15 -4 -31 -4q-34 0 -71 16l-29 14q-26 10 -44 10h-8q-25 -4 -65 -38zM343 141v86h-47q-49 0 -74 -12.5t-25 -46.5v-9q3 -25 22.5 -38t47.5 -13q51 0 76 33z" />
    <glyph glyph-name="adieresis" unicode="&#xe4;" horiz-adv-x="562" 
d="M73 353l-23 120q110 36 223 37q51 1 93.5 -7.5t78 -27t56 -53t20.5 -82.5v-340h-153l-8 53q-76 -63 -169 -63q-69 1 -116 41t-49 111q0 36 10 64.5t31 46t45 29.5t59 17.5t64.5 7.5t69.5 2h38v27q0 51 -93 51q-4 0 -8 -1q-84 -2 -169 -33zM418 737h4q33 0 53.5 -22
t20.5 -51v-4q0 -29 -20.5 -51t-53.5 -22h-4q-32 0 -52.5 22t-20.5 51v4q0 29 20.5 51t52.5 22zM163 737h4q33 0 53.5 -22t20.5 -51v-4q0 -29 -20.5 -51t-53.5 -22h-4q-32 0 -52.5 22t-20.5 51v4q0 29 20.5 51t52.5 22zM343 141v86h-47q-49 0 -74 -12.5t-25 -46.5v-9
q3 -25 22.5 -38t47.5 -13q51 0 76 33z" />
    <glyph glyph-name="aring" unicode="&#xe5;" horiz-adv-x="562" 
d="M73 353l-23 120q110 36 223 37q51 1 93.5 -7.5t78 -27t56 -53t20.5 -82.5v-340h-153l-8 53q-76 -63 -169 -63q-69 1 -116 41t-49 111q0 36 10 64.5t31 46t45 29.5t59 17.5t64.5 7.5t69.5 2h38v27q0 51 -93 51q-4 0 -8 -1q-84 -2 -169 -33zM173 761q44 39 114 39
t113.5 -38.5t43.5 -89t-43.5 -89.5t-113.5 -39t-113.5 39t-43.5 89.5t43 88.5zM343 141v86h-47q-49 0 -74 -12.5t-25 -46.5v-9q3 -25 22.5 -38t47.5 -13q51 0 76 33zM326 709q-14 16 -39 16t-39.5 -15.5t-14.5 -37.5t14.5 -37.5t39.5 -15.5t39 15.5t14 37.5t-14 37z" />
    <glyph glyph-name="ae" unicode="&#xe6;" horiz-adv-x="956" 
d="M73 353l-23 121q110 36 223 37q151 1 206 -70l4 -6q70 76 189 76q6 0 12 -1q60 -2 105 -18t71 -39.5t41.5 -56t20.5 -61.5t5 -62q0 -17 -1 -35l-3 -24h-338q5 -46 45 -67.5t102 -21.5q68 -1 145 25l24 -131q-105 -29 -191 -29q-115 0 -189 54v-44h-153l-8 53
q-76 -63 -169 -63q-69 1 -116 41t-49 111q-1 42 14 72.5t38 48t59.5 28t70 14t78.5 4.5h57v27q0 51 -93 51q-4 0 -8 -1q-84 -2 -169 -33zM343 142v85h-47q-49 0 -74 -12.5t-25 -46.5v-9q3 -25 22.5 -38t47.5 -13q51 0 76 34zM585 298h168v11q0 78 -77 81q-43 2 -67 -23
t-24 -69z" />
    <glyph glyph-name="ccedilla" unicode="&#xe7;" horiz-adv-x="565" 
d="M165 -89l56 91q-85 23 -135.5 86.5t-50.5 161.5q0 83 39 143t101 88t140 29q115 1 221 -62l-45 -121q-77 49 -143 49h-8q-49 -2 -77.5 -34t-28.5 -92t28.5 -92t77.5 -34h8q66 0 143 49l45 -121q-107 -63 -221 -62q-12 0 -35 2l-12 -19h23q48 0 78 -25t30 -59
q0 -38 -25 -62.5t-59.5 -33.5t-79.5 -10h-10q-54 0 -99 12l19 53q15 -4 38 -4q13 0 24 1q24 2 41 10.5t18 24.5v2q0 29 -42 29h-59z" />
    <glyph glyph-name="egrave" unicode="&#xe8;" horiz-adv-x="584" 
d="M505 149l24 -130q-105 -29 -192 -29q-65 0 -118.5 14.5t-95.5 45t-65 81.5t-23 119q0 54 17.5 101t51 83.5t87.5 57t122 18.5q59 -2 104.5 -18.5t71 -39.5t41.5 -55.5t21 -61.5t5 -62q0 -17 -2 -36l-3 -24h-338q5 -45 45.5 -66.5t102.5 -22.5q68 0 144 25zM191 750h149
l60 -151h-132zM213 298h168v11q0 78 -76 81q-44 2 -68 -23t-24 -69z" />
    <glyph glyph-name="eacute" unicode="&#xe9;" horiz-adv-x="584" 
d="M505 149l24 -130q-105 -29 -192 -29q-65 0 -118.5 14.5t-95.5 45t-65 81.5t-23 119q0 54 17.5 101t51 83.5t87.5 57t122 18.5q59 -2 104.5 -18.5t71 -39.5t41.5 -55.5t21 -61.5t5 -62q0 -17 -2 -36l-3 -24h-338q5 -45 45.5 -66.5t102.5 -22.5q68 0 144 25zM251 750h149
l-77 -151h-132zM213 298h168v11q0 78 -76 81q-44 2 -68 -23t-24 -69z" />
    <glyph glyph-name="ecircumflex" unicode="&#xea;" horiz-adv-x="584" 
d="M505 149l24 -130q-105 -29 -192 -29q-65 0 -118.5 14.5t-95.5 45t-65 81.5t-23 119q0 54 17.5 101t51 83.5t87.5 57t122 18.5q59 -2 104.5 -18.5t71 -39.5t41.5 -55.5t21 -61.5t5 -62q0 -17 -2 -36l-3 -24h-338q5 -45 45.5 -66.5t102.5 -22.5q68 0 144 25zM211 750h177
l114 -147h-132l-70 90l-71 -90h-131zM213 298h168v11q0 78 -76 81q-44 2 -68 -23t-24 -69z" />
    <glyph glyph-name="edieresis" unicode="&#xeb;" horiz-adv-x="584" 
d="M505 149l24 -130q-105 -29 -192 -29q-65 0 -118.5 14.5t-95.5 45t-65 81.5t-23 119q0 54 17.5 101t51 83.5t87.5 57t122 18.5q59 -2 104.5 -18.5t71 -39.5t41.5 -55.5t21 -61.5t5 -62q0 -17 -2 -36l-3 -23h-338q5 -46 45.5 -67.5t102.5 -22.5q68 0 144 25zM425 737h3
q33 0 53.5 -22t20.5 -51v-4q0 -29 -20.5 -51t-53.5 -22h-3q-33 0 -53.5 22t-20.5 51v4q0 29 20.5 51t53.5 22zM170 737h3q33 0 53.5 -22t20.5 -51v-4q0 -29 -20.5 -51t-53.5 -22h-3q-33 0 -53.5 22t-20.5 51v4q0 29 20.5 51t53.5 22zM213 298h168v11q0 78 -76 81
q-44 2 -68 -23t-24 -69z" />
    <glyph glyph-name="igrave" unicode="&#xec;" horiz-adv-x="289" 
d="M47 750h148l60 -151h-131zM52 500h191v-500h-191v500z" />
    <glyph glyph-name="iacute" unicode="&#xed;" horiz-adv-x="289" 
d="M106 750h149l-77 -151h-132zM52 500h191v-500h-191v500z" />
    <glyph glyph-name="icircumflex" unicode="&#xee;" horiz-adv-x="289" 
d="M67 750h176l114 -147h-132l-70 90l-70 -90h-131zM52 500h191v-500h-191v500z" />
    <glyph glyph-name="idieresis" unicode="&#xef;" horiz-adv-x="289" 
d="M25 737h4q32 0 52.5 -22t20.5 -51v-4q0 -29 -20.5 -51t-52.5 -22h-4q-33 0 -53.5 22t-20.5 51v4q0 29 20.5 51t53.5 22zM280 737h4q32 0 52.5 -22t20.5 -51v-4q0 -29 -20.5 -51t-52.5 -22h-4q-33 0 -53.5 22t-20.5 51v4q0 29 20.5 51t53.5 22zM52 500h191v-500h-191v500z
" />
    <glyph glyph-name="eth" unicode="&#xf0;" horiz-adv-x="647" 
d="M592 661l-81 -42q22 -25 38 -49q70 -111 70 -228q0 -69 -18 -130t-54.5 -111t-97.5 -79.5t-139 -29.5q-61 0 -115.5 21.5t-91 57t-57.5 81t-21 94.5q0 99 66 160.5t159 63.5q106 3 175 -72q-17 81 -68 140l-1 1l-82 -42l-45 85l50 26q-29 21 -67 44l86 127
q80 -45 138 -91l111 57zM310 139q46 0 76.5 32t42.5 92q-32 89 -119 89q-40 0 -66.5 -28t-26.5 -78t27.5 -78.5t65.5 -28.5z" />
    <glyph glyph-name="ntilde" unicode="&#xf1;" horiz-adv-x="644" 
d="M238 500v-78q28 40 78.5 64t105.5 24q76 0 128.5 -48.5t52.5 -145.5v-316h-191v305q0 41 -22.5 60.5t-56.5 18.5q-27 0 -53 -11.5t-42 -30.5v-342h-191v500h191zM162 589l-31 80q62 54 110 59q7 1 14 1q30 0 72 -17l25 -12q22 -10 41 -10q11 0 21 3q27 8 53 42l32 -84
q-39 -49 -88 -60q-15 -4 -31 -4q-34 0 -71 16l-29 14q-27 10 -44 10h-8q-25 -4 -66 -38z" />
    <glyph glyph-name="ograve" unicode="&#xf2;" 
d="M225 750h149l60 -151h-132zM114 435q80 75 213 75t212.5 -75t79.5 -185t-79.5 -185t-212.5 -75t-212.5 75t-79.5 185t79 185zM401 353q-27 37 -74 37t-74 -37t-27 -103t27 -103t74 -37t74 37t27 103t-27 103z" />
    <glyph glyph-name="oacute" unicode="&#xf3;" 
d="M285 750h149l-77 -151h-132zM114 435q80 75 213 75t212.5 -75t79.5 -185t-79.5 -185t-212.5 -75t-212.5 75t-79.5 185t79 185zM401 353q-27 37 -74 37t-74 -37t-27 -103t27 -103t74 -37t74 37t27 103t-27 103z" />
    <glyph glyph-name="ocircumflex" unicode="&#xf4;" 
d="M245 750h177l113 -147h-131l-71 90l-70 -90h-132zM114 435q80 75 213 75t212.5 -75t79.5 -185t-79.5 -185t-212.5 -75t-212.5 75t-79.5 185t79 185zM401 353q-27 37 -74 37t-74 -37t-27 -103t27 -103t74 -37t74 37t27 103t-27 103z" />
    <glyph glyph-name="otilde" unicode="&#xf5;" 
d="M114 435q80 75 213 75t212.5 -75t79.5 -185t-79.5 -185t-212.5 -75t-212.5 75t-79.5 185t79 185zM401 353q-27 37 -74 37t-74 -37t-27 -103t27 -103t74 -37t74 37t27 103t-27 103zM171 589l-30 80q61 54 109 59q7 1 14 1q30 0 72 -17l25 -12q22 -10 41 -10q11 0 21 3
q27 8 54 42l32 -84q-40 -49 -89 -60q-15 -4 -31 -4q-34 0 -71 16l-29 14q-26 10 -44 10h-8q-25 -4 -66 -38z" />
    <glyph glyph-name="odieresis" unicode="&#xf6;" 
d="M203 737h4q33 0 53.5 -22t20.5 -51v-4q0 -29 -20.5 -51t-53.5 -22h-4q-32 0 -52.5 22t-20.5 51v4q0 29 20.5 51t52.5 22zM458 737h4q33 0 53.5 -22t20.5 -51v-4q0 -29 -20.5 -51t-53.5 -22h-4q-32 0 -52.5 22t-20.5 51v4q0 29 20.5 51t52.5 22zM114 435q80 75 213 75
t212.5 -75t79.5 -185t-79.5 -185t-212.5 -75t-212.5 75t-79.5 185t79 185zM401 353q-27 37 -74 37t-74 -37t-27 -103t27 -103t74 -37t74 37t27 103t-27 103z" />
    <glyph glyph-name="divide" unicode="&#xf7;" horiz-adv-x="611" 
d="M303 643h4q44 0 71.5 -22t27.5 -51v-59q0 -29 -27.5 -50.5t-71.5 -21.5h-4q-44 0 -71.5 21.5t-27.5 50.5v59q0 29 27.5 51t71.5 22zM26 395h558v-147h-558v147zM303 204h4q44 0 71.5 -22t27.5 -50v-59q0 -29 -27.5 -51t-71.5 -22h-4q-44 0 -71.5 22t-27.5 51v59
q0 28 27.5 50t71.5 22z" />
    <glyph glyph-name="oslash" unicode="&#xf8;" 
d="M478 550l-19 -64q75 -31 117.5 -94.5t42.5 -141.5q0 -110 -79.5 -185t-212.5 -75l-22 1l-12 -41h-118l20 64q-76 31 -118 94.5t-42 141.5q0 110 79.5 185t212.5 75l21 -1l13 41h117zM242 165l69 224q-40 -6 -62.5 -42.5t-22.5 -96.5q0 -51 16 -85zM412 335l-69 -224
q40 6 62.5 42.5t22.5 96.5q0 51 -16 85z" />
    <glyph glyph-name="ugrave" unicode="&#xf9;" horiz-adv-x="639" 
d="M228 750h149l60 -151h-131zM407 500h191v-500h-191v78q-28 -40 -78.5 -64t-105.5 -24q-77 0 -129 48.5t-52 145.5v316h191v-305q0 -41 22.5 -60.5t56.5 -18.5q27 0 53 11.5t42 30.5v342z" />
    <glyph glyph-name="uacute" unicode="&#xfa;" horiz-adv-x="639" 
d="M288 750h149l-77 -151h-132zM407 500h191v-500h-191v78q-28 -40 -78.5 -64t-105.5 -24q-77 0 -129 48.5t-52 145.5v316h191v-305q0 -41 22.5 -60.5t56.5 -18.5q27 0 53 11.5t42 30.5v342z" />
    <glyph glyph-name="ucircumflex" unicode="&#xfb;" horiz-adv-x="639" 
d="M249 750h176l114 -147h-132l-70 90l-70 -90h-132zM407 500h191v-500h-191v78q-28 -40 -78.5 -64t-105.5 -24q-77 0 -129 48.5t-52 145.5v316h191v-305q0 -41 22.5 -60.5t56.5 -18.5q27 0 53 11.5t42 30.5v342z" />
    <glyph glyph-name="udieresis" unicode="&#xfc;" horiz-adv-x="639" 
d="M207 737h4q32 0 52.5 -22t20.5 -51v-4q0 -29 -20.5 -51t-52.5 -22h-4q-33 0 -53.5 22t-20.5 51v4q0 29 20.5 51t53.5 22zM462 737h4q32 0 52.5 -22t20.5 -51v-4q0 -29 -20.5 -51t-52.5 -22h-4q-33 0 -53.5 22t-20.5 51v4q0 29 20.5 51t53.5 22zM407 500h191v-500h-191v78
q-28 -40 -78.5 -64t-105.5 -24q-77 0 -129 48.5t-52 145.5v316h191v-305q0 -41 22.5 -60.5t56.5 -18.5q27 0 53 11.5t42 30.5v342z" />
    <glyph glyph-name="yacute" unicode="&#xfd;" horiz-adv-x="664" 
d="M284 750h148l-77 -151h-132zM458 500h196l-233 -538q-59 -138 -187 -163q-26 -5 -55 -5q-65 0 -136 23l43 116q51 -11 82 -11q16 0 29 3q20 4 33 16.5t24 36.5l10 22l-248 500h199l130 -306z" />
    <glyph glyph-name="thorn" unicode="&#xfe;" horiz-adv-x="669" 
d="M48 700h191v-277q31 42 76.5 64.5t95.5 22.5q43 0 82.5 -16.5t71.5 -48t51 -82t19 -113.5q0 -112 -68.5 -185.5t-162.5 -74.5q-91 0 -165 60v-236h-191v886zM239 351v-210q41 -26 82 -26q3 0 5 1q50 1 83 36.5t33 97.5q0 61 -34 97.5t-82 37.5q-46 1 -87 -34z" />
    <glyph glyph-name="ydieresis" unicode="&#xff;" horiz-adv-x="664" 
d="M202 737h4q33 0 53.5 -22t20.5 -51v-4q0 -29 -20.5 -51t-53.5 -22h-4q-32 0 -52.5 22t-20.5 51v4q0 29 20.5 51t52.5 22zM457 737h4q33 0 53 -22t20 -51v-4q0 -29 -20 -51t-53 -22h-4q-33 0 -53 22t-20 51v4q0 29 20 51t53 22zM458 500h196l-233 -538q-59 -138 -187 -163
q-26 -5 -55 -5q-65 0 -136 23l43 116q51 -11 82 -11q16 0 29 3q20 4 33 16.5t24 36.5l10 22l-248 500h199l130 -306z" />
    <glyph glyph-name="Amacron" unicode="&#x100;" horiz-adv-x="766" 
d="M233 920h294v-103h-294v103zM276 700h215l258 -700h-203l-47 144h-231l-47 -144h-203zM462 262l-78 239l-78 -239h156z" />
    <glyph glyph-name="amacron" unicode="&#x101;" horiz-adv-x="562" 
d="M73 353l-23 120q110 36 223 37q51 1 93.5 -7.5t78 -27t56 -53t20.5 -82.5v-340h-153l-8 53q-76 -63 -169 -63q-69 1 -116 41t-49 111q0 36 10 64.5t31 46t45 29.5t59 17.5t64.5 7.5t69.5 2h38v27q0 51 -93 51q-4 0 -8 -1q-84 -2 -169 -33zM136 720h294v-103h-294v103z
M343 141v86h-47q-49 0 -74 -12.5t-25 -46.5v-9q3 -25 22.5 -38t47.5 -13q51 0 76 33z" />
    <glyph glyph-name="Abreve" unicode="&#x102;" horiz-adv-x="766" 
d="M429 952h150v-20q0 -68 -57 -114.5t-138.5 -46.5t-138.5 46.5t-57 114.5v20h151v-33q0 -19 12.5 -31t32 -12t32.5 12t13 31v33zM276 700h215l258 -700h-203l-47 144h-231l-47 -144h-203zM462 262l-78 239l-79 -239h157z" />
    <glyph glyph-name="abreve" unicode="&#x103;" horiz-adv-x="562" 
d="M73 353l-23 120q110 36 223 37q51 1 93.5 -7.5t78 -27t56 -53t20.5 -82.5v-340h-153l-8 53q-76 -63 -169 -63q-69 1 -116 41t-49 111q0 36 10 64.5t31 46t45 29.5t59 17.5t64.5 7.5t69.5 2h38v27q0 51 -93 51q-4 0 -8 -1q-84 -2 -169 -33zM332 752h150v-20
q0 -68 -57 -114.5t-138.5 -46.5t-138 46.5t-56.5 114.5v20h150v-33q0 -19 13 -31t32 -12t32 12t13 31v33zM343 141v86h-47q-49 0 -74 -12.5t-25 -46.5v-9q3 -25 22.5 -38t47.5 -13q51 0 76 33z" />
    <glyph glyph-name="Aogonek" unicode="&#x104;" horiz-adv-x="766" 
d="M276 700h215l258 -700l-81 -1q-54 -24 -78 -48.5t-24 -44.5q0 -4 1 -7q8 -25 41 -25h4q22 0 42 11l26 -72q-55 -24 -114 -27q-58 -2 -94 24t-35 75q1 26 16 48.5t30 32.5t38.5 22t24.5 12l-47 144h-231l-47 -144h-203zM462 262l-78 239l-78 -239h156z" />
    <glyph glyph-name="aogonek" unicode="&#x105;" horiz-adv-x="562" 
d="M73 353l-23 120q110 36 223 37q51 1 93.5 -7.5t78 -27t56 -53t20.5 -82.5v-342h-36q-53 -23 -75 -46.5t-22 -43.5q0 -5 1 -9q8 -25 41 -25h4q22 0 42 11l26 -72q-55 -24 -114 -27q-58 -2 -94 24t-35 75q1 26 16.5 48.5t30.5 32.5t38 22l24 12l-8 53q-76 -63 -169 -63
q-69 1 -116 41t-49 111q0 36 10 64.5t31 46t45 29.5t59 17.5t64.5 7.5t69.5 2h38v27q0 51 -93 51q-4 0 -8 -1q-84 -2 -169 -33zM343 141v86h-47q-49 0 -74 -12.5t-25 -46.5v-9q3 -25 22.5 -38t47.5 -13q51 0 76 33z" />
    <glyph glyph-name="Cacute" unicode="&#x106;" horiz-adv-x="720" 
d="M624 192l52 -141q-108 -61 -232 -61h-11q-77 2 -145 27t-120.5 69.5t-82.5 112.5t-30 151t30 151t82.5 112.5t120.5 69.5t145 27q132 2 243 -61l-52 -141q-82 55 -172 52q-83 -2 -132.5 -56t-49.5 -154t49.5 -154t132.5 -56q90 -3 172 52zM337 950h149l-77 -151h-132z
" />
    <glyph glyph-name="cacute" unicode="&#x107;" horiz-adv-x="565" 
d="M491 173l45 -121q-107 -63 -221 -62q-78 1 -140 29t-101 88t-39 143t39 143t101 88t140 29q115 1 221 -62l-45 -121q-77 49 -143 49h-8q-49 -2 -77.5 -34t-28.5 -92t28.5 -92t77.5 -34h8q66 0 143 49zM243 750h149l-77 -151h-132z" />
    <glyph glyph-name="Cdotaccent" unicode="&#x10a;" horiz-adv-x="720" 
d="M624 192l52 -141q-108 -61 -232 -61h-11q-77 2 -145 27t-120.5 69.5t-82.5 112.5t-30 151t30 151t82.5 112.5t120.5 69.5t145 27q132 2 243 -61l-52 -141q-82 55 -172 52q-83 -2 -132.5 -56t-49.5 -154t49.5 -154t132.5 -56q90 -3 172 52zM380 937h3q33 0 53.5 -22
t20.5 -51v-4q0 -29 -20.5 -51t-53.5 -22h-3q-33 0 -53 22t-20 51v4q0 29 20 51t53 22z" />
    <glyph glyph-name="cdotaccent" unicode="&#x10b;" horiz-adv-x="565" 
d="M491 173l45 -121q-107 -63 -221 -62q-78 1 -140 29t-101 88t-39 143t39 143t101 88t140 29q115 1 221 -62l-45 -121q-77 49 -143 49h-8q-49 -2 -77.5 -34t-28.5 -92t28.5 -92t77.5 -34h8q66 0 143 49zM285 737h4q33 0 53.5 -22t20.5 -51v-4q0 -29 -20.5 -51t-53.5 -22h-4
q-32 0 -52.5 22t-20.5 51v4q0 29 20.5 51t52.5 22z" />
    <glyph glyph-name="Ccaron" unicode="&#x10c;" horiz-adv-x="720" 
d="M624 192l52 -141q-107 -61 -232 -61h-10q-78 2 -146 27t-120.5 69.5t-82.5 112.5t-30 151t30 151t82.5 112.5t120.5 69.5t146 27q131 2 242 -61l-52 -141q-82 55 -172 52q-83 -2 -132.5 -56t-49.5 -154t49.5 -154t132.5 -56q90 -3 172 52zM449 950h132l-113 -147h-177
l-114 147h132l70 -91z" />
    <glyph glyph-name="ccaron" unicode="&#x10d;" horiz-adv-x="565" 
d="M491 173l45 -121q-107 -63 -221 -62q-78 1 -140 29t-101 88t-39 143t39 143t101 88t140 29q115 1 221 -62l-45 -121q-77 49 -143 49h-8q-49 -2 -77.5 -34t-28.5 -92t28.5 -92t77.5 -34h8q66 0 143 49zM355 750h132l-114 -147h-177l-113 147h131l71 -91z" />
    <glyph glyph-name="Dcaron" unicode="&#x10e;" horiz-adv-x="788" 
d="M447 950h131l-113 -147h-177l-113 147h131l71 -91zM80 700h306q83 0 150.5 -28.5t110 -77.5t65 -111.5t22.5 -132.5t-22.5 -132.5t-65 -111.5t-110 -77.5t-150.5 -28.5h-306v700zM281 148h82q82 0 126 56t44 146.5t-44 146t-126 55.5h-82v-404z" />
    <glyph glyph-name="dcaron" unicode="&#x10f;" horiz-adv-x="913" 
d="M432 450v249h190v-699h-152l-8 51q-68 -61 -165 -61q-50 0 -96 18.5t-83.5 52t-60 87.5t-22.5 119q0 112 67.5 177t163.5 66q91 0 166 -60zM431 149v210q-41 25 -82 25h-5q-50 -1 -83 -37t-33 -97t34 -97.5t82 -37.5q46 -1 87 34zM704 808h188l-64 -258h-155z" />
    <glyph glyph-name="Dcroat" unicode="&#x110;" horiz-adv-x="831" 
d="M122 700h306q84 0 151.5 -28.5t110 -77.5t65 -111.5t22.5 -132.5t-22.5 -132.5t-65 -111.5t-110 -77.5t-151.5 -28.5h-306v277h-99v146h99v277zM324 148h81q83 0 127 56t44 146.5t-44 146t-127 55.5h-81v-129h135v-146h-135v-129z" />
    <glyph glyph-name="dcroat" unicode="&#x111;" horiz-adv-x="674" 
d="M432 699h190v-47h78v-102h-78v-550h-152l-8 51q-68 -61 -165 -61q-50 0 -96 18.5t-83.5 52t-60 87.5t-22.5 119q0 112 67.5 177t163.5 66q91 0 166 -60v100h-104v102h104v47zM431 149v210q-41 25 -82 25h-5q-50 -1 -83 -37t-33 -97t34 -97.5t82 -37.5q46 -1 87 34z" />
    <glyph glyph-name="Emacron" unicode="&#x112;" horiz-adv-x="661" 
d="M169 920h294v-103h-294v103zM80 0v700h532v-148h-331v-108h310v-148h-310v-148h336v-148h-537z" />
    <glyph glyph-name="emacron" unicode="&#x113;" horiz-adv-x="584" 
d="M505 149l24 -130q-105 -29 -192 -29q-65 0 -118.5 14.5t-95.5 45t-65 81.5t-23 119q0 54 17.5 101t51 83.5t87.5 57t122 18.5q59 -2 104.5 -18.5t71 -39.5t41.5 -55.5t21 -61.5t5 -62q0 -17 -2 -36l-3 -24h-338q5 -45 45.5 -66.5t102.5 -22.5q68 0 144 25zM142 720h294
v-103h-294v103zM213 298h168v11q0 78 -76 81q-44 2 -68 -23t-24 -69z" />
    <glyph glyph-name="Edotaccent" unicode="&#x116;" horiz-adv-x="661" 
d="M320 937h3q33 0 53.5 -22t20.5 -51v-4q0 -29 -20.5 -51t-53.5 -22h-3q-33 0 -53 22t-20 51v4q0 29 20 51t53 22zM80 0v700h532v-148h-331v-108h310v-148h-310v-148h336v-148h-537z" />
    <glyph glyph-name="edotaccent" unicode="&#x117;" horiz-adv-x="584" 
d="M505 149l24 -130q-105 -29 -192 -29q-65 0 -118.5 14.5t-95.5 45t-65 81.5t-23 119q0 54 17.5 101t51 83.5t87.5 57t122 18.5q59 -2 104.5 -18.5t71 -39.5t41.5 -55.5t21 -61.5t5 -62q0 -17 -2 -36l-3 -23h-338q5 -46 45.5 -67.5t102.5 -22.5q68 0 144 25zM294 737h3
q33 0 53.5 -22t20.5 -51v-4q0 -29 -20.5 -51t-53.5 -22h-3q-33 0 -53.5 22t-20.5 51v4q0 29 20.5 51t53.5 22zM213 298h168v11q0 78 -76 81q-44 2 -68 -23t-24 -69z" />
    <glyph glyph-name="Eogonek" unicode="&#x118;" horiz-adv-x="661" 
d="M80 700h532v-148h-331v-108h310v-148h-310v-148h336v-148h-94q-99 -42 -99 -89q0 -5 1 -10q9 -24 41 -24h4q22 0 42 11l26 -72q-51 -24 -114 -27q-58 -2 -94 23.5t-35 75.5q1 17 7 32t14.5 25t22 20t22 15t21.5 12q11 6 14 8h-316v700z" />
    <glyph glyph-name="eogonek" unicode="&#x119;" horiz-adv-x="584" 
d="M475 -97l26 -72q-52 -24 -115 -27q-57 -2 -93 23.5t-35 75.5q1 52 58 88l-44 3q-109 13 -173 76.5t-64 179.5q0 54 17.5 101t51 83.5t87.5 57t122 18.5q59 -2 104.5 -18.5t71 -39.5t41.5 -55.5t21 -61.5t5 -62q0 -17 -2 -36l-3 -23h-338q5 -46 45.5 -67.5t102.5 -22.5
q68 0 144 25l24 -130q-51 -15 -94 -21q-48 -37 -48 -74q0 -4 1 -8q8 -24 41 -24h4q22 0 42 11zM213 298h168v11q0 78 -76 81q-44 2 -68 -23t-24 -69z" />
    <glyph glyph-name="Ecaron" unicode="&#x11a;" horiz-adv-x="661" 
d="M390 950h131l-113 -147h-177l-113 147h131l70 -91zM80 0v700h532v-148h-331v-108h310v-148h-310v-148h336v-148h-537z" />
    <glyph glyph-name="ecaron" unicode="&#x11b;" horiz-adv-x="584" 
d="M505 149l24 -130q-105 -29 -192 -29q-65 0 -118.5 14.5t-95.5 45t-65 81.5t-23 119q0 54 17.5 101t51 83.5t87.5 57t122 18.5q59 -2 104.5 -18.5t71 -39.5t41.5 -55.5t21 -61.5t5 -62q0 -17 -2 -36l-3 -24h-338q5 -45 45.5 -66.5t102.5 -22.5q68 0 144 25zM363 750h132
l-114 -147h-176l-114 147h132l70 -91zM213 298h168v11q0 78 -76 81q-44 2 -68 -23t-24 -69z" />
    <glyph glyph-name="Gbreve" unicode="&#x11e;" horiz-adv-x="782" 
d="M413 952h150v-20q0 -68 -56.5 -114.5t-138 -46.5t-138.5 46.5t-57 114.5v20h150v-33q0 -19 13 -31t32.5 -12t32 12t12.5 31v33zM709 391v-321q-42 -30 -116.5 -53.5t-177.5 -23.5q-86 0 -155 30.5t-112 81t-66 113.5t-23 132q0 88 30.5 157.5t83.5 113t120 66t143 23.5
q131 1 262 -59l-50 -137q-96 49 -180 47q-83 -2 -138.5 -56t-55.5 -155q0 -87 34.5 -140t87.5 -66q24 -6 49 -6q33 0 75 11v130h-113v112h302z" />
    <glyph glyph-name="gbreve" unicode="&#x11f;" horiz-adv-x="647" 
d="M414 3v50q-66 -63 -156 -62q-88 1 -153.5 74t-65.5 188q0 120 65.5 188.5t166.5 69.5q100 0 165 -59l8 48h152v-487q0 -69 -39 -118.5t-101.5 -73t-142.5 -26.5h-16q-114 0 -220 39l43 121q72 -31 146 -31h12q60 2 98 23t38 56zM359 752h150v-20q0 -68 -57 -114.5
t-138.5 -46.5t-138.5 46.5t-57 114.5v20h150v-33q0 -19 13 -31t32.5 -12t32.5 12t13 31v33zM405 148v201q-39 34 -83 33q-45 0 -72.5 -34.5t-27.5 -94.5q0 -61 27 -95t73 -35h5q39 0 78 25z" />
    <glyph glyph-name="Gdotaccent" unicode="&#x120;" horiz-adv-x="782" 
d="M369 937h3q33 0 53.5 -22t20.5 -51v-4q0 -29 -20.5 -51t-53.5 -22h-3q-33 0 -53.5 22t-20.5 51v4q0 29 20.5 51t53.5 22zM709 391v-321q-42 -30 -116.5 -53.5t-177.5 -23.5q-86 0 -155 30.5t-112 81t-66 113.5t-23 132q0 88 30.5 157.5t83.5 113t120 66t143 23.5
q131 1 262 -59l-50 -137q-96 49 -180 47q-83 -2 -138.5 -56t-55.5 -155q0 -87 34.5 -140t87.5 -66q24 -6 49 -6q33 0 75 11v130h-113v112h302z" />
    <glyph glyph-name="gdotaccent" unicode="&#x121;" horiz-adv-x="647" 
d="M414 3v50q-66 -63 -156 -62q-88 1 -153.5 74t-65.5 188q0 120 65.5 188.5t166.5 69.5q100 0 165 -59l8 48h152v-487q0 -69 -39 -118.5t-101.5 -73t-142.5 -26.5h-16q-114 0 -220 39l43 121q72 -31 146 -31h12q60 2 98 23t38 56zM405 148v201q-39 34 -83 33
q-45 0 -72.5 -34.5t-27.5 -94.5q0 -61 27 -94.5t73 -35.5h5q39 0 78 25zM314 737h3q33 0 53.5 -22t20.5 -51v-4q0 -29 -20.5 -51t-53.5 -22h-3q-33 0 -53 22t-20 51v4q0 29 20 51t53 22z" />
    <glyph glyph-name="Gcommaaccent" unicode="&#x122;" horiz-adv-x="782" 
d="M709 391v-321q-42 -30 -116.5 -53.5t-177.5 -23.5q-86 0 -155 30.5t-112 81t-66 113.5t-23 132q0 88 30.5 157.5t83.5 113t120 66t143 23.5q131 1 262 -59l-50 -137q-96 49 -180 47q-83 -2 -138.5 -56t-55.5 -155q0 -87 34.5 -140t87.5 -66q24 -6 49 -6q33 0 75 11v130
h-113v112h302zM302 -52h150l-36 -153h-132z" />
    <glyph glyph-name="gcommaaccent" unicode="&#x123;" horiz-adv-x="647" 
d="M414 3v50q-66 -63 -156 -62q-88 1 -153.5 74t-65.5 188q0 120 65.5 188.5t166.5 69.5q100 0 165 -59l8 48h152v-487q0 -69 -39 -118.5t-101.5 -73t-142.5 -26.5h-16q-114 0 -220 39l43 121q72 -31 146 -31h12q60 2 98 23t38 56zM405 148v201q-39 34 -83 33
q-45 0 -72.5 -34.5t-27.5 -94.5q0 -61 27 -95t73 -35h5q39 0 78 25zM234 601l36 153h132l-18 -153h-150z" />
    <glyph glyph-name="Hbar" unicode="&#x126;" horiz-adv-x="885" 
d="M565 700h201v-57h79v-148h-79v-495h-201v288h-244v-288h-200v495h-81v148h81v57h200v-57h244v57zM565 436v59h-244v-59h244z" />
    <glyph glyph-name="hbar" unicode="&#x127;" horiz-adv-x="716" 
d="M113 700h191v-43h145v-120h-145v-115q28 40 78.5 64t105.5 24q76 0 128.5 -48.5t52.5 -145.5v-316h-191v305q0 41 -22.5 60.5t-57.5 18.5q-26 0 -52 -11.5t-42 -30.5v-342h-191v537h-90v120h90v43z" />
    <glyph glyph-name="Itilde" unicode="&#x128;" horiz-adv-x="359" 
d="M81 700h201v-700h-201v700zM26 789l-30 80q61 54 109 59q6 1 13 1q31 0 73 -17l24 -12q23 -10 42 -10q11 0 21 3q27 8 53 42l32 -84q-39 -49 -88 -60q-15 -4 -31 -4q-34 0 -71 16l-29 14q-27 10 -44 10h-8q-26 -4 -66 -38z" />
    <glyph glyph-name="itilde" unicode="&#x129;" horiz-adv-x="289" 
d="M53 500h191v-500h-191v500zM-6 589l-31 80q62 54 110 59q6 1 13 1q31 0 73 -17l24 -12q23 -10 42 -10q10 0 21 3q27 8 53 42l32 -84q-40 -49 -88 -60q-15 -4 -31 -4q-34 0 -72 16l-28 14q-27 10 -44 10h-8q-25 -4 -66 -38z" />
    <glyph glyph-name="Imacron" unicode="&#x12a;" horiz-adv-x="359" 
d="M30 920h294v-103h-294v103zM80 700h201v-700h-201v700z" />
    <glyph glyph-name="imacron" unicode="&#x12b;" horiz-adv-x="289" 
d="M-3 720h294v-103h-294v103zM52 500h191v-500h-191v500z" />
    <glyph glyph-name="Iogonek" unicode="&#x12e;" horiz-adv-x="359" 
d="M80 699h201v-700q-105 -43 -105 -91q0 -4 1 -9q9 -25 42 -25h3q22 0 43 11l26 -72q-55 -25 -115 -28q-58 -2 -94 24t-35 75q1 12 4.5 24t8.5 20.5t14.5 18t15.5 15t18 13t17 10t17 9.5l12 6h-74v699z" />
    <glyph glyph-name="iogonek" unicode="&#x12f;" horiz-adv-x="289" 
d="M52 500h191v-501q-104 -43 -104 -91q0 -4 1 -9q8 -25 41 -25h3q23 0 43 11l26 -72q-54 -25 -115 -28q-57 -2 -93 24t-35 75q0 26 15 48t30.5 32.5t37 22t23.5 13.5h-64v500zM149 737h3q33 0 53.5 -22t20.5 -51v-4q0 -29 -20.5 -51t-53.5 -22h-3q-33 0 -53 22t-20 51v4
q0 29 20 51t53 22z" />
    <glyph glyph-name="Idotaccent" unicode="&#x130;" horiz-adv-x="359" 
d="M181 937h3q33 0 53.5 -22t20.5 -51v-4q0 -29 -20.5 -51t-53.5 -22h-3q-33 0 -53 22t-20 51v4q0 29 20 51t53 22zM80 700h201v-700h-201v700z" />
    <glyph glyph-name="dotlessi" unicode="&#x131;" horiz-adv-x="289" 
d="M52 500h191v-500h-191v500z" />
    <glyph glyph-name="IJ" unicode="&#x132;" horiz-adv-x="915" 
d="M636 700h201v-454q0 -115 -75.5 -184t-186.5 -69q-53 0 -107 19t-90 51l44 117q58 -38 120 -36q41 1 67.5 26t26.5 76v454zM80 700h201v-700h-201v700z" />
    <glyph glyph-name="ij" unicode="&#x133;" horiz-adv-x="598" 
d="M147 700h4q41 0 67.5 -20.5t26.5 -47.5v-16q0 -26 -26.5 -46.5t-67.5 -20.5h-4q-42 0 -68.5 20.5t-26.5 46.5v16q0 27 26.5 47.5t68.5 20.5zM454 699h4q42 0 68 -20.5t26 -46.5v-16q0 -27 -26 -47.5t-68 -20.5h-4q-42 0 -68.5 20.5t-26.5 47.5v16q0 26 26.5 46.5
t68.5 20.5zM360 500l191 1v-491q0 -92 -59.5 -147.5t-151.5 -63.5q-18 -2 -37 -2q-49 0 -99 14l32 118q28 -7 50 -7q10 0 18 1q56 11 56 86v491zM53 500h191v-500h-191v500z" />
    <glyph glyph-name="Kcommaaccent" unicode="&#x136;" horiz-adv-x="756" 
d="M496 700h237l-255 -289l251 -411h-222l-159 265l-67 -77v-188h-201v700h201v-268zM310 -52h150l-36 -153h-132z" />
    <glyph glyph-name="kcommaaccent" unicode="&#x137;" horiz-adv-x="681" 
d="M50 700h191v-365l175 164h243l-213 -194l220 -305h-228l-135 207l-62 -55v-152h-191v700zM233 -52h150l-36 -153h-132z" />
    <glyph glyph-name="Lacute" unicode="&#x139;" horiz-adv-x="607" 
d="M277 950h149l-77 -151h-132zM80 0v700h201v-552h309v-148h-510z" />
    <glyph glyph-name="lacute" unicode="&#x13a;" horiz-adv-x="284" 
d="M106 950h149l-77 -151h-132zM52 700h191v-700h-191v700z" />
    <glyph glyph-name="Lcommaaccent" unicode="&#x13b;" horiz-adv-x="607" 
d="M80 0v700h201v-552h309v-148h-510zM252 -52h151l-36 -153h-132z" />
    <glyph glyph-name="lcommaaccent" unicode="&#x13c;" horiz-adv-x="284" 
d="M52 700h191v-700h-191v700zM77 -52h150l-36 -153h-132z" />
    <glyph glyph-name="Lcaron" unicode="&#x13d;" horiz-adv-x="607" 
d="M374 808h187l-64 -258h-154zM80 0v700h201v-552h309v-148h-510z" />
    <glyph glyph-name="lcaron" unicode="&#x13e;" horiz-adv-x="534" 
d="M325 808h188l-64 -258h-154zM52 700h191v-700h-191v700z" />
    <glyph glyph-name="Ldot" unicode="&#x13f;" horiz-adv-x="607" 
d="M80 0v700h201v-552h309v-148h-510zM445 435h4q45 0 72.5 -22t27.5 -51v-59q0 -28 -27.5 -50t-72.5 -22h-4q-44 0 -71.5 21.5t-27.5 50.5v59q0 29 27.5 51t71.5 22z" />
    <glyph glyph-name="ldot" unicode="&#x140;" horiz-adv-x="509" 
d="M52 700h191v-700h-191v700zM383 406h4q45 0 72.5 -22t27.5 -51v-59q0 -29 -27.5 -51t-72.5 -22h-4q-44 0 -71.5 22t-27.5 51v59q0 29 27.5 51t71.5 22z" />
    <glyph glyph-name="Lslash" unicode="&#x141;" horiz-adv-x="583" 
d="M80 700h201v-221l191 109v-185l-191 -109v-146h284v-148h-485v179l-63 -36v185l63 36v336z" />
    <glyph glyph-name="lslash" unicode="&#x142;" horiz-adv-x="403" 
d="M88 700h191v-230l103 59v-173l-103 -59v-297h-191v188l-65 -37v173l65 37v339z" />
    <glyph glyph-name="Nacute" unicode="&#x143;" horiz-adv-x="797" 
d="M350 950h149l-77 -151h-132zM523 700h201v-700h-195l-254 382v-382h-201v700h197l252 -385v385z" />
    <glyph glyph-name="nacute" unicode="&#x144;" horiz-adv-x="644" 
d="M276 750h149l-78 -151h-132zM238 500v-78q28 40 78.5 64t105.5 24q76 0 128.5 -48.5t52.5 -145.5v-316h-191v305q0 41 -22.5 60.5t-56.5 18.5q-27 0 -53 -11.5t-42 -30.5v-342h-191v500h191z" />
    <glyph glyph-name="Ncommaaccent" unicode="&#x145;" horiz-adv-x="797" 
d="M523 700h201v-700h-195l-254 382v-382h-201v700h197l252 -385v385zM325 -52h151l-36 -153h-132z" />
    <glyph glyph-name="ncommaaccent" unicode="&#x146;" horiz-adv-x="644" 
d="M238 500v-78q28 40 78.5 64t105.5 24q76 0 128.5 -48.5t52.5 -145.5v-316h-191v305q0 41 -22.5 60.5t-56.5 18.5q-27 0 -53 -11.5t-42 -30.5v-342h-191v500h191zM251 -52h151l-36 -153h-132z" />
    <glyph glyph-name="Ncaron" unicode="&#x147;" horiz-adv-x="797" 
d="M462 950h132l-114 -147h-177l-113 147h132l70 -91zM523 700h201v-700h-195l-254 382v-382h-201v700h197l252 -385v385z" />
    <glyph glyph-name="ncaron" unicode="&#x148;" horiz-adv-x="644" 
d="M388 750h131l-113 -147h-177l-113 147h131l71 -91zM238 500v-78q28 40 78.5 64t105.5 24q76 0 128.5 -48.5t52.5 -145.5v-316h-191v305q0 41 -22.5 60.5t-56.5 18.5q-27 0 -53 -11.5t-42 -30.5v-342h-191v500h191z" />
    <glyph glyph-name="Eng" unicode="&#x14a;" horiz-adv-x="797" 
d="M523 700h201v-670q0 -114 -76 -183.5t-186 -69.5q-52 0 -106.5 19t-90.5 51l44 118q60 -38 120 -37q37 1 62.5 21.5t29.5 62.5l-246 370v-382h-201v700h197l251 -384q0 2 1 36v348z" />
    <glyph glyph-name="eng" unicode="&#x14b;" horiz-adv-x="644" 
d="M238 500v-78q28 40 78.5 64t105.5 24q76 0 128.5 -48.5t52.5 -145.5v-314q-3 -89 -62 -142t-149 -61q-18 -2 -37 -2q-49 0 -99 14l32 118q28 -7 50 -7q9 0 18 1q56 11 56 86v296q0 41 -22.5 60.5t-56.5 18.5q-27 0 -53 -11.5t-42 -30.5v-342h-191v500h191z" />
    <glyph glyph-name="Omacron" unicode="&#x14c;" horiz-adv-x="841" 
d="M270 920h294v-103h-294v103zM265 677q71 31 156 31t156 -30.5t116 -81t69.5 -114.5t24.5 -132t-24.5 -132t-69.5 -114.5t-116 -81t-156 -30.5t-156 30.5t-116 81t-69.5 114.5t-24.5 132t24.5 132t69.5 114.5t116 80.5zM533 505q-38 55 -112 55t-112.5 -54.5t-38.5 -155.5
t38.5 -155.5t112.5 -54.5t112.5 54.5t38.5 155.5t-39 155z" />
    <glyph glyph-name="omacron" unicode="&#x14d;" 
d="M176 720h294v-103h-294v103zM114 435q80 75 213 75t212.5 -75t79.5 -185t-79.5 -185t-212.5 -75t-212.5 75t-79.5 185t79 185zM401 353q-27 37 -74 37t-74 -37t-27 -103t27 -103t74 -37t74 37t27 103t-27 103z" />
    <glyph glyph-name="Ohungarumlaut" unicode="&#x150;" horiz-adv-x="841" 
d="M306 950h118l-77 -151h-101zM480 950h118l-77 -151h-101zM265 677q71 31 156 31t156 -30.5t116 -81t69.5 -114.5t24.5 -132t-24.5 -132t-69.5 -114.5t-116 -81t-156 -30.5t-156 30.5t-116 81t-69.5 114.5t-24.5 132t24.5 132t69.5 114.5t116 80.5zM533 505
q-38 55 -112 55t-112.5 -54.5t-38.5 -155.5t38.5 -155.5t112.5 -54.5t112.5 54.5t38.5 155.5t-39 155z" />
    <glyph glyph-name="ohungarumlaut" unicode="&#x151;" 
d="M212 750h118l-77 -151h-101zM386 750h118l-77 -151h-101zM114 435q80 75 213 75t212.5 -75t79.5 -185t-79.5 -185t-212.5 -75t-212.5 75t-79.5 185t79 185zM401 353q-27 37 -74 37t-74 -37t-27 -103t27 -103t74 -37t74 37t27 103t-27 103z" />
    <glyph glyph-name="OE" unicode="&#x152;" horiz-adv-x="1164" 
d="M583 0v29q-71 -37 -162 -37q-85 0 -156 30.5t-116 81t-69.5 114.5t-24.5 132t24.5 132t69.5 114.5t116 81t156 30.5q90 0 162 -38v30h532v-148h-331v-108h310v-148h-310v-148h336v-148h-537zM583 197v305q-63 52 -141 51q-76 -1 -124 -54t-48 -149t48 -149t124 -54
q78 -1 141 50z" />
    <glyph glyph-name="oe" unicode="&#x153;" horiz-adv-x="993" 
d="M914 149l24 -130q-109 -30 -199 -29q-137 2 -213 75q-76 -75 -199 -75q-133 0 -212.5 75t-79.5 185t79.5 185t212.5 75q122 0 198 -75q68 75 185 75h11q60 -2 105 -18.5t71 -39.5t41.5 -55.5t20.5 -61.5t5 -62q0 -17 -1 -36l-3 -24h-338q5 -45 45 -66.5t102 -22.5
q68 0 145 25zM401 353q-27 37 -74 37t-74 -36.5t-27 -103t27 -103t74 -36.5t74 36.5t27 103t-27 102.5zM622 298h168v11q0 78 -77 81q-43 2 -67 -23t-24 -69z" />
    <glyph glyph-name="Racute" unicode="&#x154;" horiz-adv-x="752" 
d="M332 950h149l-78 -151h-131zM80 0v700h354q110 0 183.5 -63t73.5 -167q0 -69 -37 -119.5t-98 -72.5l160 -278h-217l-138 240l-19 -1h-61v-239h-201zM283 388h126q35 0 58.5 21.5t23.5 60.5t-23.5 60.5t-58.5 21.5h-126v-164z" />
    <glyph glyph-name="racute" unicode="&#x155;" horiz-adv-x="487" 
d="M166 750h148l-77 -151h-132zM238 500v-106q28 68 83 95q37 20 83 20q34 0 73 -12l-60 -164q-43 11 -77 11q-13 0 -25 -2q-51 -7 -77 -46v-296h-191v500h191z" />
    <glyph glyph-name="Rcommaaccent" unicode="&#x156;" horiz-adv-x="752" 
d="M80 0v700h354q110 0 183.5 -63t73.5 -167q0 -69 -37 -119.5t-98 -72.5l160 -278h-217l-138 240l-19 -1h-61v-239h-201zM283 388h126q35 0 58.5 21.5t23.5 60.5t-23.5 60.5t-58.5 21.5h-126v-164zM307 -52h151l-36 -153h-132z" />
    <glyph glyph-name="rcommaaccent" unicode="&#x157;" horiz-adv-x="487" 
d="M238 500v-106q28 68 83 95q37 20 83 20q34 0 73 -12l-60 -164q-43 11 -77 11q-13 0 -25 -2q-51 -7 -77 -46v-296h-191v500h191zM141 -52h151l-37 -153h-131z" />
    <glyph glyph-name="Rcaron" unicode="&#x158;" horiz-adv-x="752" 
d="M444 950h131l-113 -147h-177l-113 147h131l71 -91zM80 0v700h354q110 0 183.5 -63t73.5 -167q0 -69 -37 -119.5t-98 -72.5l160 -278h-217l-138 240l-19 -1h-61v-239h-201zM283 388h126q35 0 58.5 21.5t23.5 60.5t-23.5 60.5t-58.5 21.5h-126v-164z" />
    <glyph glyph-name="rcaron" unicode="&#x159;" horiz-adv-x="487" 
d="M278 750h131l-113 -147h-177l-113 147h131l70 -91zM238 500v-106q28 68 83 95q37 20 83 20q34 0 73 -12l-60 -164q-43 11 -77 11q-13 0 -25 -2q-51 -7 -77 -46v-296h-191v500h191z" />
    <glyph glyph-name="Sacute" unicode="&#x15a;" horiz-adv-x="668" 
d="M48 69l58 145q39 -25 92.5 -43.5t100.5 -23.5q13 -1 24 -1q81 0 86 51v7q0 21 -15 34.5t-55 26.5q-109 36 -169 72t-80.5 72t-20.5 87q0 9 1 20q3 50 27.5 88t64.5 60.5t88 34t103 11.5q137 0 262 -55l-58 -148q-112 47 -190 47h-13q-32 -2 -51 -14.5t-22 -33.5v-8
q0 -24 24 -37.5t96 -38.5q48 -16 75 -27t59 -29t48 -37.5t27 -49.5t11 -68q0 -10 -1 -21q-4 -63 -45 -109.5t-102.5 -68.5t-134.5 -21q-132 2 -290 78zM296 950h148l-77 -151h-132z" />
    <glyph glyph-name="sacute" unicode="&#x15b;" horiz-adv-x="550" 
d="M26 40l41 114q96 -51 180 -52q35 0 57 9.5t24 26.5q1 2 1 5q0 15 -13.5 24t-39.5 17q-129 43 -178 79.5t-49 99.5q0 7 1 14q3 45 37.5 76.5t86.5 45.5t117 14q120 0 229 -42l-43 -118q-89 42 -158 46h-10q-27 0 -43.5 -8t-17.5 -22q-1 -20 16.5 -29.5t71.5 -25.5
q32 -10 56 -18.5t51 -22.5t43.5 -30.5t28 -40t11.5 -52.5q0 -8 -1 -16q-5 -49 -44.5 -82.5t-95.5 -47.5t-125 -13q-135 0 -234 49zM241 750h149l-77 -151h-132z" />
    <glyph glyph-name="Scedilla" unicode="&#x15e;" horiz-adv-x="668" 
d="M48 69l58 145q39 -25 92.5 -43.5t100.5 -23.5q13 -1 24 -1q81 0 86 51v7q0 21 -15 34.5t-55 26.5q-109 35 -169 71.5t-80.5 72.5t-20.5 87q0 9 1 20q3 50 27.5 88t64.5 60.5t88 34t103 11.5q137 0 262 -55l-58 -148q-112 47 -190 47q-7 0 -13 -1q-32 -1 -51 -13.5
t-22 -33.5v-8q0 -24 24 -37.5t96 -38.5q48 -16 75 -27t59 -29t48 -37.5t27 -49.5t11 -68q0 -10 -1 -21q-4 -63 -44.5 -109.5t-102 -68.5t-134.5 -21h-10l-13 -20h23q48 0 78 -25t30 -59q0 -38 -25 -62.5t-59.5 -33.5t-79.5 -10h-10q-55 0 -100 12l19 53q14 -4 39 -4
q12 0 24 1q57 6 58 35q1 1 1 2q0 29 -42 29h-60l55 88q-105 17 -219 72z" />
    <glyph glyph-name="scedilla" unicode="&#x15f;" horiz-adv-x="550" 
d="M26 40l41 114q96 -51 180 -52q35 0 57 9.5t24 26.5q1 2 1 5q0 15 -13.5 24t-39.5 17q-129 43 -178 79.5t-49 99.5q0 7 1 14q3 45 37.5 76.5t86.5 45.5t117 14q120 0 229 -42l-43 -118q-89 42 -158 46h-10q-27 0 -43.5 -8t-17.5 -22q-1 -20 16.5 -29.5t71.5 -25.5
q32 -10 56 -18.5t51 -23t43.5 -30.5t28 -39.5t11.5 -52.5q0 -8 -1 -16q-6 -66 -70.5 -101.5t-159.5 -40.5l-18 -1l-11 -16h23q49 0 78.5 -25t29.5 -59q0 -37 -24.5 -62t-59.5 -34t-79 -10h-9q-52 0 -101 13l19 52q17 -4 42 -4q11 0 20 1q57 6 59 36v2q0 28 -41 28h-60l49 80
q-107 8 -186 47z" />
    <glyph glyph-name="Scaron" unicode="&#x160;" horiz-adv-x="668" 
d="M48 69l58 145q39 -25 92.5 -43.5t100.5 -23.5q13 -1 24 -1q81 0 86 51v7q0 21 -15 34.5t-55 26.5q-109 36 -169 72t-80.5 72t-20.5 87q0 9 1 20q3 50 27.5 88t64.5 60.5t88 34t103 11.5q137 0 262 -55l-58 -148q-112 47 -190 47h-13q-32 -2 -51 -14.5t-22 -33.5v-8
q0 -24 24 -37.5t96 -38.5q48 -16 75 -27t59 -29t48 -37.5t27 -49.5t11 -68q0 -10 -1 -21q-4 -63 -45 -109.5t-102.5 -68.5t-134.5 -21q-132 2 -290 78zM408 950h131l-113 -147h-177l-113 147h131l70 -91z" />
    <glyph glyph-name="scaron" unicode="&#x161;" horiz-adv-x="550" 
d="M26 40l41 114q96 -51 180 -52q35 0 57 9.5t24 26.5q1 2 1 5q0 15 -13.5 24t-39.5 17q-129 43 -178 79.5t-49 99.5q0 7 1 14q3 45 37.5 76.5t86.5 45.5t117 14q120 0 229 -42l-43 -118q-89 42 -158 46h-10q-27 0 -43.5 -8t-17.5 -22q-1 -20 16.5 -29.5t71.5 -25.5
q32 -10 56 -18.5t51 -22.5t43.5 -30.5t28 -40t11.5 -52.5q0 -8 -1 -16q-5 -49 -44.5 -82.5t-95.5 -47.5t-125 -13q-135 0 -234 49zM353 750h132l-114 -147h-177l-113 147h132l70 -91z" />
    <glyph glyph-name="Tcedilla" unicode="&#x162;" horiz-adv-x="638" 
d="M18 700h603v-148h-201v-552l-96 -2l-14 -20h23q49 0 78.5 -25t29.5 -59q0 -38 -24.5 -62.5t-59.5 -33.5t-79 -10h-11q-54 0 -99 12l19 53q15 -4 39 -4q12 0 23 1q57 6 59 35v2q0 29 -41 29h-60l51 82l-39 2v552h-201v148z" />
    <glyph glyph-name="tcedilla" unicode="&#x163;" horiz-adv-x="528" 
d="M111 624h191v-124h169v-120h-169v-185q0 -70 63 -73h6q31 0 78 13l45 -120q-111 -25 -180 -25h-8q-29 0 -50 4l-11 -17h23q48 0 78 -25t30 -59q0 -38 -25 -62.5t-59.5 -33.5t-79.5 -10h-10q-54 0 -99 12l18 53q14 -4 39 -4q12 0 24 1q57 6 59 35v2q0 29 -42 29h-59l57 94
q-88 39 -88 157v214h-95v120h95v124z" />
    <glyph glyph-name="Tcaron" unicode="&#x164;" horiz-adv-x="638" 
d="M397 950h131l-113 -147h-177l-113 147h131l70 -91zM18 700h603v-148h-201v-552h-201v552h-201v148z" />
    <glyph glyph-name="tcaron" unicode="&#x165;" horiz-adv-x="528" 
d="M111 624h191v-124h169v-120h-169v-185q0 -70 63 -73h6q31 0 78 13l45 -120q-111 -25 -180 -25h-8q-195 2 -195 176v214h-95v120h95v124zM397 808h188l-64 -258h-154z" />
    <glyph glyph-name="Tbar" unicode="&#x166;" horiz-adv-x="638" 
d="M176 920h294v-103h-294v103zM18 700h603v-148h-201v-552h-201v552h-201v148z" />
    <glyph glyph-name="tbar" unicode="&#x167;" horiz-adv-x="528" 
d="M111 624h191v-124h169v-120h-169v-48h169v-103h-169v-34q0 -70 63 -73h6q31 0 78 13l45 -120q-111 -25 -180 -25h-8q-195 2 -195 176v63h-95v103h95v48h-95v120h95v124z" />
    <glyph glyph-name="Utilde" unicode="&#x168;" horiz-adv-x="778" 
d="M504 700h201v-450q0 -113 -81 -186.5t-231.5 -73.5t-231.5 73.5t-81 186.5v450h201v-450q0 -59 28 -85.5t83.5 -26.5t83.5 26.5t28 85.5v450zM233 789l-31 80q61 54 109 59q7 1 14 1q31 0 72 -17l25 -12q22 -10 41 -10q11 0 21 3q27 8 54 42l32 -84q-40 -49 -89 -60
q-15 -4 -30 -4q-34 0 -72 16l-29 14q-26 10 -44 10h-8q-25 -4 -65 -38z" />
    <glyph glyph-name="utilde" unicode="&#x169;" horiz-adv-x="639" 
d="M407 500h191v-500h-191v78q-28 -40 -78.5 -64t-105.5 -24q-76 0 -128.5 48.5t-52.5 145.5v316h191v-305q0 -41 22.5 -60.5t56.5 -18.5q27 0 53 11.5t42 30.5v342zM175 589l-31 80q62 54 110 59q6 1 13 1q31 0 73 -17l24 -12q23 -10 42 -10q10 0 21 3q27 8 53 42l32 -84
q-40 -49 -89 -60q-14 -4 -30 -4q-34 0 -72 16l-28 14q-27 10 -44 10h-8q-26 -4 -66 -38z" />
    <glyph glyph-name="Umacron" unicode="&#x16a;" horiz-adv-x="778" 
d="M237 920h294v-103h-294v103zM504 700h201v-450q0 -113 -81 -186.5t-231.5 -73.5t-231.5 73.5t-81 186.5v450h201v-450q0 -59 28 -85.5t83.5 -26.5t83.5 26.5t28 85.5v450z" />
    <glyph glyph-name="umacron" unicode="&#x16b;" horiz-adv-x="639" 
d="M179 720h294v-103h-294v103zM407 500h191v-500h-191v78q-28 -40 -78.5 -64t-105.5 -24q-77 0 -129 48.5t-52 145.5v316h191v-305q0 -41 22.5 -60.5t56.5 -18.5q27 0 53 11.5t42 30.5v342z" />
    <glyph glyph-name="Uring" unicode="&#x16e;" horiz-adv-x="778" 
d="M274 961q44 39 114 39t113.5 -38.5t43.5 -89t-43.5 -89.5t-113.5 -39t-113.5 39t-43.5 89.5t43 88.5zM428 909q-14 16 -39.5 16t-39.5 -15.5t-14 -37.5t14 -37.5t39.5 -15.5t39.5 15.5t14 37.5t-14 37zM504 700h201v-450q0 -113 -81 -186.5t-231.5 -73.5t-231.5 73.5
t-81 186.5v450h201v-450q0 -59 28 -85.5t83.5 -26.5t83.5 26.5t28 85.5v450z" />
    <glyph glyph-name="uring" unicode="&#x16f;" horiz-adv-x="639" 
d="M216 761q44 39 114.5 39t114 -38.5t43.5 -89t-43.5 -89.5t-114 -39t-114 39t-43.5 89.5t43 88.5zM370 709q-14 16 -39.5 16t-39.5 -15.5t-14 -37.5t14 -37.5t39.5 -15.5t39.5 15.5t14 37.5t-14 37zM407 500h191v-500h-191v78q-28 -40 -78.5 -64t-105.5 -24
q-77 0 -129 48.5t-52 145.5v316h191v-305q0 -41 22.5 -60.5t56.5 -18.5q27 0 53 11.5t42 30.5v342z" />
    <glyph glyph-name="Uhungarumlaut" unicode="&#x170;" horiz-adv-x="778" 
d="M273 950h118l-77 -151h-101zM447 950h118l-77 -151h-101zM504 700h201v-450q0 -113 -81 -186.5t-231.5 -73.5t-231.5 73.5t-81 186.5v450h201v-450q0 -59 28 -85.5t83.5 -26.5t83.5 26.5t28 85.5v450z" />
    <glyph glyph-name="uhungarumlaut" unicode="&#x171;" horiz-adv-x="639" 
d="M215 750h119l-77 -151h-101zM389 750h118l-77 -151h-101zM407 500h191v-500h-191v78q-28 -40 -78.5 -64t-105.5 -24q-77 0 -129 48.5t-52 145.5v316h191v-305q0 -41 22.5 -60.5t56.5 -18.5q27 0 53 11.5t42 30.5v342z" />
    <glyph glyph-name="Uogonek" unicode="&#x172;" horiz-adv-x="778" 
d="M504 250v450h201v-450q0 -82 -43 -144.5t-125 -92.5q-70 -36 -70 -76q0 -5 1 -10q9 -24 42 -24h3q22 0 42 11l27 -72q-56 -25 -115 -27q-58 -2 -94 23.5t-35 74.5q1 46 43 77l-46 3q-124 14 -189.5 84.5t-65.5 172.5v450h201v-450q0 -59 28 -85.5t83.5 -26.5t83.5 26.5
t28 85.5z" />
    <glyph glyph-name="uogonek" unicode="&#x173;" horiz-adv-x="639" 
d="M407 500h191v-502h-71q-52 -24 -76 -48.5t-24 -44.5q0 -3 1 -6q8 -25 41 -25h4q22 0 42 11l26 -72q-55 -24 -114 -27q-58 -2 -94 24t-35 75q1 26 16.5 48.5t30.5 32.5t38 22l24 12v78q-28 -40 -78.5 -64t-105.5 -24q-77 0 -129 48.5t-52 145.5v316h191v-305
q0 -41 22.5 -60.5t56.5 -18.5q27 0 53 11.5t42 30.5v342z" />
    <glyph glyph-name="Wcircumflex" unicode="&#x174;" horiz-adv-x="1101" 
d="M464 950h177l114 -147h-132l-70 90l-70 -90h-132zM880 700h204l-188 -700h-226l-119 405l-119 -405h-226l-188 700h205l107 -456l128 456h187l127 -456z" />
    <glyph glyph-name="wcircumflex" unicode="&#x175;" horiz-adv-x="922" 
d="M379 750h177l113 -147h-132l-70 90l-70 -90h-132zM716 500h195l-178 -500h-171l-101 292l-101 -292h-171l-178 500h195l80 -309l93 309h164l93 -309z" />
    <glyph glyph-name="Ycircumflex" unicode="&#x176;" horiz-adv-x="773" 
d="M299 950h176l114 -147h-132l-70 90l-70 -90h-132zM538 700h218l-268 -426v-274h-201v274l-269 426h218l151 -265z" />
    <glyph glyph-name="ycircumflex" unicode="&#x177;" horiz-adv-x="664" 
d="M237 750h177l114 -147h-132l-70 90l-70 -90h-132zM458 500h196l-233 -538q-59 -138 -187 -163q-26 -5 -55 -5q-65 0 -136 23l43 116q51 -11 82 -11q16 0 29 3q20 4 33 16.5t24 36.5l10 22l-248 500h199l130 -306z" />
    <glyph glyph-name="Ydieresis" unicode="&#x178;" horiz-adv-x="773" 
d="M264 937h3q33 0 53.5 -22t20.5 -51v-4q0 -29 -20.5 -51t-53.5 -22h-3q-33 0 -53.5 22t-20.5 51v4q0 29 20.5 51t53.5 22zM518 937h4q33 0 53.5 -22t20.5 -51v-4q0 -29 -20.5 -51t-53.5 -22h-4q-32 0 -52.5 22t-20.5 51v4q0 29 20.5 51t52.5 22zM538 700h218l-268 -426
v-274h-201v274l-269 426h218l151 -265z" />
    <glyph glyph-name="Zacute" unicode="&#x179;" horiz-adv-x="661" 
d="M281 950h148l-77 -151h-132zM67 700h536v-92l-310 -460h321v-148h-566v92l310 460h-291v148z" />
    <glyph glyph-name="zacute" unicode="&#x17a;" horiz-adv-x="534" 
d="M217 750h149l-77 -151h-132zM38 500h462v-86l-226 -278h236v-136h-484v86l226 278h-214v136z" />
    <glyph glyph-name="Zdotaccent" unicode="&#x17b;" horiz-adv-x="661" 
d="M323 937h3q34 0 54 -22t20 -51v-4q0 -29 -20.5 -51t-53.5 -22h-3q-33 0 -53 22t-20 51v4q0 29 20 51t53 22zM67 700h536v-92l-310 -460h321v-148h-566v92l310 460h-291v148z" />
    <glyph glyph-name="zdotaccent" unicode="&#x17c;" horiz-adv-x="534" 
d="M259 737h4q33 0 53.5 -22t20.5 -51v-4q0 -29 -20.5 -51t-53.5 -22h-4q-32 0 -52.5 22t-20.5 51v4q0 29 20.5 51t52.5 22zM38 500h462v-86l-226 -278h236v-136h-484v87l226 277h-214v136z" />
    <glyph glyph-name="Zcaron" unicode="&#x17d;" horiz-adv-x="661" 
d="M393 950h131l-113 -147h-177l-113 147h131l70 -91zM67 700h536v-92l-310 -460h321v-148h-566v92l310 460h-291v148z" />
    <glyph glyph-name="zcaron" unicode="&#x17e;" horiz-adv-x="534" 
d="M329 750h132l-114 -147h-177l-113 147h131l71 -91zM38 500h462v-86l-226 -278h236v-136h-484v86l226 278h-214v136z" />
    <glyph glyph-name="florin" unicode="&#x192;" horiz-adv-x="520" 
d="M115 431v94q0 115 99 161q52 24 127 24t161 -24l-39 -110q-41 13 -73 13q-17 0 -31 -4q-53 -12 -53 -63v-91h143v-120h-143v-310q-3 -89 -61.5 -141.5t-149.5 -60.5q-18 -2 -36.5 -2t-37.5 2l21 121q35 3 49 16q23 21 24 67v308h-94v120h94z" />
    <glyph glyph-name="Acaron" unicode="&#x1cd;" horiz-adv-x="766" 
d="M454 950h131l-113 -147h-177l-113 147h131l70 -91zM276 700h215l258 -700h-203l-47 144h-231l-47 -144h-203zM462 262l-78 239l-78 -239h156z" />
    <glyph glyph-name="acaron" unicode="&#x1ce;" horiz-adv-x="562" 
d="M73 353l-23 120q110 36 223 37q51 1 93.5 -7.5t78 -27t56 -53t20.5 -82.5v-340h-153l-8 53q-76 -63 -169 -63q-69 1 -116 41t-49 111q0 36 10 64.5t31 46t45 29.5t59 17.5t64.5 7.5t69.5 2h38v27q0 51 -93 51q-4 0 -8 -1q-84 -2 -169 -33zM357 750h132l-114 -147h-177
l-113 147h131l71 -91zM343 141v86h-47q-49 0 -74 -12.5t-25 -46.5v-9q3 -25 22.5 -38t47.5 -13q51 0 76 33z" />
    <glyph glyph-name="Icaron" unicode="&#x1cf;" horiz-adv-x="359" 
d="M251 950h131l-113 -147h-177l-113 147h131l70 -91zM80 700h201v-700h-201v700z" />
    <glyph glyph-name="icaron" unicode="&#x1d0;" horiz-adv-x="289" 
d="M219 750h131l-113 -147h-177l-113 147h131l70 -91zM52 500h191v-500h-191v500z" />
    <glyph glyph-name="Ocaron" unicode="&#x1d1;" horiz-adv-x="841" 
d="M491 950h132l-114 -147h-177l-113 147h132l70 -91zM265 677q71 31 156 31t156 -30.5t116 -81t69.5 -114.5t24.5 -132t-24.5 -132t-69.5 -114.5t-116 -81t-156 -30.5t-156 30.5t-116 81t-69.5 114.5t-24.5 132t24.5 132t69.5 114.5t116 80.5zM533 505q-38 55 -112 55
t-112.5 -54.5t-38.5 -155.5t38.5 -155.5t112.5 -54.5t112.5 54.5t38.5 155.5t-39 155z" />
    <glyph glyph-name="ocaron" unicode="&#x1d2;" 
d="M397 750h132l-114 -147h-177l-113 147h131l71 -91zM114 435q80 75 213 75t212.5 -75t79.5 -185t-79.5 -185t-212.5 -75t-212.5 75t-79.5 185t79 185zM401 353q-27 37 -74 37t-74 -37t-27 -103t27 -103t74 -37t74 37t27 103t-27 103z" />
    <glyph glyph-name="Ucaron" unicode="&#x1d3;" horiz-adv-x="778" 
d="M458 950h132l-114 -147h-177l-113 147h132l70 -91zM504 700h201v-450q0 -113 -81 -186.5t-231.5 -73.5t-231.5 73.5t-81 186.5v450h201v-450q0 -59 28 -85.5t83.5 -26.5t83.5 26.5t28 85.5v450z" />
    <glyph glyph-name="ucaron" unicode="&#x1d4;" horiz-adv-x="639" 
d="M400 750h132l-113 -147h-177l-113 147h131l70 -91zM407 500h191v-500h-191v78q-28 -40 -78.5 -64t-105.5 -24q-76 0 -128.5 48.5t-52.5 145.5v316h191v-305q0 -41 22.5 -60.5t56.5 -18.5q27 0 53 11.5t42 30.5v342z" />
    <glyph glyph-name="Udieresismacron" unicode="&#x1d5;" horiz-adv-x="778" 
d="M237 1063h294v-102h-294v102zM256 905h4q33 0 53 -22t20 -51v-4q0 -29 -20 -51t-53 -22h-4q-33 0 -53 22t-20 51v4q0 29 20 51t53 22zM511 905h4q32 0 52.5 -22t20.5 -51v-4q0 -29 -20.5 -51t-52.5 -22h-4q-33 0 -53.5 22t-20.5 51v4q0 29 20.5 51t53.5 22zM504 700h201
v-450q0 -113 -81 -186.5t-231.5 -73.5t-231.5 73.5t-81 186.5v450h201v-450q0 -59 28 -85.5t83.5 -26.5t83.5 26.5t28 85.5v450z" />
    <glyph glyph-name="udieresismacron" unicode="&#x1d6;" horiz-adv-x="639" 
d="M179 843h294v-103h-294v103zM199 703h3q33 0 53.5 -22t20.5 -51v-5q0 -29 -20.5 -51t-53.5 -22h-3q-33 0 -53.5 22t-20.5 51v5q0 29 20.5 51t53.5 22zM453 703h4q33 0 53.5 -22t20.5 -51v-5q0 -29 -20.5 -51t-53.5 -22h-4q-32 0 -52.5 22t-20.5 51v5q0 29 20.5 51
t52.5 22zM407 500h191v-500h-191v78q-28 -40 -78.5 -64t-105.5 -24q-77 0 -129 48.5t-52 145.5v316h191v-305q0 -41 22.5 -60.5t56.5 -18.5q27 0 53 11.5t42 30.5v342z" />
    <glyph glyph-name="Udieresisacute" unicode="&#x1d7;" horiz-adv-x="778" 
d="M346 1088h149l-77 -152h-132zM256 905h4q33 0 53 -22t20 -51v-4q0 -29 -20 -51t-53 -22h-4q-33 0 -53 22t-20 51v4q0 29 20 51t53 22zM511 905h4q32 0 52.5 -22t20.5 -51v-4q0 -29 -20.5 -51t-52.5 -22h-4q-33 0 -53.5 22t-20.5 51v4q0 29 20.5 51t53.5 22zM504 700h201
v-450q0 -113 -81 -186.5t-231.5 -73.5t-231.5 73.5t-81 186.5v450h201v-450q0 -59 28 -85.5t83.5 -26.5t83.5 26.5t28 85.5v450z" />
    <glyph glyph-name="udieresisacute" unicode="&#x1d8;" horiz-adv-x="639" 
d="M288 880h149l-77 -151h-132zM199 703h3q33 0 53.5 -22t20.5 -51v-5q0 -29 -20.5 -51t-53.5 -22h-3q-33 0 -53.5 22t-20.5 51v5q0 29 20.5 51t53.5 22zM453 703h4q33 0 53.5 -22t20.5 -51v-5q0 -29 -20.5 -51t-53.5 -22h-4q-32 0 -52.5 22t-20.5 51v5q0 29 20.5 51
t52.5 22zM407 500h191v-500h-191v78q-28 -40 -78.5 -64t-105.5 -24q-77 0 -129 48.5t-52 145.5v316h191v-305q0 -41 22.5 -60.5t56.5 -18.5q27 0 53 11.5t42 30.5v342z" />
    <glyph glyph-name="Udieresiscaron" unicode="&#x1d9;" horiz-adv-x="778" 
d="M458 1086h132l-114 -148h-177l-113 148h132l70 -91zM256 905h4q33 0 53 -22t20 -51v-4q0 -29 -20 -51t-53 -22h-4q-33 0 -53 22t-20 51v4q0 29 20 51t53 22zM511 905h4q32 0 52.5 -22t20.5 -51v-4q0 -29 -20.5 -51t-52.5 -22h-4q-33 0 -53.5 22t-20.5 51v4q0 29 20.5 51
t53.5 22zM504 700h201v-450q0 -113 -81 -186.5t-231.5 -73.5t-231.5 73.5t-81 186.5v450h201v-450q0 -59 28 -85.5t83.5 -26.5t83.5 26.5t28 85.5v450z" />
    <glyph glyph-name="udieresiscaron" unicode="&#x1da;" horiz-adv-x="639" 
d="M400 880h132l-113 -147h-177l-113 147h131l70 -90zM199 707h3q33 0 53.5 -22.5t20.5 -51.5v-4q0 -29 -20.5 -51t-53.5 -22h-3q-33 0 -53.5 22t-20.5 51v4q0 29 20.5 51.5t53.5 22.5zM453 707h4q33 0 53.5 -22.5t20.5 -51.5v-4q0 -29 -20.5 -51t-53.5 -22h-4
q-32 0 -52.5 22t-20.5 51v4q0 29 20.5 51.5t52.5 22.5zM407 500h191v-500h-191v78q-28 -40 -78.5 -64t-105.5 -24q-77 0 -129 48.5t-52 145.5v316h191v-305q0 -41 22.5 -60.5t56.5 -18.5q27 0 53 11.5t42 30.5v342z" />
    <glyph glyph-name="Udieresisgrave" unicode="&#x1db;" horiz-adv-x="778" 
d="M286 1088h149l60 -152h-132zM256 905h4q33 0 53 -22t20 -51v-4q0 -29 -20 -51t-53 -22h-4q-33 0 -53 22t-20 51v4q0 29 20 51t53 22zM511 905h4q32 0 52.5 -22t20.5 -51v-4q0 -29 -20.5 -51t-52.5 -22h-4q-33 0 -53.5 22t-20.5 51v4q0 29 20.5 51t53.5 22zM504 700h201
v-450q0 -113 -81 -186.5t-231.5 -73.5t-231.5 73.5t-81 186.5v450h201v-450q0 -59 28 -85.5t83.5 -26.5t83.5 26.5t28 85.5v450z" />
    <glyph glyph-name="udieresisgrave" unicode="&#x1dc;" horiz-adv-x="639" 
d="M228 880h149l60 -151h-131zM199 703h3q33 0 53.5 -22t20.5 -51v-5q0 -29 -20.5 -51t-53.5 -22h-3q-33 0 -53.5 22t-20.5 51v5q0 29 20.5 51t53.5 22zM453 703h4q33 0 53.5 -22t20.5 -51v-5q0 -29 -20.5 -51t-53.5 -22h-4q-32 0 -52.5 22t-20.5 51v5q0 29 20.5 51t52.5 22
zM407 500h191v-500h-191v78q-28 -40 -78.5 -64t-105.5 -24q-77 0 -129 48.5t-52 145.5v316h191v-305q0 -41 22.5 -60.5t56.5 -18.5q27 0 53 11.5t42 30.5v342z" />
    <glyph glyph-name="Adieresismacron" unicode="&#x1de;" horiz-adv-x="766" 
d="M233 1061h294v-102h-294v102zM252 927h3q33 0 53.5 -22t20.5 -51v-4q0 -29 -20.5 -51t-53.5 -22h-3q-33 0 -53.5 22t-20.5 51v4q0 29 20.5 51t53.5 22zM507 927h3q33 0 53.5 -22t20.5 -51v-4q0 -29 -20.5 -51t-53.5 -22h-3q-33 0 -53.5 22t-20.5 51v4q0 29 20.5 51
t53.5 22zM276 700h215l258 -700h-203l-47 144h-231l-47 -144h-203zM462 262l-78 239l-79 -239h157z" />
    <glyph glyph-name="adieresismacron" unicode="&#x1df;" horiz-adv-x="562" 
d="M73 353l-23 120q110 36 223 37q51 1 93.5 -7.5t78 -27t56 -53t20.5 -82.5v-340h-153l-8 53q-76 -63 -169 -63q-69 1 -116 41t-49 110q0 37 10 65.5t31 46t45 29.5t59 17.5t64.5 7.5t69.5 2h38v27q0 51 -93 51q-4 0 -8 -1q-84 -2 -169 -33zM136 848h294v-103h-294v103z
M155 714h4q32 0 52.5 -22t20.5 -51v-5q0 -29 -20.5 -51t-52.5 -22h-4q-33 0 -53.5 22t-20.5 51v5q0 29 20.5 51t53.5 22zM410 714h3q33 0 53.5 -22t20.5 -51v-5q0 -29 -20.5 -51t-53.5 -22h-3q-33 0 -53.5 22t-20.5 51v5q0 29 20.5 51t53.5 22zM343 141v86h-47
q-49 0 -74 -12.5t-25 -46.5v-9q3 -25 22.5 -38t47.5 -13q51 0 76 33z" />
    <glyph glyph-name="Gcaron" unicode="&#x1e6;" horiz-adv-x="782" 
d="M438 950h132l-114 -147h-176l-114 147h132l70 -91zM709 391v-321q-42 -30 -116.5 -53.5t-177.5 -23.5q-86 0 -155 30.5t-112 81t-66 113.5t-23 132q0 88 30.5 157.5t83.5 113t120 66t143 23.5q131 1 262 -59l-50 -137q-96 49 -180 47q-83 -2 -138.5 -56t-55.5 -155
q0 -87 34.5 -140t87.5 -66q24 -6 49 -6q33 0 75 11v130h-113v112h302z" />
    <glyph glyph-name="gcaron" unicode="&#x1e7;" horiz-adv-x="647" 
d="M414 3v50q-66 -63 -156 -62q-88 1 -153.5 74t-65.5 188q0 120 65.5 188.5t166.5 69.5q100 0 165 -59l8 48h152v-487q0 -69 -39 -118.5t-101.5 -73t-142.5 -26.5h-16q-114 0 -220 39l43 121q72 -31 146 -31h12q60 2 98 23t38 56zM405 148v201q-39 34 -83 33
q-45 0 -72.5 -34.5t-27.5 -94.5q0 -61 27 -95t73 -35h5q39 0 78 25zM384 750h131l-113 -147h-177l-113 147h131l70 -91z" />
    <glyph glyph-name="Oslashacute" unicode="&#x1fe;" horiz-adv-x="841" 
d="M471 950l-77 -151h-132l60 151h149zM619 750l-25 -80q92 -46 142.5 -133t50.5 -187q0 -68 -24.5 -132t-69.5 -114.5t-116 -81t-156 -30.5q-18 0 -34 1l-14 -43h-150l25 80q-92 46 -142.5 133t-50.5 187q0 68 24.5 132t69.5 114.5t116 81t156 30.5q17 0 34 -1l14 43h150z
M302 205l108 355q-68 -4 -104 -58.5t-36 -151.5q0 -91 32 -145zM540 495l-108 -355q68 4 104 58.5t36 151.5q0 91 -32 145z" />
    <glyph glyph-name="oslashacute" unicode="&#x1ff;" 
d="M397 750l-77 -151h-132l60 151h149zM478 550l-19 -64q75 -31 117.5 -94.5t42.5 -141.5q0 -110 -79.5 -185t-212.5 -75l-22 1l-12 -41h-118l20 64q-76 31 -118 94.5t-42 141.5q0 110 79.5 185t212.5 75l21 -1l13 41h117zM242 165l69 224q-40 -6 -62.5 -42.5t-22.5 -96.5
q0 -51 16 -85zM412 335l-69 -224q40 6 62.5 42.5t22.5 96.5q0 51 -16 85z" />
    <glyph glyph-name="Scommaaccent" unicode="&#x218;" horiz-adv-x="668" 
d="M48 69l58 145q39 -25 92.5 -43.5t100.5 -22.5q13 -2 24 -2q81 0 86 51v7q0 21 -15 34.5t-55 26.5q-109 36 -169 72t-80.5 72t-20.5 87q0 9 1 20q3 50 27.5 88t64.5 60.5t88 34t103 11.5q137 0 262 -55l-58 -148q-112 47 -190 47h-13q-32 -2 -51 -14.5t-22 -33.5v-8
q0 -24 24 -37.5t96 -38.5q48 -16 75 -27t59 -29t48 -37.5t27 -49.5t11 -68q0 -10 -1 -21q-4 -63 -45 -109.5t-102.5 -68.5t-134.5 -21q-132 2 -290 78zM271 -55h151l-36 -153h-132z" />
    <glyph glyph-name="scommaaccent" unicode="&#x219;" horiz-adv-x="550" 
d="M26 40l41 114q96 -51 180 -52q35 0 57 9.5t24 26.5q1 2 1 5q0 15 -13.5 24t-39.5 17q-129 43 -178 79.5t-49 99.5q0 7 1 14q3 45 37.5 76.5t86.5 45.5t117 14q120 0 229 -42l-43 -118q-89 42 -158 46h-10q-27 0 -43.5 -8t-17.5 -22q-1 -20 16.5 -29.5t71.5 -25.5
q32 -10 56 -18.5t51 -22.5t43.5 -30.5t28 -40t11.5 -52.5q0 -8 -1 -16q-5 -49 -44.5 -82.5t-95.5 -47.5t-125 -13q-135 0 -234 49zM217 -52h150l-36 -153h-132z" />
    <glyph glyph-name="uni021A" unicode="&#x21a;" horiz-adv-x="638" 
d="M18 700h603v-148h-201v-552h-201v552h-201v148zM260 -52h151l-37 -153h-131z" />
    <glyph glyph-name="uni021B" unicode="&#x21b;" horiz-adv-x="528" 
d="M111 624h191v-124h169v-120h-169v-185q0 -70 63 -73h6q31 0 78 13l45 -120q-111 -25 -180 -25h-8q-195 2 -195 176v214h-95v120h95v124zM195 -52h151l-37 -153h-131z" />
    <glyph glyph-name="uni0228" unicode="&#x228;" horiz-adv-x="661" 
d="M80 700h532v-148h-331v-108h310v-148h-310v-148h336v-148h-301l-13 -20h23q48 0 78 -25t30 -59q0 -37 -25 -62t-60 -34t-79 -10q-61 0 -109 13l18 53q15 -4 39 -4q12 0 24 1q24 2 41 10.5t18 24.5v2q0 28 -42 28h-59l50 82h-170v700z" />
    <glyph glyph-name="uni0229" unicode="&#x229;" horiz-adv-x="584" 
d="M173 -87l55 89q-90 20 -141.5 82t-51.5 166q0 54 17.5 101t51 83.5t87.5 57t122 18.5q59 -2 104.5 -18.5t71 -39.5t41.5 -55.5t21 -61.5t5 -62q0 -17 -2 -36l-3 -24h-338q5 -45 45.5 -66.5t102.5 -22.5q68 0 144 25l24 -130q-105 -29 -192 -29l-49 2l-11 -17h23
q48 0 78 -25t30 -59q0 -37 -25 -62t-60 -34t-79 -10h-9q-52 0 -101 13l19 52q17 -4 42 -4q11 0 20 1q57 6 59 36v2q0 28 -41 28h-60zM213 298h168v11q0 78 -76 81q-44 2 -68 -23t-24 -69z" />
    <glyph glyph-name="uni022A" unicode="&#x22a;" horiz-adv-x="841" 
d="M270 1048h294v-102h-294v102zM289 909h4q32 0 52.5 -22t20.5 -51v-4q0 -29 -20.5 -51.5t-52.5 -22.5h-4q-33 0 -53.5 22.5t-20.5 51.5v4q0 29 20.5 51t53.5 22zM544 909h3q33 0 53.5 -22t20.5 -51v-4q0 -29 -20.5 -51.5t-53.5 -22.5h-3q-33 0 -53.5 22.5t-20.5 51.5v4
q0 29 20.5 51t53.5 22zM265 677q71 31 156 31t156 -30.5t116 -81t69.5 -114.5t24.5 -132t-24.5 -132t-69.5 -114.5t-116 -81t-156 -30.5t-156 30.5t-116 81t-69.5 114.5t-24.5 132t24.5 132t69.5 114.5t116 80.5zM533 505q-38 55 -112 55t-112.5 -54.5t-38.5 -155.5
t38.5 -155.5t112.5 -54.5t112.5 54.5t38.5 155.5t-39 155z" />
    <glyph glyph-name="uni022B" unicode="&#x22b;" 
d="M176 848h294v-102h-294v102zM195 712h3q33 0 53.5 -22t20.5 -51v-4q0 -30 -20.5 -52t-53.5 -22h-3q-33 0 -53.5 22t-20.5 52v4q0 29 20.5 51t53.5 22zM450 712h3q33 0 53.5 -22t20.5 -51v-4q0 -29 -20.5 -51.5t-53.5 -22.5h-3q-33 0 -53.5 22t-20.5 52v4q0 29 20.5 51
t53.5 22zM114 435q80 75 213 75t212.5 -75t79.5 -185t-79.5 -185t-212.5 -75t-212.5 75t-79.5 185t79 185zM401 353q-27 37 -74 37t-74 -37t-27 -103t27 -103t74 -37t74 37t27 103t-27 103z" />
    <glyph glyph-name="circumflex" unicode="&#x2c6;" horiz-adv-x="449" 
d="M136 750h177l114 -147h-132l-70 90l-71 -90h-131z" />
    <glyph glyph-name="caron" unicode="&#x2c7;" horiz-adv-x="448" 
d="M295 750h131l-113 -147h-177l-113 147h131l70 -91z" />
    <glyph glyph-name="breve" unicode="&#x2d8;" horiz-adv-x="435" 
d="M263 752h150v-20q0 -68 -57 -114.5t-138 -46.5t-138 46.5t-57 114.5v20h150v-33q0 -19 13 -31t32 -12t32 12t13 31v33z" />
    <glyph glyph-name="dotaccent" unicode="&#x2d9;" horiz-adv-x="195" 
d="M96 737h3q33 0 53.5 -22t20.5 -51v-4q0 -29 -20.5 -51t-53.5 -22h-3q-33 0 -53 22t-20 51v4q0 29 20 51t53 22z" />
    <glyph glyph-name="ring" unicode="&#x2da;" horiz-adv-x="359" 
d="M66 761q44 39 114 39t113.5 -38.5t43.5 -89t-43.5 -89.5t-113.5 -39t-113.5 39t-43.5 89.5t43 88.5zM219 709q-14 16 -39.5 16t-39.5 -15.5t-14 -37.5t14 -37.5t39.5 -15.5t39.5 15.5t14 37.5t-14 37z" />
    <glyph glyph-name="ogonek" unicode="&#x2db;" horiz-adv-x="288" 
d="M132 6h126q-106 -45 -106 -93q0 -4 1 -9q8 -25 41 -25h3q19 0 43 11l26 -71q-54 -25 -115 -28q-57 -2 -93 24t-35 75q0 26 15.5 48.5t31 33t38 22t24.5 12.5z" />
    <glyph glyph-name="tilde" unicode="&#x2dc;" horiz-adv-x="413" 
d="M54 589l-31 80q61 54 109 59q7 1 14 1q31 0 72 -17l25 -12q22 -10 41 -10q11 0 21 3q27 8 54 42l32 -84q-40 -49 -89 -60q-15 -4 -30 -4q-34 0 -72 16l-29 14q-26 10 -44 10h-8q-25 -4 -65 -38z" />
    <glyph glyph-name="hungarumlaut" unicode="&#x2dd;" horiz-adv-x="397" 
d="M83 750h118l-77 -151h-101zM256 750h119l-77 -151h-102z" />
    <glyph glyph-name="dotbelowcomb" unicode="&#x323;" horiz-adv-x="0" 
d="M96 -54h3q33 0 53.5 -22t20.5 -51v-5q0 -29 -20.5 -51t-53.5 -22h-3q-33 0 -53 22t-20 51v5q0 29 20 51t53 22z" />
    <glyph glyph-name="commaaccentcomb" unicode="&#x326;" horiz-adv-x="0" 
d="M40 -52h151l-36 -153h-132z" />
    <glyph glyph-name="circumflexbelowcomb" unicode="&#x32d;" horiz-adv-x="0" 
d="M133 -61h177l114 -147h-132l-70 91l-70 -91h-132z" />
    <glyph glyph-name="macronbelowcomb" unicode="&#x331;" horiz-adv-x="0" 
d="M23 -69h294v-103h-294v103z" />
    <glyph glyph-name="Bdotbelow" unicode="&#x1e04;" horiz-adv-x="724" 
d="M80 700h333q114 0 177.5 -54t63.5 -128q1 -52 -31 -95.5t-88 -63.5q67 -11 107 -59.5t39 -109.5q-1 -36 -17 -69.5t-47.5 -60.5t-82.5 -43.5t-116 -16.5h-338v700zM281 425h110q26 0 44.5 18.5t18.5 44.5q0 27 -19 45.5t-45 18.5h-109v-127zM280 148h123q27 0 45.5 18.5
t18.5 45t-19 45.5t-46 19h-122v-128zM350 -54h3q33 0 53.5 -22t20.5 -51v-5q0 -29 -20.5 -51t-53.5 -22h-3q-33 0 -53.5 22t-20.5 51v5q0 29 20.5 51t53.5 22z" />
    <glyph glyph-name="bdotbelow" unicode="&#x1e05;" horiz-adv-x="669" 
d="M47 699h191v-249q74 60 166 60q95 -1 163 -66t68 -177q0 -65 -23 -119t-60 -87.5t-83.5 -52t-96.5 -18.5q-97 0 -165 61l-7 -51h-153v699zM239 359v-210q40 -35 86 -34q48 1 82.5 37.5t34.5 97.5t-33.5 97t-83.5 37h-5q-41 0 -81 -25zM318 -54h3q33 0 53.5 -22t20.5 -51
v-5q0 -29 -20.5 -51t-53.5 -22h-3q-33 0 -53.5 22t-20.5 51v5q0 29 20.5 51t53.5 22z" />
    <glyph glyph-name="Ddotbelow" unicode="&#x1e0c;" horiz-adv-x="788" 
d="M80 700h306q83 0 150.5 -28.5t110 -77.5t65 -111.5t22.5 -132.5t-22.5 -132.5t-65 -111.5t-110 -77.5t-150.5 -28.5h-306v700zM281 148h82q82 0 126 56t44 146.5t-44 146t-126 55.5h-82v-404zM364 -54h4q33 0 53.5 -22t20.5 -51v-5q0 -29 -20.5 -51t-53.5 -22h-4
q-32 0 -52.5 22t-20.5 51v5q0 29 20.5 51t52.5 22z" />
    <glyph glyph-name="ddotbelow" unicode="&#x1e0d;" horiz-adv-x="669" 
d="M432 450v249h190v-699h-152l-8 51q-68 -61 -165 -61q-50 0 -96 18.5t-83.5 52t-60 87.5t-22.5 119q0 112 67.5 177t163.5 66q91 0 166 -60zM431 149v210q-41 25 -82 25h-5q-50 -1 -83 -37t-33 -97t34 -97.5t82 -37.5q46 -1 87 34zM332 -54h4q33 0 53.5 -22t20.5 -51v-5
q0 -29 -20.5 -51t-53.5 -22h-4q-32 0 -52.5 22t-20.5 51v5q0 29 20.5 51t52.5 22z" />
    <glyph glyph-name="Dlinebelow" unicode="&#x1e0e;" horiz-adv-x="788" 
d="M80 700h306q83 0 150.5 -28.5t110 -77.5t65 -111.5t22.5 -132.5t-22.5 -132.5t-65 -111.5t-110 -77.5t-150.5 -28.5h-306v700zM281 148h82q82 0 126 56t44 146.5t-44 146t-126 55.5h-82v-404zM221 -69h294v-103h-294v103z" />
    <glyph glyph-name="dlinebelow" unicode="&#x1e0f;" horiz-adv-x="669" 
d="M432 450v249h190v-699h-152l-8 51q-68 -61 -165 -61q-50 0 -96 18.5t-83.5 52t-60 87.5t-22.5 119q0 112 67.5 177t163.5 66q91 0 166 -60zM431 149v210q-41 25 -82 25h-5q-50 -1 -83 -37t-33 -97t34 -97.5t82 -37.5q46 -1 87 34zM189 -69h294v-103h-294v103z" />
    <glyph glyph-name="Dcircumflexbelow" unicode="&#x1e12;" horiz-adv-x="788" 
d="M80 700h306q83 0 150.5 -28.5t110 -77.5t65 -111.5t22.5 -132.5t-22.5 -132.5t-65 -111.5t-110 -77.5t-150.5 -28.5h-306v700zM281 148h82q82 0 126 56t44 146.5t-44 146t-126 55.5h-82v-404zM279 -61h177l113 -147h-131l-70 91l-71 -91h-131z" />
    <glyph glyph-name="dcircumflexbelow" unicode="&#x1e13;" horiz-adv-x="669" 
d="M432 450v249h190v-699h-152l-8 51q-68 -61 -165 -61q-50 0 -96 18.5t-83.5 52t-60 87.5t-22.5 119q0 112 67.5 177t163.5 66q91 0 166 -60zM431 149v210q-41 25 -82 25h-5q-50 -1 -83 -37t-33 -97t34 -97.5t82 -37.5q46 -1 87 34zM247 -61h177l113 -147h-131l-70 91
l-71 -91h-131z" />
    <glyph glyph-name="Hdotbelow" unicode="&#x1e24;" horiz-adv-x="804" 
d="M524 700h201v-700h-201v288h-243v-288h-201v700h201v-264h243v264zM398 -54h3q33 0 53.5 -22t20.5 -51v-5q0 -29 -20.5 -51t-53.5 -22h-3q-33 0 -53.5 22t-20.5 51v5q0 29 20.5 51t53.5 22z" />
    <glyph glyph-name="hdotbelow" unicode="&#x1e25;" horiz-adv-x="649" 
d="M52 700h191v-278q28 40 78.5 64t105.5 24q76 0 128.5 -48.5t52.5 -145.5v-316h-191v305q0 41 -22.5 60.5t-56.5 18.5q-27 0 -53 -11.5t-42 -30.5v-342h-191v700zM326 -54h4q33 0 53.5 -22t20.5 -51v-5q0 -29 -20.5 -51t-53.5 -22h-4q-32 0 -52.5 22t-20.5 51v5
q0 29 20.5 51t52.5 22z" />
    <glyph glyph-name="Idieresisacute" unicode="&#x1e2e;" horiz-adv-x="359" 
d="M139 1099h149l-77 -151h-132zM50 921h3q33 0 53.5 -22t20.5 -51v-4q0 -29 -20.5 -51t-53.5 -22h-3q-33 0 -53.5 22t-20.5 51v4q0 29 20.5 51t53.5 22zM305 921h3q33 0 53.5 -22t20.5 -51v-4q0 -29 -20.5 -51.5t-53.5 -22.5h-3q-33 0 -53.5 22.5t-20.5 51.5v4
q0 29 20.5 51t53.5 22zM81 700h201v-700h-201v700z" />
    <glyph glyph-name="idieresisacute" unicode="&#x1e2f;" horiz-adv-x="289" 
d="M106 905h149l-77 -151h-132zM17 726h3q33 0 53.5 -22t20.5 -52v-4q0 -29 -20.5 -51t-53.5 -22h-3q-33 0 -53.5 22t-20.5 51v4q0 30 20.5 52t53.5 22zM271 726h4q33 0 53.5 -22t20.5 -52v-4q0 -29 -20.5 -51t-53.5 -22h-4q-32 0 -52.5 22t-20.5 51v4q0 30 20.5 52t52.5 22
zM52 500h191v-500h-191v500z" />
    <glyph glyph-name="Ldotbelow" unicode="&#x1e36;" horiz-adv-x="607" 
d="M80 0v700h201v-552h309v-148h-510zM317 -54h3q33 0 53.5 -22t20.5 -51v-5q0 -29 -20.5 -51t-53.5 -22h-3q-33 0 -53 22t-20 51v5q0 29 20 51t53 22z" />
    <glyph glyph-name="ldotbelow" unicode="&#x1e37;" horiz-adv-x="284" 
d="M52 700h191v-700h-191v700zM141 -54h4q33 0 53.5 -22t20.5 -51v-5q0 -29 -20.5 -51t-53.5 -22h-4q-32 0 -52.5 22t-20.5 51v5q0 29 20.5 51t52.5 22z" />
    <glyph glyph-name="Lcircumflexbelow" unicode="&#x1e3c;" horiz-adv-x="607" 
d="M80 0v700h201v-552h309v-148h-510zM232 -61h176l114 -147h-132l-70 91l-70 -91h-132z" />
    <glyph glyph-name="lcircumflexbelow" unicode="&#x1e3d;" horiz-adv-x="284" 
d="M53 700h191v-700h-191v700zM57 -61h177l113 -147h-131l-71 91l-70 -91h-132z" />
    <glyph glyph-name="Macute" unicode="&#x1e3e;" horiz-adv-x="1034" 
d="M470 950h149l-77 -151h-132zM704 700h251v-700h-201v404l-191 -404h-101l-187 404v-404h-201v700h251l187 -392z" />
    <glyph glyph-name="macute" unicode="&#x1e3f;" horiz-adv-x="971" 
d="M441 750h149l-77 -151h-132zM238 500v-77q29 41 73.5 64t92.5 24q49 0 91 -23t66 -67q74 88 189 90q74 1 127 -50t53 -145v-316h-191v305q0 40 -20 60t-51 20q-51 -1 -86 -43q2 -15 2 -26v-316h-191v305q0 40 -20 60t-51 20q-49 -1 -84 -41v-344h-191v500h191z" />
    <glyph glyph-name="Ndotaccent" unicode="&#x1e44;" horiz-adv-x="797" 
d="M392 937h4q33 0 53.5 -22t20.5 -51v-4q0 -29 -20.5 -51t-53.5 -22h-4q-32 0 -52.5 22t-20.5 51v4q0 29 20.5 51t52.5 22zM523 700h201v-700h-195l-254 382v-382h-201v700h197l252 -385v385z" />
    <glyph glyph-name="ndotaccent" unicode="&#x1e45;" horiz-adv-x="644" 
d="M318 737h4q33 0 53.5 -22t20.5 -51v-4q0 -29 -20.5 -51t-53.5 -22h-4q-32 0 -52.5 22t-20.5 51v4q0 29 20.5 51t52.5 22zM238 500v-78q28 40 78.5 64t105.5 24q76 0 128.5 -48.5t52.5 -145.5v-316h-191v305q0 41 -22.5 60.5t-56.5 18.5q-27 0 -53 -11.5t-42 -30.5v-342
h-191v500h191z" />
    <glyph glyph-name="Ndotbelow" unicode="&#x1e46;" horiz-adv-x="797" 
d="M523 700h201v-700h-195l-254 382v-382h-201v700h197l252 -385v385zM390 -54h3q33 0 53.5 -22t20.5 -51v-5q0 -29 -20.5 -51t-53.5 -22h-3q-33 0 -53 22t-20 51v5q0 29 20 51t53 22z" />
    <glyph glyph-name="ndotbelow" unicode="&#x1e47;" horiz-adv-x="644" 
d="M238 500v-78q28 40 78.5 64t105.5 24q76 0 128.5 -48.5t52.5 -145.5v-316h-191v305q0 41 -22.5 60.5t-56.5 18.5q-27 0 -53 -11.5t-42 -30.5v-342h-191v500h191zM316 -54h3q33 0 53.5 -22t20.5 -51v-5q0 -29 -20.5 -51t-53.5 -22h-3q-33 0 -53.5 22t-20.5 51v5
q0 29 20.5 51t53.5 22z" />
    <glyph glyph-name="Ncircumflexbelow" unicode="&#x1e4a;" horiz-adv-x="797" 
d="M523 700h201v-700h-195l-254 382v-382h-201v700h197l252 -385v385zM305 -61h176l114 -147h-132l-70 91l-70 -91h-132z" />
    <glyph glyph-name="ncircumflexbelow" unicode="&#x1e4b;" horiz-adv-x="644" 
d="M238 500v-78q28 40 78.5 64t105.5 24q76 0 128.5 -48.5t52.5 -145.5v-316h-191v305q0 41 -22.5 60.5t-56.5 18.5q-27 0 -53 -11.5t-42 -30.5v-342h-191v500h191zM230 -61h177l114 -147h-132l-70 91l-70 -91h-132z" />
    <glyph glyph-name="Otildeacute" unicode="&#x1e4c;" horiz-adv-x="841" 
d="M265 677q71 31 156 31t156 -30.5t116 -81t69.5 -114.5t24.5 -132t-24.5 -132t-69.5 -114.5t-116 -81t-156 -30.5t-156 30.5t-116 81t-69.5 114.5t-24.5 132t24.5 132t69.5 114.5t116 80.5zM533 505q-38 55 -112 55t-112.5 -54.5t-38.5 -155.5t38.5 -155.5t112.5 -54.5
t112.5 54.5t38.5 155.5t-39 155zM266 740l-31 79q61 54 109 60h14q30 0 72 -17l25 -12q22 -10 41 -10q11 0 21 3q27 8 54 42l32 -84q-40 -49 -89 -60q-15 -3 -31 -3q-34 0 -71 16l-29 13q-26 11 -44 11q-4 0 -8 -1q-25 -3 -65 -37zM379 1055h149l-77 -151h-132z" />
    <glyph glyph-name="otildeacute" unicode="&#x1e4d;" 
d="M114 435q80 75 213 75t212.5 -75t79.5 -185t-79.5 -185t-212.5 -75t-212.5 75t-79.5 185t79 185zM401 353q-27 37 -74 37t-74 -37t-27 -103t27 -103t74 -37t74 37t27 103t-27 103zM171 540l-30 79q61 54 109 59q7 1 14 1q30 0 72 -17l25 -12q22 -10 41 -10q11 0 21 3
q27 8 54 42l32 -84q-40 -49 -89 -60q-15 -3 -31 -3q-34 0 -71 16l-29 13q-26 10 -44 10h-8q-25 -3 -66 -37zM285 851h149l-77 -151h-132z" />
    <glyph glyph-name="Omacrongrave" unicode="&#x1e50;" horiz-adv-x="841" 
d="M319 1048h149l60 -152h-132zM270 861h294v-102h-294v102zM265 677q71 31 156 31t156 -30.5t116 -81t69.5 -114.5t24.5 -132t-24.5 -132t-69.5 -114.5t-116 -81t-156 -30.5t-156 30.5t-116 81t-69.5 114.5t-24.5 132t24.5 132t69.5 114.5t116 80.5zM533 505
q-38 55 -112 55t-112.5 -54.5t-38.5 -155.5t38.5 -155.5t112.5 -54.5t112.5 54.5t38.5 155.5t-39 155z" />
    <glyph glyph-name="omacrongrave" unicode="&#x1e51;" 
d="M225 851h149l60 -151h-132zM176 664h294v-103h-294v103zM114 435q80 75 213 75t212.5 -75t79.5 -185t-79.5 -185t-212.5 -75t-212.5 75t-79.5 185t79 185zM401 353q-27 37 -74 37t-74 -37t-27 -103t27 -103t74 -37t74 37t27 103t-27 103z" />
    <glyph glyph-name="Omacronacute" unicode="&#x1e52;" horiz-adv-x="841" 
d="M379 1048h149l-77 -152h-132zM270 861h294v-102h-294v102zM265 677q71 31 156 31t156 -30.5t116 -81t69.5 -114.5t24.5 -132t-24.5 -132t-69.5 -114.5t-116 -81t-156 -30.5t-156 30.5t-116 81t-69.5 114.5t-24.5 132t24.5 132t69.5 114.5t116 80.5zM533 505
q-38 55 -112 55t-112.5 -54.5t-38.5 -155.5t38.5 -155.5t112.5 -54.5t112.5 54.5t38.5 155.5t-39 155z" />
    <glyph glyph-name="omacronacute" unicode="&#x1e53;" 
d="M285 851h149l-77 -151h-132zM176 664h294v-103h-294v103zM114 435q80 75 213 75t212.5 -75t79.5 -185t-79.5 -185t-212.5 -75t-212.5 75t-79.5 185t79 185zM401 353q-27 37 -74 37t-74 -37t-27 -103t27 -103t74 -37t74 37t27 103t-27 103z" />
    <glyph glyph-name="Sdotbelow" unicode="&#x1e62;" horiz-adv-x="668" 
d="M48 69l58 145q39 -25 92.5 -43.5t100.5 -22.5q13 -2 24 -2q81 0 86 51v7q0 21 -15 34.5t-55 26.5q-109 36 -169 72t-80.5 72t-20.5 87q0 9 1 20q3 50 27.5 88t64.5 60.5t88 34t103 11.5q137 0 262 -55l-58 -148q-112 47 -190 47h-13q-32 -2 -51 -14.5t-22 -33.5v-8
q0 -24 24 -37.5t96 -38.5q48 -16 75 -27t59 -29t48 -37.5t27 -49.5t11 -68q0 -10 -1 -21q-4 -63 -45 -109.5t-102.5 -68.5t-134.5 -21q-132 2 -290 78zM336 -58h3q33 0 53.5 -22t20.5 -51v-4q0 -29 -20.5 -51t-53.5 -22h-3q-33 0 -53.5 22t-20.5 51v4q0 29 20.5 51t53.5 22z
" />
    <glyph glyph-name="sdotbelow" unicode="&#x1e63;" horiz-adv-x="550" 
d="M26 40l41 114q96 -51 180 -52q35 0 57 9.5t24 26.5q1 2 1 5q0 15 -13.5 24t-39.5 17q-129 43 -178 79.5t-49 99.5q0 7 1 14q3 45 37.5 76.5t86.5 45.5t117 14q120 0 229 -42l-43 -118q-89 42 -158 46h-10q-27 0 -43.5 -8t-17.5 -22q-1 -20 16.5 -29.5t71.5 -25.5
q32 -10 56 -18.5t51 -22.5t43.5 -30.5t28 -40t11.5 -52.5q0 -8 -1 -16q-5 -49 -44.5 -82.5t-95.5 -47.5t-125 -13q-135 0 -234 49zM281 -54h3q33 0 53.5 -22t20.5 -51v-5q0 -29 -20.5 -51t-53.5 -22h-3q-32 0 -52.5 22t-20.5 51v5q0 29 20.5 51t52.5 22z" />
    <glyph glyph-name="Tdotbelow" unicode="&#x1e6c;" horiz-adv-x="638" 
d="M18 700h603v-148h-201v-552h-201v552h-201v148zM325 -54h3q33 0 53.5 -22t20.5 -51v-5q0 -29 -20.5 -51t-53.5 -22h-3q-33 0 -53.5 22t-20.5 51v5q0 29 20.5 51t53.5 22z" />
    <glyph glyph-name="tdotbelow" unicode="&#x1e6d;" horiz-adv-x="528" 
d="M111 624h191v-124h169v-120h-169v-185q0 -70 63 -73h6q31 0 78 13l45 -120q-111 -25 -180 -25h-8q-195 2 -195 176v214h-95v120h95v124zM260 -54h3q33 0 53.5 -22t20.5 -51v-5q0 -29 -20.5 -51t-53.5 -22h-3q-33 0 -53.5 22t-20.5 51v5q0 29 20.5 51t53.5 22z" />
    <glyph glyph-name="Tlinebelow" unicode="&#x1e6e;" horiz-adv-x="638" 
d="M18 700h603v-148h-201v-552h-201v552h-201v148zM181 -69h294v-103h-294v103z" />
    <glyph glyph-name="tlinebelow" unicode="&#x1e6f;" horiz-adv-x="528" 
d="M111 624h191v-124h169v-120h-169v-185q0 -70 63 -73h6q31 0 78 13l45 -120q-111 -25 -180 -25h-8q-195 2 -195 176v214h-95v120h95v124zM116 -69h294v-103h-294v103z" />
    <glyph glyph-name="Tcircumflexbelow" unicode="&#x1e70;" horiz-adv-x="638" 
d="M18 700h603v-148h-201v-552h-201v552h-201v148zM239 -61h177l114 -147h-132l-70 91l-71 -91h-131z" />
    <glyph glyph-name="tcircumflexbelow" unicode="&#x1e71;" horiz-adv-x="528" 
d="M111 624h191v-124h169v-120h-169v-185q0 -70 63 -73h6q31 0 78 13l45 -120q-111 -25 -180 -25h-8q-195 2 -195 176v214h-95v120h95v124zM174 -61h177l114 -147h-132l-70 91l-70 -91h-132z" />
    <glyph glyph-name="Wgrave" unicode="&#x1e80;" horiz-adv-x="1101" 
d="M451 950h149l59 -151h-131zM880 700h204l-188 -700h-226l-119 405l-119 -405h-226l-188 700h205l107 -456l128 456h187l127 -456z" />
    <glyph glyph-name="wgrave" unicode="&#x1e81;" horiz-adv-x="922" 
d="M365 750h149l60 -151h-132zM716 500h195l-178 -500h-171l-101 292l-101 -292h-171l-178 500h195l80 -309l93 309h164l93 -309z" />
    <glyph glyph-name="Wacute" unicode="&#x1e82;" horiz-adv-x="1101" 
d="M511 950h148l-77 -151h-132zM880 700h204l-188 -700h-226l-119 405l-119 -405h-226l-188 700h205l107 -456l128 456h187l127 -456z" />
    <glyph glyph-name="wacute" unicode="&#x1e83;" horiz-adv-x="922" 
d="M425 750h149l-77 -151h-132zM716 500h195l-178 -500h-171l-101 292l-101 -292h-171l-178 500h195l80 -309l93 309h164l93 -309z" />
    <glyph glyph-name="Wdieresis" unicode="&#x1e84;" horiz-adv-x="1101" 
d="M421 937h3q33 0 53.5 -22t20.5 -51v-4q0 -29 -20.5 -51t-53.5 -22h-3q-33 0 -53.5 22t-20.5 51v4q0 29 20.5 51t53.5 22zM676 937h3q33 0 53.5 -22t20.5 -51v-4q0 -29 -20.5 -51t-53.5 -22h-3q-33 0 -53.5 22t-20.5 51v4q0 29 20.5 51t53.5 22zM880 700h204l-188 -700
h-226l-119 405l-119 -405h-226l-188 700h205l107 -456l128 456h187l127 -456z" />
    <glyph glyph-name="wdieresis" unicode="&#x1e85;" horiz-adv-x="922" 
d="M335 737h4q33 0 53 -22t20 -51v-4q0 -29 -20 -51t-53 -22h-4q-33 0 -53 22t-20 51v4q0 29 20 51t53 22zM590 737h4q33 0 53 -22t20 -51v-4q0 -29 -20.5 -51t-52.5 -22h-4q-33 0 -53.5 22t-20.5 51v4q0 29 20.5 51t53.5 22zM716 500h195l-178 -500h-171l-101 292
l-101 -292h-171l-178 500h195l80 -309l93 309h164l93 -309z" />
    <glyph glyph-name="Zdotbelow" unicode="&#x1e92;" horiz-adv-x="661" 
d="M67 700h536v-92l-310 -460h321v-148h-566v92l310 460h-291v148zM333 -54h4q33 0 53.5 -22t20.5 -51v-5q0 -29 -21 -51t-54 -22h-3q-32 0 -52.5 22t-20.5 51v5q0 29 20.5 51t52.5 22z" />
    <glyph glyph-name="zdotbelow" unicode="&#x1e93;" horiz-adv-x="534" 
d="M38 500h462v-86l-226 -278h236v-136h-484v86l226 278h-214v136zM260 -54h3q33 0 53.5 -22t20.5 -51v-5q0 -29 -20.5 -51t-53.5 -22h-3q-33 0 -53.5 22t-20.5 51v5q0 29 20.5 51t53.5 22z" />
    <glyph glyph-name="adotbelow" unicode="&#x1ea1;" horiz-adv-x="562" 
d="M73 353l-23 120q110 36 223 37q51 1 93.5 -7.5t78 -27t56 -53t20.5 -82.5v-340h-153l-8 53q-76 -63 -169 -63q-69 1 -116 41t-49 111q0 36 10 64.5t31 46t45 29.5t59 17.5t64.5 7.5t69.5 2h38v27q0 51 -93 51q-4 0 -8 -1q-84 -2 -169 -33zM290 -54h3q33 0 54 -22t21 -51
v-5q0 -29 -21 -51t-54 -22h-3q-32 0 -52.5 22t-20.5 51v5q0 29 20.5 51t52.5 22zM343 141v86h-47q-49 0 -74 -12.5t-25 -46.5v-9q3 -25 22.5 -38t47.5 -13q51 0 76 33z" />
    <glyph glyph-name="Acircumflexdotbelow" unicode="&#x1eac;" horiz-adv-x="766" 
d="M295 950h177l114 -147h-132l-70 90l-71 -90h-131zM276 700h215l258 -700h-203l-47 144h-231l-47 -144h-203zM462 262l-78 239l-79 -239h157zM381 -54h4q33 0 53.5 -22t20.5 -51v-5q0 -29 -20.5 -51t-53.5 -22h-4q-32 0 -52.5 22t-20.5 51v5q0 29 20.5 51t52.5 22z" />
    <glyph glyph-name="acircumflexdotbelow" unicode="&#x1ead;" horiz-adv-x="562" 
d="M73 353l-23 120q110 36 223 37q51 1 93.5 -7.5t78 -27t56 -53t20.5 -82.5v-340h-153l-8 53q-76 -63 -169 -63q-69 1 -116 41t-49 111q0 36 10 64.5t31 46t45 29.5t59 17.5t64.5 7.5t69.5 2h38v27q0 51 -93 51q-4 0 -8 -1q-84 -2 -169 -33zM199 750h176l114 -147h-132
l-70 90l-70 -90h-132zM290 -54h3q33 0 53.5 -22t20.5 -51v-5q0 -29 -20.5 -51t-53.5 -22h-3q-32 0 -52.5 22t-20.5 51v5q0 29 20.5 51t52.5 22zM343 141v86h-47q-49 0 -74 -12.5t-25 -46.5v-9q3 -25 22.5 -38t47.5 -13q51 0 76 33z" />
    <glyph glyph-name="Edotbelow" unicode="&#x1eb8;" horiz-adv-x="661" 
d="M80 0v700h532v-148h-331v-108h310v-148h-310v-148h336v-148h-537zM318 -54h3q33 0 53.5 -22t20.5 -51v-5q0 -29 -20.5 -51t-53.5 -22h-3q-33 0 -53.5 22t-20.5 51v5q0 29 20.5 51t53.5 22z" />
    <glyph glyph-name="edotbelow" unicode="&#x1eb9;" horiz-adv-x="584" 
d="M505 149l24 -130q-105 -29 -192 -29q-65 0 -118.5 14.5t-95.5 45t-65 81.5t-23 119q0 54 17.5 101t51 83.5t87.5 57t122 18.5q59 -2 104.5 -18.5t71 -39.5t41.5 -55.5t21 -61.5t5 -62q0 -17 -2 -36l-3 -24h-338q5 -45 45.5 -66.5t102.5 -22.5q68 0 144 25zM291 -54h4
q33 0 53.5 -22t20.5 -51v-5q0 -29 -20.5 -51t-53.5 -22h-4q-32 0 -52.5 22t-20.5 51v5q0 29 20.5 51t52.5 22zM213 298h168v11q0 78 -76 81q-44 2 -68 -23t-24 -69z" />
    <glyph glyph-name="Etilde" unicode="&#x1ebc;" horiz-adv-x="661" 
d="M80 0v700h532v-148h-331v-108h310v-148h-310v-148h336v-148h-537zM164 789l-31 80q62 54 110 59q7 1 13 1q31 0 73 -17l24 -12q23 -10 42 -10q11 0 21 3q27 8 53 42l32 -84q-39 -49 -88 -60q-15 -4 -31 -4q-34 0 -71 16l-29 14q-27 10 -44 10h-8q-26 -4 -66 -38z" />
    <glyph glyph-name="etilde" unicode="&#x1ebd;" horiz-adv-x="584" 
d="M505 149l24 -130q-105 -29 -192 -29q-65 0 -118.5 14.5t-95.5 45t-65 81.5t-23 119q0 54 17.5 101t51 83.5t87.5 57t122 18.5q59 -2 104.5 -18.5t71 -39.5t41.5 -55.5t21 -61.5t5 -62q0 -17 -2 -36l-3 -23h-338q5 -46 45.5 -67.5t102.5 -22.5q68 0 144 25zM138 589
l-31 80q62 54 109 59q7 1 14 1q31 0 72 -17l25 -12q23 -10 41 -10q11 0 21 3q28 8 54 42l32 -84q-40 -49 -89 -60q-15 -4 -30 -4q-34 0 -72 16l-29 14q-26 10 -43 10h-9q-25 -4 -65 -38zM213 298h168v11q0 78 -76 81q-44 2 -68 -23t-24 -69z" />
    <glyph glyph-name="Ecircumflexdotbelow" unicode="&#x1ec6;" horiz-adv-x="661" 
d="M231 950h177l114 -147h-132l-70 90l-71 -90h-131zM80 0v700h532v-148h-331v-108h310v-148h-310v-148h336v-148h-537zM318 -54h3q33 0 53.5 -22t20.5 -51v-5q0 -29 -20.5 -51t-53.5 -22h-3q-33 0 -53.5 22t-20.5 51v5q0 29 20.5 51t53.5 22z" />
    <glyph glyph-name="ecircumflexdotbelow" unicode="&#x1ec7;" horiz-adv-x="584" 
d="M505 149l24 -130q-105 -29 -192 -29q-65 0 -118.5 14.5t-95.5 45t-65 81.5t-23 119q0 54 17.5 101t51 83.5t87.5 57t122 18.5q59 -2 104.5 -18.5t71 -39.5t41.5 -55.5t21 -61.5t5 -62q0 -17 -2 -36l-3 -24h-338q5 -45 45.5 -66.5t102.5 -22.5q68 0 144 25zM205 750h177
l113 -147h-132l-70 90l-70 -90h-132zM291 -54h4q33 0 53.5 -22t20.5 -51v-5q0 -29 -20.5 -51t-53.5 -22h-4q-32 0 -52.5 22t-20.5 51v5q0 29 20.5 51t52.5 22zM213 298h168v11q0 78 -76 81q-44 2 -68 -23t-24 -69z" />
    <glyph glyph-name="Idotbelow" unicode="&#x1eca;" horiz-adv-x="359" 
d="M80 700h201v-700h-201v700zM175 -54h3q33 0 54 -22t21 -51v-5q0 -29 -21 -51t-54 -22h-3q-32 0 -52.5 22t-20.5 51v5q0 29 20.5 51t52.5 22z" />
    <glyph glyph-name="idotbelow" unicode="&#x1ecb;" horiz-adv-x="291" 
d="M147 700h4q41 0 67.5 -20.5t26.5 -47.5v-16q0 -26 -26.5 -46.5t-67.5 -20.5h-4q-42 0 -68.5 20.5t-26.5 46.5v16q0 27 26.5 47.5t68.5 20.5zM53 500h191v-500h-191v500zM146 -54h3q33 0 53.5 -22t20.5 -51v-5q0 -29 -20.5 -51t-53.5 -22h-3q-33 0 -53 22t-20 51v5
q0 29 20 51t53 22z" />
    <glyph glyph-name="Odotbelow" unicode="&#x1ecc;" horiz-adv-x="841" 
d="M265 677q71 31 156 31t156 -30.5t116 -81t69.5 -114.5t24.5 -132t-24.5 -132t-69.5 -114.5t-116 -81t-156 -30.5t-156 30.5t-116 81t-69.5 114.5t-24.5 132t24.5 132t69.5 114.5t116 80.5zM533 505q-38 55 -112 55t-112.5 -54.5t-38.5 -155.5t38.5 -155.5t112.5 -54.5
t112.5 54.5t38.5 155.5t-39 155zM419 -54h3q33 0 53.5 -22t20.5 -51v-5q0 -29 -20.5 -51t-53.5 -22h-3q-33 0 -53 22t-20 51v5q0 29 20 51t53 22z" />
    <glyph glyph-name="odotbelow" unicode="&#x1ecd;" 
d="M114 435q80 75 213 75t212.5 -75t79.5 -185t-79.5 -185t-212.5 -75t-212.5 75t-79.5 185t79 185zM401 353q-27 37 -74 37t-74 -37t-27 -103t27 -103t74 -37t74 37t27 103t-27 103zM325 -54h3q33 0 53.5 -22t20.5 -51v-5q0 -29 -20.5 -51t-53.5 -22h-3q-33 0 -53 22
t-20 51v5q0 29 20 51t53 22z" />
    <glyph glyph-name="Ocircumflexdotbelow" unicode="&#x1ed8;" horiz-adv-x="841" 
d="M333 950h176l114 -147h-132l-70 90l-70 -90h-132zM265 677q71 31 156 31t156 -30.5t116 -81t69.5 -114.5t24.5 -132t-24.5 -132t-69.5 -114.5t-116 -81t-156 -30.5t-156 30.5t-116 81t-69.5 114.5t-24.5 132t24.5 132t69.5 114.5t116 80.5zM533 505q-38 55 -112 55
t-112.5 -54.5t-38.5 -155.5t38.5 -155.5t112.5 -54.5t112.5 54.5t38.5 155.5t-39 155zM419 -54h3q33 0 53.5 -22t20.5 -51v-5q0 -29 -20.5 -51t-53.5 -22h-3q-33 0 -53 22t-20 51v5q0 29 20 51t53 22z" />
    <glyph glyph-name="ocircumflexdotbelow" unicode="&#x1ed9;" 
d="M238 750h177l114 -147h-132l-70 90l-70 -90h-132zM114 435q80 75 213 75t212.5 -75t79.5 -185t-79.5 -185t-212.5 -75t-212.5 75t-79.5 185t79 185zM401 353q-27 37 -74 37t-74 -37t-27 -103t27 -103t74 -37t74 37t27 103t-27 103zM325 -54h3q33 0 53.5 -22t20.5 -51v-5
q0 -29 -20.5 -51t-53.5 -22h-3q-33 0 -53 22t-20 51v5q0 29 20 51t53 22z" />
    <glyph glyph-name="Udotbelow" unicode="&#x1ee4;" horiz-adv-x="778" 
d="M504 700h201v-450q0 -113 -81 -186.5t-231.5 -73.5t-231.5 73.5t-81 186.5v450h201v-450q0 -59 28 -85.5t83.5 -26.5t83.5 26.5t28 85.5v450zM390 -54h3q33 0 54 -22t21 -51v-5q0 -29 -21 -51t-54 -22h-3q-32 0 -52.5 22t-20.5 51v5q0 29 20.5 51t52.5 22z" />
    <glyph glyph-name="udotbelow" unicode="&#x1ee5;" horiz-adv-x="639" 
d="M407 500h191v-500h-191v78q-28 -40 -78.5 -64t-105.5 -24q-77 0 -129 48.5t-52 145.5v316h191v-305q0 -41 22.5 -60.5t56.5 -18.5q27 0 53 11.5t42 30.5v342zM328 -54h4q33 0 53.5 -22t20.5 -51v-5q0 -29 -20.5 -51t-53.5 -22h-4q-32 0 -52.5 22t-20.5 51v5q0 29 20.5 51
t52.5 22z" />
    <glyph glyph-name="Ygrave" unicode="&#x1ef2;" horiz-adv-x="773" 
d="M285 950h149l60 -151h-132zM538 700h218l-268 -426v-274h-201v274l-269 426h218l151 -265z" />
    <glyph glyph-name="ygrave" unicode="&#x1ef3;" horiz-adv-x="664" 
d="M224 750h149l59 -151h-131zM458 500h196l-233 -538q-59 -138 -187 -163q-26 -5 -55 -5q-65 0 -136 23l43 116q51 -11 82 -11q16 0 29 3q20 4 33 16.5t24 36.5l10 22l-248 500h199l130 -306z" />
    <glyph glyph-name="endash" unicode="&#x2013;" horiz-adv-x="550" 
d="M34 364h484v-146h-484v146z" />
    <glyph glyph-name="emdash" unicode="&#x2014;" horiz-adv-x="590" 
d="M30 364h532v-146h-532v146z" />
    <glyph glyph-name="quoteleft" unicode="&#x2018;" horiz-adv-x="262" 
d="M87 808h154l-31 -258h-187z" />
    <glyph glyph-name="quoteright" unicode="&#x2019;" horiz-adv-x="263" 
d="M53 808h188l-64 -258h-154z" />
    <glyph glyph-name="quotesinglbase" unicode="&#x201a;" horiz-adv-x="263" 
d="M53 140h188l-64 -257h-154z" />
    <glyph glyph-name="quotedblleft" unicode="&#x201c;" horiz-adv-x="514" 
d="M87 808h154l-31 -258h-187zM338 808h154l-30 -258h-188z" />
    <glyph glyph-name="quotedblright" unicode="&#x201d;" horiz-adv-x="513" 
d="M53 808h188l-64 -258h-154zM305 808h187l-64 -258h-154z" />
    <glyph glyph-name="quotedblbase" unicode="&#x201e;" horiz-adv-x="514" 
d="M53 140h188l-64 -257h-154zM305 140h187l-64 -257h-154z" />
    <glyph glyph-name="dagger" unicode="&#x2020;" horiz-adv-x="559" 
d="M179 702h201v-174h148v-147h-148v-507h-201v507h-147v147h147v174z" />
    <glyph glyph-name="daggerdbl" unicode="&#x2021;" horiz-adv-x="559" 
d="M179 701h201v-174h148v-148h-148v-185h148v-147h-148v-174h-201v174h-147v147h147v185h-147v148h147v174z" />
    <glyph glyph-name="bullet" unicode="&#x2022;" horiz-adv-x="347" 
d="M66 359q43 38 108 38t108.5 -37.5t43.5 -87t-43.5 -87.5t-108.5 -38t-108 38t-43 87.5t43 86.5z" />
    <glyph glyph-name="ellipsis" unicode="&#x2026;" horiz-adv-x="734" 
d="M348 204h4q44 0 71.5 -21.5t27.5 -50.5v-59q0 -29 -27.5 -51t-71.5 -22h-4q-34 0 -58.5 13.5t-34.5 34.5q-11 -21 -35.5 -34.5t-58.5 -13.5h-4q-44 0 -71.5 22t-27.5 51v59q0 29 27.5 50.5t71.5 21.5h4q34 0 58.5 -13.5t35.5 -34.5q10 21 34.5 34.5t58.5 13.5zM592 204h4
q44 0 71.5 -21.5t27.5 -50.5v-59q0 -29 -27.5 -51t-71.5 -22h-4q-45 0 -72 22t-27 51v59q0 29 27 50.5t72 21.5z" />
    <glyph glyph-name="perthousand" unicode="&#x2030;" horiz-adv-x="1425" 
d="M621 713h178l-439 -727h-178zM79 646q56 54 147.5 54t147 -53.5t55.5 -129t-55.5 -128.5t-147 -53t-147.5 53t-56 128.5t56 128.5zM268 580q-15 22 -42 22t-42.5 -22t-15.5 -62t15.5 -62t42.5 -22t42.5 22t15.5 62t-16 62zM609 311q56 53 147.5 53t147.5 -53t56 -129
t-56 -129t-147.5 -53t-147.5 53t-56 129t56 129zM1053 311q56 53 147.5 53t147.5 -53t56 -129t-56 -129t-147.5 -53t-147.5 53t-56 129t56 129zM799 244q-16 22 -42.5 22t-42.5 -22t-16 -62t16 -62t42.5 -22t42.5 22t16 62t-16 62zM1243 244q-16 22 -42.5 22t-42.5 -22
t-16 -62t16 -62t42.5 -22t42.5 22t16 62t-16 62z" />
    <glyph glyph-name="guilsinglleft" unicode="&#x2039;" horiz-adv-x="407" 
d="M23 259l241 277l121 -106l-149 -171l149 -170l-121 -106z" />
    <glyph glyph-name="guilsinglright" unicode="&#x203a;" horiz-adv-x="407" 
d="M23 430l120 106l242 -277l-242 -276l-120 106l149 170z" />
    <glyph glyph-name="fraction" unicode="&#x2044;" horiz-adv-x="663" 
d="M462 713h179l-440 -727h-178z" />
    <glyph glyph-name="Euro" unicode="&#x20ac;" horiz-adv-x="706" 
d="M23 483h88q41 105 140 164.5t223 59.5q111 1 210 -48l-50 -135q-86 36 -160 36h-12q-95 -4 -138 -77h305v-108h-341q-1 -13 -1 -26q0 -15 1 -27h293v-108h-251q34 -63 106 -71q18 -3 38 -3q74 0 160 36l50 -135q-100 -50 -210 -48q-123 1 -221 59.5t-140 161.5h-90v108
h64v24q-1 3 -1 7q0 13 1 22h-64v108z" />
    <glyph glyph-name="trademark" unicode="&#x2122;" horiz-adv-x="962" 
d="M23 700h362v-102h-115v-316h-132v316h-115v102zM783 700h158v-418h-133v201l-94 -201h-70l-92 200v-200h-132v418h158l101 -213z" />
    <glyph glyph-name="oneeighth" unicode="&#x215b;" horiz-adv-x="980" 
d="M601 713h178l-439 -727h-178zM206 700h98v-409h-132v220l-54 -49l-78 86zM932 295q-3 -51 -51 -79q50 -30 58 -77q1 -8 1 -16q0 -50 -47.5 -86.5t-122.5 -36.5t-123 36.5t-48 86.5q0 8 2 16q8 47 58 77q-48 28 -51 79q-3 48 40.5 85.5t121 37.5t121.5 -37.5t41 -85.5z
M771 267q14 0 24 7t10 21q0 13 -9 20.5t-25 7.5t-25 -7.5t-9 -20.5t9 -20.5t25 -7.5zM770 172q-18 0 -30 -9t-12 -25q0 -17 11.5 -26.5t30 -9.5t30 9.5t11.5 26.5q0 15 -11 24.5t-30 9.5z" />
    <glyph glyph-name="threeeighths" unicode="&#x215c;" horiz-adv-x="987" 
d="M608 713h179l-440 -727h-178zM939 295q-3 -51 -51 -79q50 -30 58 -77q2 -8 2 -16q0 -50 -48 -86.5t-123 -36.5t-123 36.5t-48 86.5q0 8 2 16q8 47 58 77q-48 28 -51 79q-3 48 41 85.5t121 37.5t121 -37.5t41 -85.5zM48 598v102h302v-66l-69 -92q24 -14 41 -33
q33 -34 33 -81q0 -69 -46.5 -105t-113.5 -36q-85 0 -155 48l36 94q46 -34 96 -36h4q44 0 46 36q1 2 1 5q0 28 -34 36q-19 4 -70 4v29l70 95h-141zM777 172q-18 0 -30 -9t-12 -25q0 -17 11.5 -26.5t30.5 -9.5t30 9.5t11 26.5q0 15 -11 24.5t-30 9.5zM778 267q14 0 24 7t10 21
q0 13 -9 20.5t-25 7.5t-25 -7.5t-9 -20.5t9 -20.5t25 -7.5z" />
    <glyph glyph-name="fiveeighths" unicode="&#x215d;" horiz-adv-x="985" 
d="M606 713h178l-439 -727h-178zM937 295q-3 -51 -51 -79q50 -30 58 -77q1 -8 1 -16q0 -50 -47.5 -86.5t-122.5 -36.5t-123 36.5t-48 86.5q0 8 2 16q8 47 58 77q-48 28 -51 79q-3 49 40.5 86t121 37t121.5 -37.5t41 -85.5zM93 700h254v-102h-169l-5 -37q24 4 46 4h5
q25 0 46 -6.5t41 -20.5t31.5 -41t11.5 -64q0 -70 -48.5 -108t-118.5 -38q-81 -1 -147 41l34 91q57 -27 94 -28q49 -1 53 43v4q0 30 -31 33q-5 1 -11 1q-16 0 -38 -7l-80 12zM775 172q-18 0 -30 -9t-12 -25q0 -17 11.5 -26.5t30 -9.5t30 9.5t11.5 26.5q0 15 -11 24.5t-30 9.5
zM776 267q14 0 24 7t10 21q0 13 -9 20.5t-25 7.5t-25 -7.5t-9 -20.5t9 -20.5t25 -7.5z" />
    <glyph glyph-name="seveneighths" unicode="&#x215e;" horiz-adv-x="929" 
d="M550 713h178l-439 -727h-178zM40 700h318v-62l-165 -347h-140l145 307h-158v102zM881 295q-3 -51 -51 -79q50 -30 58 -77q2 -8 2 -16q0 -50 -48 -86.5t-123 -36.5t-123 36.5t-48 86.5q0 8 2 16q8 47 58 77q-48 28 -51 79q-3 48 41 85.5t121 37.5t121 -37.5t41 -85.5z
M720 267q14 0 24 7t10 21q0 13 -9 20.5t-25 7.5t-25 -7.5t-9 -20.5t9 -20.5t25 -7.5zM719 172q-18 0 -30 -9t-12 -25q0 -17 11.5 -26.5t30.5 -9.5t30 9.5t11 26.5q0 15 -11 24.5t-30 9.5z" />
    <glyph glyph-name="emptyset" unicode="&#x2205;" horiz-adv-x="634" 
 />
    <glyph glyph-name="minus" unicode="&#x2212;" horiz-adv-x="611" 
d="M26 365h558v-147h-558v147z" />
    <glyph glyph-name="approxequal" unicode="&#x2248;" horiz-adv-x="611" 
d="M73 281l-46 121q94 82 166 90q11 1 21 1q42 0 97 -21l50 -23q34 -15 62 -15q17 0 32 4q41 13 81 64l48 -128q-60 -73 -134 -90q-22 -5 -46 -5q-51 0 -108 24l-48 22q-37 14 -62 14h-13q-38 -5 -100 -58zM73 57l-46 121q94 81 166 89q11 2 21 2q42 0 97 -22l50 -23
q34 -15 62 -15q17 0 32 5q41 13 81 63l48 -127q-60 -73 -134 -90q-22 -6 -46 -6q-51 0 -108 25l-48 22q-37 14 -62 14q-7 0 -13 -1q-38 -5 -100 -57z" />
    <glyph glyph-name="notequal" unicode="&#x2260;" horiz-adv-x="611" 
d="M305 525h178l-28 -90h129v-148h-174l-20 -65h194v-148h-239l-27 -88h-178l27 88h-141v148h186l20 65h-206v148h251z" />
    <glyph glyph-name="lessequal" unicode="&#x2264;" horiz-adv-x="581" 
d="M28 532l521 188v-151l-303 -113l303 -112v-152l-521 189v151zM28 145h521v-142h-521v142z" />
    <glyph glyph-name="greaterequal" unicode="&#x2265;" horiz-adv-x="581" 
d="M28 569v151l521 -188v-151l-521 -189v152l302 112zM28 145h521v-142h-521v142z" />
    <glyph glyph-name="s_t" unicode="&#xfb06;" horiz-adv-x="1079" 
d="M661 624h191v-124h169v-120h-169v-185q0 -70 64 -73h5q32 0 78 13l46 -120q-112 -25 -181 -25h-7q-196 2 -196 176v214h-251q-51 16 -91 19h-10q-27 0 -43.5 -8t-17.5 -22q-1 -19 16.5 -29t71.5 -26q32 -10 56 -18.5t51 -22.5t43.5 -30.5t28 -40t11.5 -52.5q0 -8 -1 -16
q-5 -49 -44.5 -82.5t-95.5 -47.5t-125 -13q-135 0 -234 49l41 114q96 -51 180 -52q35 0 57 9.5t24 26.5q1 2 1 5q0 15 -13.5 24t-39.5 17q-129 43 -178 79.5t-49 99.5q0 7 1 14q3 45 37.5 76.5t86.5 45.5t117 14q63 0 129 -13h241v124z" />
    <glyph glyph-name="a.ss01" horiz-adv-x="669" 
d="M432 450v50h190v-500h-152l-8 51q-68 -61 -165 -61q-50 0 -96 18.5t-83.5 52t-60 87.5t-22.5 119q0 112 67.5 177t163.5 66q91 0 166 -60zM431 149v210q-41 25 -82 25h-5q-50 -1 -83 -37t-33 -97t34 -97.5t82 -37.5q46 -1 87 34z" />
    <glyph glyph-name="e.ss01" horiz-adv-x="591" 
d="M505 149l24 -130q-105 -29 -192 -29q-65 0 -118.5 14.5t-95.5 45t-65 81.5t-23 119q0 53 17.5 100t51 83t87.5 57t122 20q101 -1 167.5 -58t66.5 -126q0 -21 -7 -40q-16 -44 -64.5 -71t-122.5 -27q-64 0 -139 21q6 -43 45.5 -63.5t101.5 -21.5q68 0 144 25zM297 388
q-72 -11 -82 -92l-2 -17q36 -5 67 -5q70 0 90 28q9 14 9 30q0 23 -18.5 40t-48.5 17q-7 0 -15 -1z" />
    <glyph glyph-name="T_h" horiz-adv-x="1288" 
d="M18 700h864v-278q28 40 78.5 64t105.5 24q76 0 128.5 -48.5t52.5 -145.5v-316h-191v305q0 41 -22.5 60.5t-57.5 18.5q-26 0 -52 -11.5t-42 -30.5v-342h-191v552h-271v-552h-201v552h-201v148z" />
    <glyph glyph-name="c_h" horiz-adv-x="1215" 
d="M618 700h191v-278q28 40 78.5 64t105.5 24q76 0 128.5 -48.5t52.5 -145.5v-316h-191v305q0 41 -22.5 60.5t-57.5 18.5q-26 0 -52 -11.5t-42 -30.5v-342h-191v700zM491 173l45 -121q-107 -63 -221 -62q-78 0 -140 28.5t-101 88.5t-39 143t39 143t101 88t140 29
q115 1 221 -62l-45 -121q-77 49 -143 49h-8q-49 -2 -77.5 -34t-28.5 -92t28.5 -92t77.5 -34h8q66 0 143 49z" />
    <glyph glyph-name="c_t" horiz-adv-x="1094" 
d="M676 624h191v-175h169v-120h-169v-134q0 -70 64 -73h6q31 0 78 13l45 -120q-111 -25 -180 -25h-8q-196 2 -196 176v163h-186q-77 47 -142 47h-8q-49 -2 -77.5 -34t-28.5 -92t28.5 -92t77.5 -34h8q66 0 143 49l45 -121q-107 -63 -221 -62q-78 0 -140 28.5t-101 88.5
t-39 143t39 143t101 88t140 29q116 1 219 -60h142v174z" />
    <glyph glyph-name="f_b" horiz-adv-x="1155" 
d="M441 700h283v-250q75 60 166 60q96 -1 163.5 -66t67.5 -177q0 -65 -22.5 -119t-60 -87.5t-84 -52t-95.5 -18.5q-98 0 -165 61l-8 -51h-153v580h-69q-40 9 -73 9q-20 0 -32 -4q-53 -12 -53 -63v-22h143v-120h-143v-379h-191v379h-94v120h94v25q0 128 120 169q47 16 108 16
q48 0 98 -10zM725 359v-210q40 -35 87 -34t81.5 37.5t34.5 97.5t-33.5 97t-82.5 37h-6q-41 0 -81 -25z" />
    <glyph glyph-name="f_f_j" horiz-adv-x="1279" 
d="M792 500l440 1v-491q0 -92 -59.5 -147.5t-151.5 -63.5q-18 -2 -37 -2q-49 0 -99 14l31 118q29 -7 51 -7q9 0 18 1q56 11 56 86v371h-249v-379h-191v379h-295v-379h-191v379h-94v120h94v25q0 128 120 169q47 16 109 16q78 0 158 -24l-39 -110q-41 13 -73 13q-17 0 -31 -4
q-53 -12 -53 -63v-22h295v25q0 128 120 169q47 16 109 16q78 0 159 -24l-40 -110q-40 13 -73 13q-17 0 -31 -4q-53 -12 -53 -63v-22zM1135 700h4q41 0 67.5 -21t26.5 -47v-16q0 -26 -26.5 -47t-67.5 -21h-4q-42 0 -68.5 21t-26.5 47v16q0 26 26.5 47t68.5 21z" />
    <glyph glyph-name="f_h" horiz-adv-x="1135" 
d="M441 700h288v-278q28 40 78.5 64t105.5 24q77 0 129 -48.5t52 -145.5v-316h-191v305q0 41 -22.5 60.5t-56.5 18.5q-27 0 -53 -11.5t-42 -30.5v-342h-191v580h-75q-39 9 -72 9q-20 0 -32 -4q-53 -12 -53 -63v-22h143v-120h-143v-379h-191v379h-94v120h94v25q0 128 120 169
q47 16 108 16q48 0 98 -10z" />
    <glyph glyph-name="f_j" horiz-adv-x="793" 
d="M306 500l440 1v-491q0 -92 -59.5 -147.5t-151.5 -63.5q-18 -2 -37 -2q-49 0 -99 14l31 118q29 -7 51 -7q9 0 18 1q56 11 56 86v371h-249v-379h-191v379h-94v120h94v25q0 128 120 169q47 16 109 16q78 0 158 -24l-39 -110q-40 13 -73 13q-17 0 -31 -4q-53 -12 -53 -63v-22
zM648 700h4q42 0 68.5 -21t26.5 -47v-16q0 -26 -26.5 -47t-68.5 -21h-4q-41 0 -67.5 21t-26.5 47v16q0 26 26.5 47t67.5 21z" />
    <glyph glyph-name="f_k" horiz-adv-x="1167" 
d="M442 700h285v-365l176 164h243l-214 -194l220 -305h-227l-136 207l-62 -55v-152h-191v580h-72q-39 9 -73 9q-20 0 -32 -4q-53 -12 -53 -63v-22h143v-120h-143v-379h-191v379h-94v120h94v25q0 128 120 169q47 16 108 16q48 0 99 -10z" />
    <glyph glyph-name="s_p" horiz-adv-x="1220" 
d="M26 40l41 114q96 -51 180 -52q35 0 57 9t24 27q1 2 1 5q0 15 -13.5 24t-39.5 17q-129 43 -178 79.5t-49 99.5q0 7 1 14q3 45 37.5 76.5t86.5 45.5t117 14q63 0 129 -13h369v-77q31 42 77 64.5t96 22.5q43 0 82.5 -16.5t71 -48t51 -82t19.5 -113.5q0 -112 -68.5 -185.5
t-162.5 -74.5q-92 0 -166 60v-236h-191v566h-188q-51 16 -91 19h-10q-27 0 -43.5 -8t-17.5 -22q-1 -20 16.5 -29.5t71.5 -25.5q32 -10 56 -18.5t51 -22.5t43.5 -30.5t28 -40t11.5 -52.5q0 -8 -1 -16q-5 -49 -44.5 -82.5t-95.5 -47.5t-125 -13q-135 0 -234 49zM790 351v-210
q40 -26 81 -26q3 0 6 1q49 1 82.5 37t33.5 97t-34.5 97.5t-81.5 37.5t-87 -34z" />
    <glyph glyph-name="A.sc" horiz-adv-x="560" 
d="M198 500h165l184 -500h-169l-32 97h-131l-32 -97h-169zM320 207l-39 130l-40 -130h79z" />
    <glyph glyph-name="B.sc" horiz-adv-x="490" 
d="M37 500h238q82 0 129.5 -41.5t47.5 -95.5q1 -29 -14 -57t-42 -46q34 -17 54.5 -49t19.5 -68q-1 -58 -51 -100.5t-140 -42.5h-242v500zM193 305h69q17 0 27 9.5t10 27t-10 27t-27 9.5h-69v-73zM193 120h71q17 0 27.5 10t10.5 27.5t-10.5 27t-27.5 9.5h-71v-74z" />
    <glyph glyph-name="C.sc" horiz-adv-x="498" 
d="M433 169l46 -127q-81 -52 -183 -50q-73 2 -133.5 32t-98.5 89.5t-38 137t38 137t98.5 90t133.5 31.5q101 2 183 -50l-46 -127q-59 46 -124 45q-51 -2 -79 -34t-28 -92.5t28 -92.5t79 -34q65 -1 124 45z" />
    <glyph glyph-name="D.sc" horiz-adv-x="530" 
d="M37 500h220q78 0 135.5 -36t85.5 -92t28 -122t-28 -122t-85.5 -92t-135.5 -36h-220v500zM202 130h40q48 0 73 32.5t25 88t-25 87.5t-73 32h-40v-240z" />
    <glyph glyph-name="E.sc" horiz-adv-x="448" 
d="M37 0v500h387v-128h-222v-56h208v-125h-208v-64h225v-127h-390z" />
    <glyph glyph-name="F.sc" horiz-adv-x="432" 
d="M37 500h376v-128h-211v-67h197v-125h-197v-180h-165v500z" />
    <glyph glyph-name="G.sc" horiz-adv-x="533" 
d="M497 279v-227q-25 -21 -80.5 -41t-134.5 -20q-61 0 -110.5 22.5t-81 59t-48 82t-16.5 94.5q0 62 22.5 112.5t60.5 82t86 48t101 17.5q101 0 198 -48l-46 -124q-70 40 -130 39q-51 -2 -83.5 -34t-32.5 -93q0 -54 21 -86t53 -39q13 -3 25 -3q17 0 37 5v58h-60v95h219z" />
    <glyph glyph-name="H.sc" horiz-adv-x="535" 
d="M334 500h165v-500h-165v193h-132v-193h-165v500h165v-177h132v177z" />
    <glyph glyph-name="I.sc" horiz-adv-x="238" 
d="M37 500h165v-500h-165v500z" />
    <glyph glyph-name="J.sc" horiz-adv-x="394" 
d="M191 500h167v-322q0 -83 -56.5 -135.5t-135.5 -52.5q-41 0 -84.5 17t-67.5 43l35 94q40 -27 81 -26q27 1 44 16t17 44v322z" />
    <glyph glyph-name="K.sc" horiz-adv-x="540" 
d="M324 500h200l-186 -210l177 -290h-186l-100 167l-27 -31v-136h-165v500h165v-149z" />
    <glyph glyph-name="L.sc" horiz-adv-x="422" 
d="M37 0v500h165v-370h207v-130h-372z" />
    <glyph glyph-name="M.sc" horiz-adv-x="688" 
d="M459 500h192v-500h-165v217l-102 -217h-88l-99 216v-216h-165v500h192l116 -244z" />
    <glyph glyph-name="N.sc" horiz-adv-x="528" 
d="M331 500h165v-500h-153l-146 220v-220h-165v500h155l144 -221v221z" />
    <glyph glyph-name="O.sc" horiz-adv-x="577" 
d="M177 485q51 23 111.5 23t111.5 -22.5t83.5 -59.5t50.5 -82.5t18 -94t-18 -94t-50.5 -82.5t-83.5 -59.5t-111.5 -22.5t-111 22.5t-83 59.5t-50.5 82.5t-18 94t18 94t50.5 82.5t82.5 59zM375 249q0 127 -86.5 127t-86.5 -126.5t86.5 -126.5t86.5 126z" />
    <glyph glyph-name="P.sc" horiz-adv-x="507" 
d="M37 500h246q82 0 140.5 -52.5t58.5 -129.5t-58.5 -129t-140.5 -52h-81v-137h-165v500zM203 267h63q22 0 36.5 14t14.5 37.5t-14.5 37.5t-36.5 14h-63v-103z" />
    <glyph glyph-name="Q.sc" horiz-adv-x="578" 
d="M392 -90l-60 85q-21 -5 -42 -5q-61 0 -112 22.5t-83.5 59.5t-50.5 83t-18 94.5t18 94.5t50.5 82.5t83.5 59t111.5 22.5t111.5 -22.5t84 -59t51 -82.5t18 -95q0 -57 -24.5 -111t-68.5 -91l45 -66zM376 249q0 127 -86.5 127t-86.5 -127t86.5 -127t86.5 127z" />
    <glyph glyph-name="R.sc" horiz-adv-x="521" 
d="M37 0v500h252q77 0 132 -47t55 -122q0 -45 -23 -81t-61 -55l113 -195h-181l-92 161h-30v-161h-165zM204 291h68q18 0 29 10t11 30q0 39 -40 39h-68v-79z" />
    <glyph glyph-name="S.sc" horiz-adv-x="458" 
d="M18 52l46 115q52 -27 124 -38q18 -3 32 -3q43 0 45 22v4q0 10 -7.5 17t-28.5 15q-113 42 -152.5 77t-39.5 88q0 6 1 12q3 49 34.5 83t75 48t95.5 14q106 0 196 -44l-47 -120q-34 15 -80 24q-25 4 -44 4q-38 0 -43 -16q-1 -3 -1 -5q0 -9 12.5 -17.5t44.5 -19.5t51 -18.5
t42 -21t35.5 -28.5t21 -37.5t8.5 -51.5q0 -7 -1 -15q-4 -69 -65 -109.5t-140 -38.5q-96 0 -215 60z" />
    <glyph glyph-name="T.sc" horiz-adv-x="461" 
d="M14 500h434v-130h-134v-370h-165v370h-135v130z" />
    <glyph glyph-name="U.sc" horiz-adv-x="514" 
d="M340 500h143v-321q0 -81 -57.5 -133.5t-165 -52.5t-165.5 52.5t-58 133.5v321h144v-321q0 -80 79.5 -80t79.5 80v321z" />
    <glyph glyph-name="V.sc" horiz-adv-x="558" 
d="M372 500h173l-191 -500h-149l-191 500h173l93 -280z" />
    <glyph glyph-name="W.sc" horiz-adv-x="780" 
d="M598 500h169l-134 -500h-174l-68 231l-68 -231h-174l-135 500h169l61 -256l73 256h148l72 -256z" />
    <glyph glyph-name="X.sc" horiz-adv-x="568" 
d="M368 500h187l-167 -251l166 -249h-188l-82 135l-82 -135h-188l167 250l-167 250h187l84 -132z" />
    <glyph glyph-name="Y.sc" horiz-adv-x="577" 
d="M382 500h182l-192 -305v-195h-165v195l-193 305h183l92 -161z" />
    <glyph glyph-name="Z.sc" horiz-adv-x="446" 
d="M31 500h390v-82l-193 -288h201v-130h-411v82l194 288h-181v130z" />
    <glyph glyph-name="zero.lf" horiz-adv-x="711" 
d="M242 670q51 20 114 20t114.5 -19.5t85.5 -52.5t57.5 -78.5t34 -95t10.5 -104t-10.5 -104.5t-34 -95t-57.5 -78.5t-85.5 -53t-114.5 -19.5t-114 19.5t-85.5 53t-57.5 78.5t-33.5 95t-10.5 104.5t10.5 104t33.5 95t57.5 78.5t85.5 52zM431 490q-26 53 -75 53t-74.5 -52.5
t-25.5 -150.5t25.5 -150t74.5 -52t75 52t26 150t-26 150z" />
    <glyph glyph-name="one.lf" horiz-adv-x="522" 
d="M293 682h150v-684h-201v405l-108 -99l-116 127z" />
    <glyph glyph-name="two.lf" horiz-adv-x="599" 
d="M90 496l-51 138q120 58 241 57q119 0 194.5 -57t72.5 -162q-2 -129 -143 -268l-57 -57h215v-148h-511v100l211 209q41 40 63 81.5t22 75.5v10q-3 34 -28.5 52t-65.5 18q-78 1 -163 -49z" />
    <glyph glyph-name="three.lf" horiz-adv-x="607" 
d="M49 681h495v-95l-128 -171q31 -14 55 -32q82 -61 82 -163q0 -58 -21 -103t-58 -72.5t-84 -41.5t-101 -14q-136 0 -251 76l50 133q36 -23 79.5 -38t81.5 -17h7q41 0 67.5 19t29.5 58q1 6 1 11q0 61 -68 77q-36 8 -113 9v30l138 186h-262v148z" />
    <glyph glyph-name="four.lf" horiz-adv-x="691" 
d="M332 682h214v-354h108v-126h-108v-204h-193v204h-317v85zM352 328v190l-144 -190h144z" />
    <glyph glyph-name="five.lf" horiz-adv-x="597" 
d="M126 681h413v-148h-293l-13 -98q53 10 97 10h10q33 -1 61.5 -7t57 -21.5t48.5 -38.5t32.5 -61.5t12.5 -87.5q0 -60 -22.5 -106.5t-61 -75t-87.5 -43.5t-105 -15q-129 0 -238 63l48 132q93 -43 157 -44q45 -1 74 20.5t34 68.5v10q0 32 -18 50.5t-50 22.5q-10 1 -20 1
q-31 0 -69 -12l-120 18z" />
    <glyph glyph-name="six.lf" horiz-adv-x="675" 
d="M607 635l-48 -130q-75 43 -150 43q-14 0 -27 -1q-88 -10 -128 -81q-17 -28 -24 -83q35 39 82.5 60t100.5 22q93 1 158 -57t67 -164q1 -48 -19.5 -94t-56.5 -81.5t-90 -57t-116 -21.5q-78 0 -139 29.5t-97.5 80t-55 111.5t-18.5 129q0 82 27 148.5t74 109.5t108.5 67
t131.5 25q5 1 9 1q112 0 211 -56zM343 350q-36 -1 -66 -22t-46 -58q21 -132 125 -132q40 0 65 28t25 79q0 49 -29.5 77.5t-73.5 27.5z" />
    <glyph glyph-name="seven.lf" horiz-adv-x="596" 
d="M37 682h525v-89l-282 -595h-212l255 536h-286v148z" />
    <glyph glyph-name="eight.lf" horiz-adv-x="675" 
d="M606 491q-3 -45 -30.5 -82t-76.5 -57q105 -49 119 -137q3 -14 3 -27q0 -81 -78.5 -139.5t-204.5 -58.5t-204.5 58.5t-78.5 139.5q0 13 3 27q14 88 119 137q-49 20 -76.5 57t-30.5 82q-2 38 14 73t48.5 63.5t86 46t119.5 17.5t119.5 -17.5t86 -46t48.5 -63.5t14 -73z
M340 425q32 0 53.5 16.5t21.5 48.5q0 31 -20.5 48t-55 17t-55 -17t-20.5 -47.5t20.5 -48t55.5 -17.5zM338 291q-38 0 -63.5 -19.5t-25.5 -56.5q0 -36 24.5 -57t64 -21t64 21t24.5 57t-24 56t-64 20z" />
    <glyph glyph-name="nine.lf" horiz-adv-x="675" 
d="M69 45l48 131q75 -43 150 -43q14 0 27 1q84 9 124 75q20 30 28 88q-35 -39 -82.5 -60t-100.5 -21q-93 -1 -158 57t-67 163q-1 48 19.5 94t56.5 81.5t90 57.5t116 22q78 0 139 -30t97.5 -80t55 -111.5t18.5 -129.5q0 -81 -27 -148t-74 -110t-108.5 -66.5t-131.5 -25.5h-10
q-111 0 -210 55zM320 542q-40 0 -65 -28t-25 -78t29.5 -78.5t73.5 -26.5q36 1 66 22t46 58q-21 132 -125 131z" />
    <glyph glyph-name="zero.osf" horiz-adv-x="500" 
d="M149 484q44 23 101.5 23t101.5 -22.5t70 -60t39 -82t13 -93t-13 -93t-39 -82t-70 -60t-101.5 -22.5t-101.5 22.5t-70 60t-39 82t-13 93t13 93t39 82t70 59.5zM289 341q-14 32 -38.5 32t-39 -31.5t-14.5 -92t14.5 -92t39 -31.5t39 31.5t14.5 92t-15 91.5z" />
    <glyph glyph-name="one.osf" horiz-adv-x="417" 
d="M219 500h123v-500h-167v259l-59 -54l-100 109z" />
    <glyph glyph-name="two.osf" horiz-adv-x="463" 
d="M82 333l-47 126q91 48 186 47q84 0 142 -44t56 -122q-2 -95 -103 -195l-12 -12h125v-133h-381v91l149 148q54 53 54 97v4q-3 35 -49 35q-58 0 -120 -42z" />
    <glyph glyph-name="three.osf" horiz-adv-x="607" 
d="M49 500h495v-95l-128 -172q31 -13 55 -31q82 -62 82 -163q0 -76 -37.5 -129.5t-95.5 -77.5t-131 -24q-136 0 -251 76l50 133q36 -23 79.5 -38.5t81.5 -16.5h7q41 0 67.5 19t29.5 59q1 5 1 11q0 60 -68 76q-36 9 -113 9v30l138 186h-262v148z" />
    <glyph glyph-name="four.osf" horiz-adv-x="691" 
d="M332 500h214v-353h108v-127h-108v-203h-193v203h-317v85zM352 147v190l-144 -190h144z" />
    <glyph glyph-name="five.osf" horiz-adv-x="597" 
d="M126 500h413v-148h-293l-13 -98q53 10 97 10h10q33 -1 61.5 -7t57 -21.5t48.5 -38.5t32.5 -61.5t12.5 -87.5q0 -79 -39.5 -134t-100 -80.5t-136.5 -25.5q-129 0 -238 64l48 131q92 -43 157 -44q45 -1 74 20.5t34 68.5v10q0 32 -18 50.5t-50 22.5q-10 1 -20 1
q-31 0 -69 -11l-120 17z" />
    <glyph glyph-name="six.osf" horiz-adv-x="675" 
d="M607 635l-48 -130q-75 43 -150 43q-14 0 -27 -1q-88 -10 -128 -81q-17 -28 -24 -83q35 39 82.5 60t100.5 22q93 1 158 -57t67 -164q1 -48 -19.5 -94t-56.5 -81.5t-90 -57t-116 -21.5q-78 0 -139 29.5t-97.5 80t-55 111.5t-18.5 129q0 82 27 148.5t74 109.5t108.5 67
t131.5 25q5 1 9 1q112 0 211 -56zM343 350q-36 -1 -66 -22t-46 -58q21 -132 125 -132q40 0 65 28t25 79q0 49 -29.5 77.5t-73.5 27.5z" />
    <glyph glyph-name="seven.osf" horiz-adv-x="591" 
d="M33 500h525v-89l-282 -594h-212l255 535h-286v148z" />
    <glyph glyph-name="eight.osf" horiz-adv-x="675" 
d="M606 491q-3 -45 -30.5 -82t-76.5 -57q105 -49 119 -137q3 -14 3 -27q0 -81 -78.5 -139.5t-204.5 -58.5t-204.5 58.5t-78.5 139.5q0 13 3 27q14 88 119 137q-49 20 -76.5 57t-30.5 82q-2 38 14 73t48.5 63.5t86 46t119.5 17.5t119.5 -17.5t86 -46t48.5 -63.5t14 -73z
M340 425q32 0 53.5 16.5t21.5 48.5q0 31 -20.5 48t-55 17t-55 -17t-20.5 -47.5t20.5 -48t55.5 -17.5zM338 291q-38 0 -63.5 -19.5t-25.5 -56.5q0 -36 24.5 -57t64 -21t64 21t24.5 57t-24 56t-64 20z" />
    <glyph glyph-name="nine.osf" horiz-adv-x="675" 
d="M69 -137l48 130q76 -43 152 -43q13 0 25 1q83 10 124 75q20 31 28 89q-35 -39 -82.5 -60t-100.5 -22q-93 -1 -158 57.5t-67 163.5q-1 48 19.5 94t56.5 81.5t90 57t116 21.5q78 0 139 -29.5t97.5 -79.5t55 -111.5t18.5 -129.5q0 -82 -27 -148.5t-74 -109.5t-108.5 -66.5
t-131.5 -25.5h-11q-111 0 -209 55zM320 360q-40 0 -65 -28t-25 -79q0 -49 29.5 -77.5t73.5 -27.5q36 2 66 22.5t46 58.5q-21 132 -125 131z" />
    <glyph glyph-name="zero.tf" 
d="M213 670q51 20 114 20t114 -19.5t85.5 -52.5t58 -78.5t33.5 -95t10 -104t-10 -104.5t-33.5 -95t-58 -78.5t-85.5 -53t-114 -19.5t-114 19.5t-85.5 53t-58 78.5t-33.5 95t-10 104.5t10 104t33.5 95t58 78.5t85.5 52zM402 490q-26 53 -75 53t-75 -52.5t-26 -150.5t26 -150
t75 -52t75 52t26 150t-26 150z" />
    <glyph glyph-name="one.tf" horiz-adv-x="600" 
d="M361 682h151v-684h-201v405l-108 -99l-116 127z" />
    <glyph glyph-name="two.tf" horiz-adv-x="600" 
d="M89 496l-51 138q120 58 242 57q118 0 193.5 -57t73.5 -162q-3 -129 -144 -268l-57 -57h215v-148h-511v100l212 209q40 40 62 81.5t22 75.5v10q-3 34 -28.5 52t-65.5 18q-77 1 -163 -49z" />
    <glyph glyph-name="three.tf" horiz-adv-x="600" 
d="M53 681h495v-95l-128 -171q30 -14 55 -32q82 -61 82 -163q0 -58 -21.5 -103t-58.5 -72.5t-83.5 -41.5t-100.5 -14q-136 0 -251 76l50 133q36 -23 79.5 -38t81.5 -17h6q42 0 68.5 19t29.5 58v11q0 61 -68 77q-35 8 -112 9v30l137 186h-261v148z" />
    <glyph glyph-name="four.tf" horiz-adv-x="667" 
d="M320 682h215v-354h108v-126h-108v-204h-193v204h-317v85zM341 328v190l-144 -190h144z" />
    <glyph glyph-name="five.tf" horiz-adv-x="600" 
d="M130 681h414v-148h-293l-14 -98q53 10 98 10h10q33 -1 61.5 -7t56.5 -21.5t48 -38.5t32.5 -61.5t12.5 -87.5q0 -60 -22.5 -106.5t-61 -75t-87.5 -43.5t-105 -15q-129 0 -238 63l49 132q93 -43 156 -44q45 -1 74.5 20.5t33.5 68.5q1 5 1 10q0 32 -18 50.5t-50 22.5
q-10 1 -20 1q-31 0 -69 -12l-121 18z" />
    <glyph glyph-name="six.tf" horiz-adv-x="647" 
d="M589 635l-48 -130q-75 43 -151 43q-13 0 -26 -1q-88 -10 -128 -81q-18 -28 -24 -83q34 39 82 60t101 22q92 1 157.5 -57t67.5 -164q1 -48 -19.5 -94t-57 -81.5t-90 -57t-115.5 -21.5q-78 0 -139 29.5t-97.5 80t-55 111.5t-18.5 129q0 82 27 148.5t74 109.5t108 67t131 25
q5 1 10 1q112 0 211 -56zM325 350q-36 -1 -66 -22t-47 -58q21 -132 126 -132q40 0 65 28t25 79q0 49 -30 77.5t-73 27.5z" />
    <glyph glyph-name="seven.tf" horiz-adv-x="600" 
d="M37 682h525v-89l-283 -595h-211l254 536h-285v148z" />
    <glyph glyph-name="eight.tf" horiz-adv-x="623" 
d="M580 491q-3 -45 -30.5 -82t-77.5 -57q105 -49 120 -137q3 -14 3 -27q0 -81 -78.5 -139.5t-204.5 -58.5t-204.5 58.5t-78.5 139.5q0 13 2 27q15 88 120 137q-49 20 -77 57t-30 82q-2 38 14 73t48.5 63.5t85.5 46t119.5 17.5t120 -17.5t86 -46t48.5 -63.5t14 -73zM314 425
q31 0 53 16.5t22 48.5q0 31 -20.5 48t-55 17t-55 -17t-20.5 -47.5t20.5 -48t55.5 -17.5zM311 291q-38 0 -63 -19.5t-25 -56.5q0 -36 24 -57t64 -21t64.5 21t24.5 57t-24 56t-65 20z" />
    <glyph glyph-name="nine.tf" horiz-adv-x="647" 
d="M59 45l48 131q75 -43 151 -43q13 0 26 1q84 9 125 75q19 30 27 88q-34 -39 -82 -60t-101 -21q-92 -1 -157.5 57t-67.5 163q-1 48 19.5 94t57 81.5t90 57.5t115.5 22q78 0 139 -30t97.5 -80t55 -111.5t18.5 -129.5q0 -81 -27 -148t-74 -110t-108 -66.5t-131 -25.5h-11
q-110 0 -210 55zM310 542q-40 0 -65 -28t-25 -78t30 -78.5t73 -26.5q36 1 66 22t46 58q-20 132 -125 131z" />
    <glyph glyph-name="zero.tosf" horiz-adv-x="500" 
d="M148 484q45 23 102 23t101.5 -22.5t70 -60t38.5 -82t13 -93t-13 -93t-38.5 -82t-70 -60t-101.5 -22.5t-101.5 22.5t-70.5 60t-39 82t-13 93t13 93t39 82t70 59.5zM289 341q-14 32 -39 32t-39.5 -31.5t-14.5 -92t14.5 -92t39.5 -31.5t39.5 31.5t14.5 92t-15 91.5z" />
    <glyph glyph-name="one.tosf" horiz-adv-x="500" 
d="M290 500h123v-500h-167v259l-59 -54l-100 109z" />
    <glyph glyph-name="two.tosf" horiz-adv-x="500" 
d="M102 333l-46 126q90 48 185 47q85 0 142.5 -44t56.5 -122q-2 -95 -103 -195l-13 -12h126v-133h-382v91l150 148q53 53 53 97v4q-2 35 -49 35q-57 0 -120 -42z" />
    <glyph glyph-name="three.tosf" horiz-adv-x="600" 
d="M54 500h495v-95l-129 -172q31 -13 55 -31q83 -62 83 -163q0 -76 -37.5 -129.5t-95.5 -77.5t-131 -24q-136 0 -252 76l51 133q35 -23 78.5 -38.5t81.5 -16.5h7q42 0 68.5 19t29.5 59v11q0 60 -68 76q-35 9 -113 9v30l138 186h-261v148z" />
    <glyph glyph-name="four.tosf" horiz-adv-x="667" 
d="M321 500h214v-353h108v-127h-108v-203h-193v203h-317v85zM342 147v190l-145 -190h145z" />
    <glyph glyph-name="five.tosf" horiz-adv-x="600" 
d="M131 500h414v-148h-294l-13 -98q53 10 98 10h10q32 -1 60.5 -7t57 -21.5t48.5 -38.5t32.5 -61.5t12.5 -87.5q0 -79 -39 -134t-100 -80.5t-137 -25.5q-129 0 -238 64l49 131q91 -43 156 -44q45 -1 74.5 20.5t33.5 68.5v10q0 32 -18 50.5t-50 22.5q-9 1 -20 1
q-30 0 -68 -11l-121 17z" />
    <glyph glyph-name="six.tosf" horiz-adv-x="647" 
d="M589 635l-48 -130q-75 43 -151 43q-13 0 -26 -1q-88 -10 -128 -81q-18 -28 -24 -83q34 39 82 60t101 22q92 1 157.5 -57t67.5 -164q1 -48 -19.5 -94t-57 -81.5t-90 -57t-115.5 -21.5q-78 0 -139 29.5t-97.5 80t-55 111.5t-18.5 129q0 82 27 148.5t74 109.5t108 67t131 25
q5 1 10 1q112 0 211 -56zM325 350q-36 -1 -66 -22t-47 -58q21 -132 126 -132q40 0 65 28t25 79q0 49 -30 77.5t-73 27.5z" />
    <glyph glyph-name="seven.tosf" horiz-adv-x="600" 
d="M38 500h524v-89l-282 -594h-211l254 535h-285v148z" />
    <glyph glyph-name="eight.tosf" horiz-adv-x="623" 
d="M580 491q-3 -45 -30.5 -82t-77.5 -57q105 -49 120 -137q3 -14 3 -27q0 -81 -78.5 -139.5t-204.5 -58.5t-204.5 58.5t-78.5 139.5q0 13 2 27q15 88 120 137q-49 20 -77 57t-30 82q-2 38 14 73t48.5 63.5t85.5 46t119.5 17.5t120 -17.5t86 -46t48.5 -63.5t14 -73zM314 425
q31 0 53 16.5t22 48.5q0 31 -20.5 48t-55 17t-55 -17t-20.5 -47.5t20.5 -48t55.5 -17.5zM311 291q-38 0 -63 -19.5t-25 -56.5q0 -36 24 -57t64 -21t64.5 21t24.5 57t-24 56t-65 20z" />
    <glyph glyph-name="nine.tosf" horiz-adv-x="647" 
d="M59 -137l48 130q76 -43 152 -43q13 0 25 1q84 10 125 75q20 31 27 89q-34 -39 -82 -60t-101 -22q-92 -1 -157.5 57.5t-67.5 163.5q-1 48 19.5 94t57 81.5t90.5 57t115 21.5q78 0 139 -29.5t97.5 -79.5t55 -111.5t18.5 -129.5q0 -82 -27 -148.5t-74 -109.5t-108 -66.5
t-131 -25.5h-11q-112 0 -210 55zM310 360q-40 0 -65 -28t-25 -79q0 -49 30 -77.5t73 -27.5q36 2 66 22.5t47 58.5q-21 132 -126 131z" />
    <glyph glyph-name="zero.dnom" horiz-adv-x="407" 
d="M122 400q36 18 82.5 18t82 -18t56.5 -48t31.5 -66.5t10.5 -76.5t-10.5 -76t-31.5 -66.5t-56.5 -48.5t-82 -18t-82.5 18t-57 48.5t-31.5 66.5t-10.5 76t10.5 76.5t31.5 66.5t57 48zM239 288q-12 28 -35 28t-35.5 -27.5t-12.5 -79.5t12.5 -79t35.5 -27t35.5 27t12.5 79
t-13 79z" />
    <glyph glyph-name="one.dnom" horiz-adv-x="309" 
d="M177 409h99v-409h-133v220l-53 -49l-79 86z" />
    <glyph glyph-name="two.dnom" horiz-adv-x="364" 
d="M59 280l-36 96q74 38 150 38q70 -1 116.5 -36t44.5 -99q-1 -71 -72 -147l-30 -30h111v-102h-310v70l123 122q46 45 46 83v5q-3 32 -45 32q-47 0 -98 -32z" />
    <glyph glyph-name="three.dnom" horiz-adv-x="360" 
d="M31 311v102h301v-66l-69 -92q25 -14 42 -33q32 -33 32 -81q0 -68 -46 -104.5t-114 -36.5q-85 0 -154 49l35 93q47 -34 97 -36h4q43 0 46 36v5q0 28 -33 36q-20 4 -70 4v29l70 95h-141z" />
    <glyph glyph-name="four.dnom" horiz-adv-x="416" 
d="M196 409h136v-211h62v-82h-62v-116h-128v116h-181v61zM204 198v89l-73 -89h73z" />
    <glyph glyph-name="five.dnom" horiz-adv-x="358" 
d="M76 413h254v-102h-169l-5 -36q24 3 45 3h6q25 0 46 -6.5t41 -20.5t31.5 -41t11.5 -64q0 -70 -48.5 -108t-118.5 -38q-81 0 -147 41l34 92q57 -28 94 -29q49 -1 53 43v4q0 30 -32 33q-5 1 -10 1q-16 0 -38 -7l-80 12z" />
    <glyph glyph-name="six.dnom" horiz-adv-x="401" 
d="M364 382l-34 -92q-46 29 -91 29q-7 0 -14 -1q-46 -5 -67 -42q-4 -5 -4 -13q0 -3 1 -5q38 31 86 31q56 1 96.5 -35t41.5 -99q1 -61 -48 -108t-122 -47q-61 0 -104.5 31.5t-62.5 77.5t-19 100q0 96 59 151.5t144 57.5q74 2 138 -36zM202 206q-38 -2 -55 -38q11 -65 62 -65
q19 0 30.5 13.5t11.5 38.5q0 23 -14 37t-35 14z" />
    <glyph glyph-name="seven.dnom" horiz-adv-x="362" 
d="M23 409h318v-62l-165 -347h-141l146 306h-158v103z" />
    <glyph glyph-name="eight.dnom" horiz-adv-x="386" 
d="M356 295q-3 -51 -51 -79q50 -30 58 -77q1 -8 1 -16q0 -50 -48 -86.5t-122.5 -36.5t-122.5 36.5t-48 86.5q0 8 1 16q8 47 59 77q-49 28 -52 79q-3 48 41 85.5t121.5 37.5t121.5 -37.5t41 -85.5zM195 267q14 0 24 7t10 21q0 13 -9.5 20.5t-25 7.5t-25 -7.5t-9.5 -20.5
t9.5 -20.5t25.5 -7.5zM193 172q-17 0 -29 -9t-12 -25q0 -17 11 -26.5t30 -9.5t30.5 9.5t11.5 26.5q0 15 -11.5 24.5t-30.5 9.5z" />
    <glyph glyph-name="nine.dnom" horiz-adv-x="401" 
d="M38 36l34 93q46 -30 90 -30q8 0 15 1q39 5 60 32q6 8 9 26q-38 -29 -86 -29q-55 -1 -95.5 35t-41.5 100q-1 60 48 107t122 47q61 0 104.5 -31.5t62.5 -77.5t19 -100q0 -95 -59 -151t-144 -58q-74 -2 -138 36zM193 316q-19 0 -30.5 -14t-11.5 -38t14 -38t35 -13
q38 1 55 38q-11 65 -62 65z" />
    <glyph glyph-name="zero.numr" horiz-adv-x="407" 
d="M122 682q36 18 82.5 18t82 -18t56.5 -48.5t31.5 -66.5t10.5 -76t-10.5 -76.5t-31.5 -66.5t-56.5 -48t-82 -18t-82.5 18t-57 48t-31.5 66.5t-10.5 76.5t10.5 76t31.5 66.5t57 48.5zM239 570q-12 28 -35 28t-35.5 -27.5t-12.5 -79.5t12.5 -79.5t35.5 -27.5t35.5 27.5
t12.5 79.5t-13 79z" />
    <glyph glyph-name="one.numr" horiz-adv-x="309" 
d="M177 700h99v-409h-133v220l-53 -49l-79 86z" />
    <glyph glyph-name="two.numr" horiz-adv-x="364" 
d="M59 566l-36 97q74 37 150 37q70 0 116.5 -35.5t44.5 -99.5q-1 -70 -72 -146l-30 -30h111v-103h-310v70l123 123q46 45 46 82v5q-3 32 -45 33q-47 0 -98 -33z" />
    <glyph glyph-name="three.numr" horiz-adv-x="360" 
d="M31 598v102h301v-66l-69 -92q25 -14 42 -33q32 -34 32 -81q0 -69 -46 -105t-114 -36q-85 0 -154 48l35 94q47 -34 97 -36h4q43 0 46 36v5q0 28 -33 35q-20 5 -70 5v29l70 95h-141z" />
    <glyph glyph-name="four.numr" horiz-adv-x="416" 
d="M196 700h136v-211h62v-81h-62v-117h-128v117h-181v60zM204 489v90l-73 -90h73z" />
    <glyph glyph-name="five.numr" horiz-adv-x="358" 
d="M76 700h254v-102h-169l-5 -37q24 4 45 4h6q25 0 46 -6.5t41 -20.5t31.5 -41t11.5 -64q0 -70 -48.5 -108t-118.5 -38q-81 -1 -147 41l34 91q57 -27 94 -28q49 -1 53 43v4q0 30 -32 33q-5 1 -10 1q-16 0 -38 -7l-80 12z" />
    <glyph glyph-name="six.numr" horiz-adv-x="401" 
d="M364 664l-34 -93q-46 30 -91 30q-7 0 -14 -1q-46 -5 -67 -42q-4 -6 -4 -14q0 -2 1 -4q38 31 86 31q56 1 96.5 -35t41.5 -100q1 -60 -48 -107t-122 -47q-61 0 -104.5 31.5t-62.5 77.5t-19 100q0 95 59 151t144 58q74 2 138 -36zM202 487q-38 -1 -55 -38q11 -65 62 -65
q19 0 30.5 14t11.5 38t-14 38t-35 13z" />
    <glyph glyph-name="seven.numr" horiz-adv-x="362" 
d="M23 700h318v-62l-165 -347h-141l146 307h-158v102z" />
    <glyph glyph-name="eight.numr" horiz-adv-x="386" 
d="M356 576q-3 -51 -51 -79q50 -30 58 -76q1 -8 1 -17q0 -49 -48 -85.5t-122.5 -36.5t-122.5 36.5t-48 85.5q0 9 1 17q8 47 59 76q-49 28 -52 79q-3 49 41 86.5t121.5 37.5t121.5 -37.5t41 -86.5zM195 548q14 0 24 7.5t10 20.5t-9.5 21t-25 8t-25 -8t-9.5 -20.5t9.5 -20.5
t25.5 -8zM193 454q-17 0 -29 -9t-12 -26q0 -16 11 -25.5t30 -9.5t30.5 9.5t11.5 25.5t-11.5 25.5t-30.5 9.5z" />
    <glyph glyph-name="nine.numr" horiz-adv-x="401" 
d="M38 318l34 92q46 -29 90 -29q8 0 15 1q39 4 60 32q6 8 9 26q-38 -29 -86 -29q-55 -1 -95.5 35t-41.5 99q-1 61 48 108t122 47q61 0 104.5 -31.5t62.5 -77.5t19 -100q0 -96 -59 -151.5t-144 -57.5h-7q-69 0 -131 36zM193 597q-19 0 -30.5 -13.5t-11.5 -38.5q0 -23 14 -37
t35 -14q38 2 55 38q-11 65 -62 65z" />
    </font>
</defs>
</svg>
